  0
SECTION
  2
HEADER
  9
$ANGBASE
  50
0.0
  9
$ANGDIR
  70
  1
  9
$MEASUREMENT
  70
0
  0
ENDSEC
  0
SECTION
  2
TABLES
  0
TABLE
  2
LTYPE
  70
4
  0
LTYPE
  5
40F
  2
CONTINUOUS
  70
0
  3
Solid line
  72
65
  73
0
  40
0.0
  0
LTYPE
  5
410
  2
DASHDOT
 70
0
  3
Dash Dot ____ _ ____ _
 72
65
 73
4
 40
2.0
 49
1.25
 49
-0.25
 49
0.25
 49
-0.25
  0
LTYPE
  5
411
  2
DASHED
 70
0
  3
Dashed __ __ __ __ __
 72
65
 73
2
 40
0.75
 49
0.5
 49
-0.25
  0
LTYPE
  5
43B
  2
DOTTED
 70
0
  3
Dotted .  .  .  .
 72
65
 73
2
 40
0.2
 49
0.0
 49
-0.2
  0
ENDTAB
  0
TABLE
  2
STYLE
  70
4
  0
STYLE
  2
KICAD
  70
0
  40
0
  41
1
  42
1
  50
0
  71
0
  3
isocp.shx
  0
STYLE
  2
KICADB
  70
0
  40
0
  41
1
  42
1
  50
0
  71
0
  3
isocp.shx
  0
STYLE
  2
KICADI
  70
0
  40
0
  41
1
  42
1
  50
15
  71
0
  3
isocp.shx
  0
STYLE
  2
KICADBI
  70
0
  40
0
  41
1
  42
1
  50
15
  71
0
  3
isocp.shx
  0
ENDTAB
  0
TABLE
  2
LAYER
  70
30
  0
LAYER
  2
BLACK
  70
0
  62
7
  6
CONTINUOUS
  0
LAYER
  2
GRAY1
  70
0
  62
251
  6
CONTINUOUS
  0
LAYER
  2
GRAY2
  70
0
  62
8
  6
CONTINUOUS
  0
LAYER
  2
GRAY3
  70
0
  62
9
  6
CONTINUOUS
  0
LAYER
  2
WHITE
  70
0
  62
7
  6
CONTINUOUS
  0
LAYER
  2
LYELLOW
  70
0
  62
51
  6
CONTINUOUS
  0
LAYER
  2
BLUE1
  70
0
  62
178
  6
CONTINUOUS
  0
LAYER
  2
GREEN1
  70
0
  62
98
  6
CONTINUOUS
  0
LAYER
  2
CYAN1
  70
0
  62
138
  6
CONTINUOUS
  0
LAYER
  2
RED1
  70
0
  62
18
  6
CONTINUOUS
  0
LAYER
  2
MAGENTA1
  70
0
  62
228
  6
CONTINUOUS
  0
LAYER
  2
BROWN1
  70
0
  62
58
  6
CONTINUOUS
  0
LAYER
  2
BLUE2
  70
0
  62
5
  6
CONTINUOUS
  0
LAYER
  2
GREEN2
  70
0
  62
3
  6
CONTINUOUS
  0
LAYER
  2
CYAN2
  70
0
  62
4
  6
CONTINUOUS
  0
LAYER
  2
RED2
  70
0
  62
1
  6
CONTINUOUS
  0
LAYER
  2
MAGENTA2
  70
0
  62
6
  6
CONTINUOUS
  0
LAYER
  2
BROWN2
  70
0
  62
54
  6
CONTINUOUS
  0
LAYER
  2
BLUE3
  70
0
  62
171
  6
CONTINUOUS
  0
LAYER
  2
GREEN3
  70
0
  62
91
  6
CONTINUOUS
  0
LAYER
  2
CYAN3
  70
0
  62
131
  6
CONTINUOUS
  0
LAYER
  2
RED3
  70
0
  62
11
  6
CONTINUOUS
  0
LAYER
  2
MAGENTA3
  70
0
  62
221
  6
CONTINUOUS
  0
LAYER
  2
YELLOW3
  70
0
  62
2
  6
CONTINUOUS
  0
LAYER
  2
BLUE4
  70
0
  62
5
  6
CONTINUOUS
  0
LAYER
  2
GREEN4
  70
0
  62
3
  6
CONTINUOUS
  0
LAYER
  2
CYAN4
  70
0
  62
4
  6
CONTINUOUS
  0
LAYER
  2
RED4
  70
0
  62
1
  6
CONTINUOUS
  0
LAYER
  2
MAGENTA4
  70
0
  62
6
  6
CONTINUOUS
  0
LAYER
  2
YELLOW4
  70
0
  62
2
  6
CONTINUOUS
  0
ENDTAB
  0
ENDSEC
  0
SECTION
  2
ENTITIES
0
LINE
8
BLACK
6
CONTINUOUS
10
331.787
20
-7.9375
11
331.787
21
-4.7625
0
LINE
8
BLACK
6
CONTINUOUS
10
311.467
20
-7.9375
11
311.467
21
-4.7625
0
LINE
8
BLACK
6
CONTINUOUS
10
291.147
20
-7.9375
11
291.147
21
-4.7625
0
LINE
8
BLACK
6
CONTINUOUS
10
270.827
20
-7.9375
11
270.827
21
-4.7625
0
LINE
8
BLACK
6
CONTINUOUS
10
250.507
20
-7.9375
11
250.507
21
-4.7625
0
LINE
8
BLACK
6
CONTINUOUS
10
230.188
20
-7.9375
11
230.188
21
-4.7625
0
LINE
8
BLACK
6
CONTINUOUS
10
209.867
20
-7.9375
11
209.867
21
-4.7625
0
LINE
8
BLACK
6
CONTINUOUS
10
189.547
20
-7.9375
11
189.547
21
-4.7625
0
LINE
8
BLACK
6
CONTINUOUS
10
169.227
20
-7.9375
11
169.227
21
-4.7625
0
LINE
8
BLACK
6
CONTINUOUS
10
148.907
20
-7.9375
11
148.907
21
-4.7625
0
LINE
8
BLACK
6
CONTINUOUS
10
128.588
20
-7.9375
11
128.588
21
-4.7625
0
LINE
8
BLACK
6
CONTINUOUS
10
108.267
20
-7.9375
11
108.267
21
-4.7625
0
LINE
8
BLACK
6
CONTINUOUS
10
87.9475
20
-7.9375
11
87.9475
21
-4.7625
0
LINE
8
BLACK
6
CONTINUOUS
10
67.6275
20
-7.9375
11
67.6275
21
-4.7625
0
LINE
8
BLACK
6
CONTINUOUS
10
47.3075
20
-4.7625
11
47.3075
21
-7.9375
0
LINE
8
BLACK
6
CONTINUOUS
10
26.9875
20
-7.9375
11
26.9875
21
-4.7625
0
LINE
8
BLACK
6
CONTINUOUS
10
7.9375
20
-36.83
11
4.7625
21
-36.83
0
LINE
8
BLACK
6
CONTINUOUS
10
7.9375
20
-57.15
11
4.7625
21
-57.15
0
LINE
8
BLACK
6
CONTINUOUS
10
7.9375
20
-77.47
11
4.7625
21
-77.47
0
LINE
8
BLACK
6
CONTINUOUS
10
7.9375
20
-97.79
11
4.7625
21
-97.79
0
LINE
8
BLACK
6
CONTINUOUS
10
7.9375
20
-118.11
11
4.7625
21
-118.11
0
LINE
8
BLACK
6
CONTINUOUS
10
7.9375
20
-138.43
11
4.7625
21
-138.43
0
LINE
8
BLACK
6
CONTINUOUS
10
350.837
20
-36.83
11
354.012
21
-36.83
0
LINE
8
BLACK
6
CONTINUOUS
10
354.012
20
-57.15
11
350.837
21
-57.15
0
LINE
8
BLACK
6
CONTINUOUS
10
350.837
20
-77.47
11
354.012
21
-77.47
0
LINE
8
BLACK
6
CONTINUOUS
10
354.012
20
-97.79
11
350.837
21
-97.79
0
LINE
8
BLACK
6
CONTINUOUS
10
350.837
20
-118.11
11
354.012
21
-118.11
0
LINE
8
BLACK
6
CONTINUOUS
10
350.837
20
-138.43
11
354.012
21
-138.43
0
LINE
8
BLACK
6
CONTINUOUS
10
354.012
20
-138.43
11
354.012
21
-118.11
0
LINE
8
BLACK
6
CONTINUOUS
10
331.787
20
-170.498
11
331.787
21
-167.322
0
LINE
8
BLACK
6
CONTINUOUS
10
311.467
20
-170.498
11
311.467
21
-167.322
0
LINE
8
BLACK
6
CONTINUOUS
10
291.147
20
-170.498
11
291.147
21
-167.322
0
LINE
8
BLACK
6
CONTINUOUS
10
270.827
20
-170.498
11
270.827
21
-167.322
0
LINE
8
BLACK
6
CONTINUOUS
10
230.188
20
-170.498
11
230.188
21
-167.322
0
LINE
8
BLACK
6
CONTINUOUS
10
250.507
20
-170.498
11
250.507
21
-167.322
0
LINE
8
BLACK
6
CONTINUOUS
10
189.547
20
-170.498
11
189.547
21
-167.322
0
LINE
8
BLACK
6
CONTINUOUS
10
209.867
20
-170.498
11
209.867
21
-167.322
0
LINE
8
BLACK
6
CONTINUOUS
10
169.227
20
-167.322
11
169.227
21
-170.498
0
LINE
8
BLACK
6
CONTINUOUS
10
148.907
20
-170.498
11
148.907
21
-167.322
0
LINE
8
BLACK
6
CONTINUOUS
10
128.588
20
-167.322
11
128.588
21
-170.498
0
LINE
8
BLACK
6
CONTINUOUS
10
108.267
20
-167.322
11
108.267
21
-170.498
0
LINE
8
BLACK
6
CONTINUOUS
10
87.9475
20
-170.498
11
87.9475
21
-167.322
0
LINE
8
BLACK
6
CONTINUOUS
10
67.6275
20
-170.498
11
67.6275
21
-167.322
0
LINE
8
BLACK
6
CONTINUOUS
10
26.9875
20
-170.498
11
26.9875
21
-167.322
0
LINE
8
BLACK
6
CONTINUOUS
10
47.3075
20
-170.498
11
47.3075
21
-167.322
0
CIRCLE
8
BLACK
10
281.94
20
-156.21
40
1.5875
0
CIRCLE
8
BLACK
10
43.18
20
-156.21
40
1.5875
0
CIRCLE
8
BLACK
10
43.18
20
-44.45
40
1.5875
0
CIRCLE
8
BLACK
10
177.8
20
-44.45
40
1.5875
0
CIRCLE
8
BLACK
10
303.53
20
-74.93
40
1.5875
0
CIRCLE
8
BLACK
10
332.74
20
-112.395
40
1.5875
0
CIRCLE
8
BLACK
10
332.422
20
-46.99
40
1.5875
0
CIRCLE
8
BLACK
10
332.422
20
-24.13
40
1.5875
0
CIRCLE
8
BLACK
10
254.317
20
-24.13
40
1.5875
0
CIRCLE
8
BLACK
10
254.317
20
-46.99
40
1.5875
0
CIRCLE
8
BLACK
10
177.8
20
-156.21
40
1.5875
0
LINE
8
BLACK
6
CONTINUOUS
10
4.7625
20
-138.43
11
4.7625
21
-118.11
0
LINE
8
BLACK
6
CONTINUOUS
10
7.9375
20
-118.11
11
7.9375
21
-138.43
0
LINE
8
BLACK
6
CONTINUOUS
10
4.7625
20
-97.79
11
4.7625
21
-77.47
0
LINE
8
BLACK
6
CONTINUOUS
10
7.9375
20
-77.47
11
7.9375
21
-97.79
0
LINE
8
BLACK
6
CONTINUOUS
10
4.7625
20
-57.15
11
4.7625
21
-36.83
0
LINE
8
BLACK
6
CONTINUOUS
10
7.9375
20
-36.83
11
7.9375
21
-57.15
0
LINE
8
BLACK
6
CONTINUOUS
10
47.3075
20
-7.9375
11
26.9875
21
-7.9375
0
LINE
8
BLACK
6
CONTINUOUS
10
26.9875
20
-4.7625
11
47.3075
21
-4.7625
0
LINE
8
BLACK
6
CONTINUOUS
10
169.227
20
-7.9375
11
148.907
21
-7.9375
0
LINE
8
BLACK
6
CONTINUOUS
10
148.907
20
-4.7625
11
169.227
21
-4.7625
0
LINE
8
BLACK
6
CONTINUOUS
10
87.9475
20
-7.9375
11
67.6275
21
-7.9375
0
LINE
8
BLACK
6
CONTINUOUS
10
67.6275
20
-4.7625
11
87.9475
21
-4.7625
0
LINE
8
BLACK
6
CONTINUOUS
10
128.588
20
-7.9375
11
108.267
21
-7.9375
0
LINE
8
BLACK
6
CONTINUOUS
10
108.267
20
-4.7625
11
128.588
21
-4.7625
0
LINE
8
BLACK
6
CONTINUOUS
10
209.867
20
-7.9375
11
189.547
21
-7.9375
0
LINE
8
BLACK
6
CONTINUOUS
10
189.547
20
-4.7625
11
209.867
21
-4.7625
0
LINE
8
BLACK
6
CONTINUOUS
10
250.507
20
-7.9375
11
230.188
21
-7.9375
0
LINE
8
BLACK
6
CONTINUOUS
10
230.188
20
-4.7625
11
250.507
21
-4.7625
0
LINE
8
BLACK
6
CONTINUOUS
10
291.147
20
-7.9375
11
270.827
21
-7.9375
0
LINE
8
BLACK
6
CONTINUOUS
10
270.827
20
-4.7625
11
291.147
21
-4.7625
0
LINE
8
BLACK
6
CONTINUOUS
10
331.787
20
-7.9375
11
311.467
21
-7.9375
0
LINE
8
BLACK
6
CONTINUOUS
10
311.467
20
-4.7625
11
331.787
21
-4.7625
0
LINE
8
BLACK
6
CONTINUOUS
10
350.837
20
-36.83
11
350.837
21
-57.15
0
LINE
8
BLACK
6
CONTINUOUS
10
354.012
20
-57.15
11
354.012
21
-36.83
0
LINE
8
BLACK
6
CONTINUOUS
10
350.837
20
-97.79
11
350.837
21
-77.47
0
LINE
8
BLACK
6
CONTINUOUS
10
354.012
20
-77.47
11
354.012
21
-97.79
0
LINE
8
BLACK
6
CONTINUOUS
10
350.837
20
-118.11
11
350.837
21
-138.43
0
LINE
8
BLACK
6
CONTINUOUS
10
331.787
20
-170.498
11
311.467
21
-170.498
0
LINE
8
BLACK
6
CONTINUOUS
10
311.467
20
-167.322
11
331.787
21
-167.322
0
LINE
8
BLACK
6
CONTINUOUS
10
291.147
20
-170.498
11
270.827
21
-170.498
0
LINE
8
BLACK
6
CONTINUOUS
10
270.827
20
-167.322
11
291.147
21
-167.322
0
LINE
8
BLACK
6
CONTINUOUS
10
250.507
20
-170.498
11
230.188
21
-170.498
0
LINE
8
BLACK
6
CONTINUOUS
10
230.188
20
-167.322
11
250.507
21
-167.322
0
LINE
8
BLACK
6
CONTINUOUS
10
209.867
20
-170.498
11
189.547
21
-170.498
0
LINE
8
BLACK
6
CONTINUOUS
10
189.547
20
-167.322
11
209.867
21
-167.322
0
LINE
8
BLACK
6
CONTINUOUS
10
169.227
20
-170.498
11
148.907
21
-170.498
0
LINE
8
BLACK
6
CONTINUOUS
10
148.907
20
-167.322
11
169.227
21
-167.322
0
LINE
8
BLACK
6
CONTINUOUS
10
128.588
20
-170.498
11
108.267
21
-170.498
0
LINE
8
BLACK
6
CONTINUOUS
10
108.267
20
-167.322
11
128.588
21
-167.322
0
LINE
8
BLACK
6
CONTINUOUS
10
87.9475
20
-170.498
11
67.6275
21
-170.498
0
LINE
8
BLACK
6
CONTINUOUS
10
67.6275
20
-167.322
11
87.9475
21
-167.322
0
LINE
8
BLACK
6
CONTINUOUS
10
47.3075
20
-170.498
11
26.9875
21
-170.498
0
LINE
8
BLACK
6
CONTINUOUS
10
26.9875
20
-167.322
11
47.3075
21
-167.322
0
ARC
8
BLACK
10
2.54
20
-172.72
40
2.54
50
180
51
270
0
ARC
8
BLACK
10
356.235
20
-172.72
40
2.54
50
-90
51
-0
0
ARC
8
BLACK
10
356.235
20
-2.54
40
2.54
50
-0
51
90
0
ARC
8
BLACK
10
2.54
20
-2.54
40
2.54
50
90
51
180
0
LINE
8
BLACK
6
CONTINUOUS
10
0
20
-172.72
11
0
21
-2.54
0
LINE
8
BLACK
6
CONTINUOUS
10
356.235
20
-175.26
11
2.54
21
-175.26
0
LINE
8
BLACK
6
CONTINUOUS
10
358.775
20
-2.54
11
358.775
21
-172.72
0
LINE
8
BLACK
6
CONTINUOUS
10
2.54
20
0
11
356.235
21
0
  0
ENDSEC
  0
EOF
