0
SECTION
2
HEADER
9
$INSUNITS
70
4
9
$ACADVER
1
AC1014
9
$HANDSEED
5
FFFF
0
ENDSEC
0
SECTION
2
TABLES
0
TABLE
2
VPORT
5
8
100
AcDbSymbolTable
0
ENDTAB
0
TABLE
2
LTYPE
5
5
100
AcDbSymbolTable
0
LTYPE
5
14
100
AcDbSymbolTableRecord
100
AcDbLinetypeTableRecord
2
BYBLOCK
70
0
0
LTYPE
5
15
100
AcDbSymbolTableRecord
100
AcDbLinetypeTableRecord
2
BYLAYER
70
0
0
LTYPE
5
16
100
AcDbSymbolTableRecord
100
AcDbLinetypeTableRecord
2
DASHED
70
0
3
Dashed __ __ __ __ __ __ __ __ __ __ __ __ __ _
72
65
73
2
40
0.75
49
0.5
74
0
49
-0.25
74
0
0
ENDTAB
0
TABLE
2
LAYER
5
2
100
AcDbSymbolTable
70
3
0
LAYER
5
50
100
AcDbSymbolTableRecord
100
AcDbLayerTableRecord
2
1
70
0
62
7
6
DASHED
0
LAYER
5
51
100
AcDbSymbolTableRecord
100
AcDbLayerTableRecord
2
0
70
0
62
7
6
CONTINUOUS
0
ENDTAB
0
TABLE
2
STYLE
5
3
100
AcDbSymbolTable
70
1
0
STYLE
5
11
100
AcDbSymbolTableRecord
100
AcDbTextStyleTableRecord
2
STANDARD
70
0
0
ENDTAB
0
TABLE
2
VIEW
5
6
100
AcDbSymbolTable
70
0
0
ENDTAB
0
TABLE
2
UCS
5
7
100
AcDbSymbolTable
70
0
0
ENDTAB
0
TABLE
2
APPID
5
9
100
AcDbSymbolTable
70
2
0
APPID
5
12
100
AcDbSymbolTableRecord
100
AcDbRegAppTableRecord
2
ACAD
70
0
0
ENDTAB
0
TABLE
2
DIMSTYLE
5
A
100
AcDbSymbolTable
70
1
0
ENDTAB
0
TABLE
2
BLOCK_RECORD
5
1
100
AcDbSymbolTable
70
1
0
BLOCK_RECORD
5
1F
100
AcDbSymbolTableRecord
100
AcDbBlockTableRecord
2
*MODEL_SPACE
0
BLOCK_RECORD
5
1B
100
AcDbSymbolTableRecord
100
AcDbBlockTableRecord
2
*PAPER_SPACE
0
ENDTAB
0
ENDSEC
0
SECTION
2
BLOCKS
0
BLOCK
5
20
100
AcDbEntity
100
AcDbBlockBegin
2
*MODEL_SPACE
0
ENDBLK
5
21
100
AcDbEntity
100
AcDbBlockEnd
0
BLOCK
5
1C
100
AcDbEntity
100
AcDbBlockBegin
2
*PAPER_SPACE
0
ENDBLK
5
1D
100
AcDbEntity
100
AcDbBlockEnd
0
ENDSEC
0
SECTION
2
ENTITIES
0
CIRCLE
5
100
100
AcDbEntity
8
0
100
AcDbCircle
10
34.607500000000002
20
-120.015
30
0
40
1.5874999999999999
210
0
220
0
230
1
0
CIRCLE
5
101
100
AcDbEntity
8
0
100
AcDbCircle
10
47.307499999999997
20
-120.015
30
0
40
3.8100000000000001
210
0
220
0
230
1
0
CIRCLE
5
102
100
AcDbEntity
8
0
100
AcDbCircle
10
34.607500000000002
20
-120.015
30
0
40
3.8100000000000001
210
0
220
0
230
1
0
CIRCLE
5
103
100
AcDbEntity
8
0
100
AcDbCircle
10
60.0075
20
-120.015
30
0
40
1.5874999999999999
210
0
220
0
230
1
0
CIRCLE
5
104
100
AcDbEntity
8
0
100
AcDbCircle
10
47.307499999999997
20
-120.015
30
0
40
1.5874999999999999
210
0
220
0
230
1
0
CIRCLE
5
105
100
AcDbEntity
8
0
100
AcDbCircle
10
60.0075
20
-120.015
30
0
40
3.8100000000000001
210
0
220
0
230
1
0
CIRCLE
5
106
100
AcDbEntity
8
0
100
AcDbCircle
10
171.44999999999999
20
28.956
30
0
40
3.6194999999999999
210
0
220
0
230
1
0
LWPOLYLINE
5
107
100
AcDbEntity
8
0
100
AcDbPolyline
90
68
70
1
43
0.0
10
358.77499999999998
20
-216.58199999999999
10
358.77499999999998
20
-180.34000000000003
10
331.78699999999998
20
-180.34000000000003
10
331.78699999999998
20
-177.16499999999999
10
311.46699999999998
20
-177.16499999999999
10
311.46699999999998
20
-180.34000000000003
10
291.14699999999999
20
-180.34000000000003
10
291.14699999999999
20
-177.16499999999999
10
270.827
20
-177.16499999999999
10
270.827
20
-180.34000000000003
10
250.50700000000003
20
-180.34000000000003
10
250.50700000000003
20
-177.16499999999999
10
230.18799999999999
20
-177.16499999999999
10
230.18799999999999
20
-180.34000000000003
10
209.86700000000002
20
-180.34000000000003
10
209.86700000000002
20
-177.16499999999999
10
189.547
20
-177.16499999999999
10
189.547
20
-180.34000000000003
10
169.22700000000003
20
-180.34000000000003
10
169.22700000000003
20
-177.16499999999999
10
148.90700000000004
20
-177.16499999999999
10
148.90700000000004
20
-180.34000000000003
10
128.58799999999999
20
-180.34000000000003
10
128.58799999999999
20
-177.16499999999999
10
108.26700000000002
20
-177.16499999999999
10
108.26700000000002
20
-180.34000000000003
10
87.947500000000005
20
-180.34000000000003
10
87.947500000000005
20
-177.16499999999999
10
67.627499999999998
20
-177.16499999999999
10
67.627499999999998
20
-180.34000000000003
10
47.307499999999997
20
-180.34000000000003
10
47.307499999999997
20
-177.16499999999999
10
26.987500000000004
20
-177.16499999999999
10
26.987500000000004
20
-180.34000000000003
10
0
20
-180.34000000000003
10
0
20
-216.58199999999999
10
26.987500000000004
20
-216.58199999999999
10
26.987500000000004
20
-219.75700000000003
10
47.307499999999997
20
-219.75700000000003
10
47.307499999999997
20
-216.58199999999999
10
67.627499999999998
20
-216.58199999999999
10
67.627499999999998
20
-219.75700000000003
10
87.947500000000005
20
-219.75700000000003
10
87.947500000000005
20
-216.58199999999999
10
108.26700000000002
20
-216.58199999999999
10
108.26700000000002
20
-219.75700000000003
10
128.58799999999999
20
-219.75700000000003
10
128.58799999999999
20
-216.58199999999999
10
148.90700000000004
20
-216.58199999999999
10
148.90700000000004
20
-219.75700000000003
10
169.22700000000003
20
-219.75700000000003
10
169.22700000000003
20
-216.58199999999999
10
189.547
20
-216.58199999999999
10
189.547
20
-219.75700000000003
10
209.86700000000002
20
-219.75700000000003
10
209.86700000000002
20
-216.58199999999999
10
230.18799999999999
20
-216.58199999999999
10
230.18799999999999
20
-219.75700000000003
10
250.50700000000003
20
-219.75700000000003
10
250.50700000000003
20
-216.58199999999999
10
270.827
20
-216.58199999999999
10
270.827
20
-219.75700000000003
10
291.14699999999999
20
-219.75700000000003
10
291.14699999999999
20
-216.58199999999999
10
311.46699999999998
20
-216.58199999999999
10
311.46699999999998
20
-219.75700000000003
10
331.78699999999998
20
-219.75700000000003
10
331.78699999999998
20
-216.58199999999999
0
LWPOLYLINE
5
108
100
AcDbEntity
8
0
100
AcDbPolyline
90
68
70
1
43
0.0
10
358.77499999999998
20
7.6200000000000001
10
358.77499999999998
20
43.861999999999995
10
331.78699999999998
20
43.861999999999995
10
331.78699999999998
20
47.037000000000006
10
311.46699999999998
20
47.037000000000006
10
311.46699999999998
20
43.861999999999995
10
291.14699999999999
20
43.861999999999995
10
291.14699999999999
20
47.037000000000006
10
270.827
20
47.037000000000006
10
270.827
20
43.861999999999995
10
250.50700000000003
20
43.861999999999995
10
250.50700000000003
20
47.037000000000006
10
230.18799999999999
20
47.037000000000006
10
230.18799999999999
20
43.861999999999995
10
209.86700000000002
20
43.861999999999995
10
209.86700000000002
20
47.037000000000006
10
189.547
20
47.037000000000006
10
189.547
20
43.861999999999995
10
169.22700000000003
20
43.861999999999995
10
169.22700000000003
20
47.037000000000006
10
148.90700000000004
20
47.037000000000006
10
148.90700000000004
20
43.861999999999995
10
128.58799999999999
20
43.861999999999995
10
128.58799999999999
20
47.037000000000006
10
108.26700000000002
20
47.037000000000006
10
108.26700000000002
20
43.861999999999995
10
87.947500000000005
20
43.861999999999995
10
87.947500000000005
20
47.037000000000006
10
67.627499999999998
20
47.037000000000006
10
67.627499999999998
20
43.861999999999995
10
47.307499999999997
20
43.861999999999995
10
47.307499999999997
20
47.037000000000006
10
26.987500000000004
20
47.037000000000006
10
26.987500000000004
20
43.861999999999995
10
0
20
43.861999999999995
10
0
20
7.6200000000000001
10
26.987500000000004
20
7.6200000000000001
10
26.987500000000004
20
4.4450000000000003
10
47.307499999999997
20
4.4450000000000003
10
47.307499999999997
20
7.6200000000000001
10
67.627499999999998
20
7.6200000000000001
10
67.627499999999998
20
4.4450000000000003
10
87.947500000000005
20
4.4450000000000003
10
87.947500000000005
20
7.6200000000000001
10
108.26700000000002
20
7.6200000000000001
10
108.26700000000002
20
4.4450000000000003
10
128.58799999999999
20
4.4450000000000003
10
128.58799999999999
20
7.6200000000000001
10
148.90700000000004
20
7.6200000000000001
10
148.90700000000004
20
4.4450000000000003
10
169.22700000000003
20
4.4450000000000003
10
169.22700000000003
20
7.6200000000000001
10
189.547
20
7.6200000000000001
10
189.547
20
4.4450000000000003
10
209.86700000000002
20
4.4450000000000003
10
209.86700000000002
20
7.6200000000000001
10
230.18799999999999
20
7.6200000000000001
10
230.18799999999999
20
4.4450000000000003
10
250.50700000000003
20
4.4450000000000003
10
250.50700000000003
20
7.6200000000000001
10
270.827
20
7.6200000000000001
10
270.827
20
4.4450000000000003
10
291.14699999999999
20
4.4450000000000003
10
291.14699999999999
20
7.6200000000000001
10
311.46699999999998
20
7.6200000000000001
10
311.46699999999998
20
4.4450000000000003
10
331.78699999999998
20
4.4450000000000003
10
331.78699999999998
20
7.6200000000000001
0
LWPOLYLINE
5
109
100
AcDbEntity
8
0
100
AcDbPolyline
90
28
70
1
43
0.0
10
79.057500000000005
20
-108.902
10
79.057500000000005
20
-72.660499999999999
10
108.26700000000002
20
-72.660499999999999
10
108.26700000000002
20
-69.485500000000002
10
128.58799999999999
20
-69.485500000000002
10
128.58799999999999
20
-72.660499999999999
10
148.90700000000004
20
-72.660499999999999
10
148.90700000000004
20
-69.485500000000002
10
169.22700000000003
20
-69.485500000000002
10
169.22700000000003
20
-72.660499999999999
10
189.547
20
-72.660499999999999
10
189.547
20
-69.485500000000002
10
209.86700000000002
20
-69.485500000000002
10
209.86700000000002
20
-72.660499999999999
10
238.76000000000002
20
-72.660499999999999
10
238.76000000000002
20
-108.902
10
209.86700000000002
20
-108.902
10
209.86700000000002
20
-112.07799999999999
10
189.547
20
-112.07799999999999
10
189.547
20
-108.902
10
169.22700000000003
20
-108.902
10
169.22700000000003
20
-112.07799999999999
10
148.90700000000004
20
-112.07799999999999
10
148.90700000000004
20
-108.902
10
128.58799999999999
20
-108.902
10
128.58799999999999
20
-112.07799999999999
10
108.26700000000002
20
-112.07799999999999
10
108.26700000000002
20
-108.902
0
LWPOLYLINE
5
110
100
AcDbEntity
8
0
100
AcDbPolyline
90
28
70
1
43
0.0
10
238.76000000000002
20
-118.38000000000001
10
238.76000000000002
20
-154.62299999999999
10
209.86700000000002
20
-154.62299999999999
10
209.86700000000002
20
-157.797
10
189.547
20
-157.797
10
189.547
20
-154.62299999999999
10
169.22700000000003
20
-154.62299999999999
10
169.22700000000003
20
-157.797
10
148.90700000000004
20
-157.797
10
148.90700000000004
20
-154.62299999999999
10
128.58799999999999
20
-154.62299999999999
10
128.58799999999999
20
-157.797
10
108.26700000000002
20
-157.797
10
108.26700000000002
20
-154.62299999999999
10
79.057500000000005
20
-154.62299999999999
10
79.057500000000005
20
-118.38099999999999
10
108.26700000000002
20
-118.38099999999999
10
108.26700000000002
20
-115.20600000000002
10
128.58799999999999
20
-115.20600000000002
10
128.58799999999999
20
-118.38000000000001
10
148.90700000000004
20
-118.38000000000001
10
148.90700000000004
20
-115.20600000000002
10
169.22700000000003
20
-115.20600000000002
10
169.22700000000003
20
-118.38000000000001
10
189.547
20
-118.38000000000001
10
189.547
20
-115.20600000000002
10
209.86700000000002
20
-115.20600000000002
10
209.86700000000002
20
-118.38000000000001
0
CIRCLE
5
111
100
AcDbEntity
8
0
100
AcDbCircle
10
60.0075
20
-107.315
30
0
40
3.8100000000000001
210
0
220
0
230
1
0
CIRCLE
5
112
100
AcDbEntity
8
0
100
AcDbCircle
10
47.307499999999997
20
-107.315
30
0
40
1.5874999999999999
210
0
220
0
230
1
0
CIRCLE
5
113
100
AcDbEntity
8
0
100
AcDbCircle
10
47.307499999999997
20
-107.315
30
0
40
3.8100000000000001
210
0
220
0
230
1
0
CIRCLE
5
114
100
AcDbEntity
8
0
100
AcDbCircle
10
34.607500000000002
20
-107.315
30
0
40
3.8100000000000001
210
0
220
0
230
1
0
CIRCLE
5
115
100
AcDbEntity
8
0
100
AcDbCircle
10
34.607500000000002
20
-107.315
30
0
40
1.5874999999999999
210
0
220
0
230
1
0
CIRCLE
5
116
100
AcDbEntity
8
0
100
AcDbCircle
10
60.0075
20
-107.315
30
0
40
1.5874999999999999
210
0
220
0
230
1
0
CIRCLE
5
117
100
AcDbEntity
8
0
100
AcDbCircle
10
60.0075
20
-94.614999999999995
30
0
40
3.8100000000000001
210
0
220
0
230
1
0
CIRCLE
5
118
100
AcDbEntity
8
0
100
AcDbCircle
10
47.307499999999997
20
-94.614999999999995
30
0
40
3.8100000000000001
210
0
220
0
230
1
0
CIRCLE
5
119
100
AcDbEntity
8
0
100
AcDbCircle
10
34.607500000000002
20
-94.614999999999995
30
0
40
3.8100000000000001
210
0
220
0
230
1
0
CIRCLE
5
120
100
AcDbEntity
8
0
100
AcDbCircle
10
34.607500000000002
20
-94.614999999999995
30
0
40
1.5874999999999999
210
0
220
0
230
1
0
CIRCLE
5
121
100
AcDbEntity
8
0
100
AcDbCircle
10
60.0075
20
-94.614999999999995
30
0
40
1.5874999999999999
210
0
220
0
230
1
0
CIRCLE
5
122
100
AcDbEntity
8
0
100
AcDbCircle
10
47.307499999999997
20
-94.614999999999995
30
0
40
1.5874999999999999
210
0
220
0
230
1
0
CIRCLE
5
123
100
AcDbEntity
8
0
100
AcDbCircle
10
47.307499999999997
20
-81.91500000000002
30
0
40
3.8100000000000001
210
0
220
0
230
1
0
CIRCLE
5
124
100
AcDbEntity
8
0
100
AcDbCircle
10
47.307499999999997
20
-81.91500000000002
30
0
40
1.5874999999999999
210
0
220
0
230
1
0
CIRCLE
5
125
100
AcDbEntity
8
0
100
AcDbCircle
10
60.0075
20
-81.91500000000002
30
0
40
3.8100000000000001
210
0
220
0
230
1
0
CIRCLE
5
126
100
AcDbEntity
8
0
100
AcDbCircle
10
60.0075
20
-81.91500000000002
30
0
40
1.5874999999999999
210
0
220
0
230
1
0
CIRCLE
5
127
100
AcDbEntity
8
0
100
AcDbCircle
10
34.607500000000002
20
-81.91500000000002
30
0
40
3.8100000000000001
210
0
220
0
230
1
0
CIRCLE
5
128
100
AcDbEntity
8
0
100
AcDbCircle
10
34.607500000000002
20
-81.91500000000002
30
0
40
1.5874999999999999
210
0
220
0
230
1
0
LWPOLYLINE
5
129
100
AcDbEntity
8
0
100
AcDbPolyline
90
8
70
1
43
0.0
10
93.599000000000018
20
-185.166
42
0.41421356237309503
10
91.694000000000017
20
-183.261
10
60.579000000000001
20
-183.261
42
0.41421356237309503
10
58.673999999999999
20
-185.166
10
58.673999999999999
20
-197.86599999999999
42
0.41421356237309503
10
60.579000000000001
20
-199.77100000000002
10
91.694000000000017
20
-199.77100000000002
42
0.41421356237309503
10
93.599000000000018
20
-197.86599999999999
0
LWPOLYLINE
5
130
100
AcDbEntity
8
0
100
AcDbPolyline
90
8
70
1
43
0.0
10
109.474
20
-197.86599999999999
42
0.41421356237309503
10
111.379
20
-199.77100000000002
10
142.49400000000003
20
-199.77100000000002
42
0.41421356237309503
10
144.399
20
-197.86599999999999
10
144.399
20
-185.166
42
0.41421356237309503
10
142.49400000000003
20
-183.261
10
111.379
20
-183.261
42
0.41421356237309503
10
109.474
20
-185.166
0
CIRCLE
5
131
100
AcDbEntity
8
0
100
AcDbCircle
10
76.200000000000017
20
19.113499999999998
30
0
40
6.0000000000000009
210
0
220
0
230
1
0
CIRCLE
5
132
100
AcDbEntity
8
0
100
AcDbCircle
10
127.00000000000001
20
19.113499999999998
30
0
40
6.0000000000000009
210
0
220
0
230
1
0
CIRCLE
5
133
100
AcDbEntity
8
0
100
AcDbCircle
10
101.59999999999999
20
18.795999999999999
30
0
40
7.0999999999999996
210
0
220
0
230
1
0
CIRCLE
5
134
100
AcDbEntity
8
0
100
AcDbCircle
10
25.399999999999999
20
18.795999999999999
30
0
40
5.5999999999999996
210
0
220
0
230
1
0
CIRCLE
5
135
100
AcDbEntity
8
0
100
AcDbCircle
10
50.799999999999997
20
22.605999999999998
30
0
40
10.16
210
0
220
0
230
1
0
CIRCLE
5
136
100
AcDbEntity
8
0
100
AcDbCircle
10
152.40000000000003
20
22.605999999999998
30
0
40
10.164999999999999
210
0
220
0
230
1
0
LWPOLYLINE
5
137
100
AcDbEntity
8
0
100
AcDbPolyline
90
8
70
1
43
0.0
10
225.42500000000004
20
10.540999999999999
10
180.97499999999999
20
10.541
42
-0.41421356237309503
10
179.06999999999999
20
12.446000000000002
10
179.06999999999999
20
28.003499999999999
42
-0.41421356237309503
10
180.97499999999999
20
29.9085
10
225.42500000000004
20
29.9085
42
-0.41421356237309503
10
227.33000000000004
20
28.003499999999999
10
227.33000000000004
20
12.446000000000002
42
-0.41421356237309503
0
LWPOLYLINE
5
138
100
AcDbEntity
8
0
100
AcDbPolyline
90
4
70
1
43
0.0
10
47.307499999999997
20
-7.9375000000000009
10
47.307499999999997
20
-4.7625000000000011
10
26.987500000000004
20
-4.7625000000000011
10
26.987500000000004
20
-7.9375000000000009
0
LWPOLYLINE
5
139
100
AcDbEntity
8
0
100
AcDbPolyline
90
4
70
1
43
0.0
10
67.627499999999998
20
-7.9375000000000009
10
67.627499999999998
20
-4.7625000000000011
10
87.947500000000005
20
-4.7625000000000011
10
87.947500000000005
20
-7.9375000000000009
0
LWPOLYLINE
5
140
100
AcDbEntity
8
0
100
AcDbPolyline
90
4
70
1
43
0.0
10
108.26700000000002
20
-7.9375000000000009
10
108.26700000000002
20
-4.7625000000000011
10
128.58799999999999
20
-4.7625000000000011
10
128.58799999999999
20
-7.9375000000000009
0
LWPOLYLINE
5
141
100
AcDbEntity
8
0
100
AcDbPolyline
90
4
70
1
43
0.0
10
148.90700000000004
20
-7.9375000000000009
10
148.90700000000004
20
-4.7625000000000011
10
169.22700000000003
20
-4.7625000000000011
10
169.22700000000003
20
-7.9375000000000009
0
LWPOLYLINE
5
142
100
AcDbEntity
8
0
100
AcDbPolyline
90
4
70
1
43
0.0
10
209.86700000000002
20
-7.9375000000000009
10
209.86700000000002
20
-4.7625000000000011
10
189.547
20
-4.7625000000000011
10
189.547
20
-7.9375000000000009
0
LWPOLYLINE
5
143
100
AcDbEntity
8
0
100
AcDbPolyline
90
4
70
1
43
0.0
10
250.50700000000003
20
-7.9375000000000009
10
250.50700000000003
20
-4.7625000000000011
10
230.18799999999999
20
-4.7625000000000011
10
230.18799999999999
20
-7.9375000000000009
0
LWPOLYLINE
5
144
100
AcDbEntity
8
0
100
AcDbPolyline
90
4
70
1
43
0.0
10
270.827
20
-7.9375000000000009
10
270.827
20
-4.7625000000000011
10
291.14699999999999
20
-4.7625000000000011
10
291.14699999999999
20
-7.9375000000000009
0
LWPOLYLINE
5
145
100
AcDbEntity
8
0
100
AcDbPolyline
90
4
70
1
43
0.0
10
311.46699999999998
20
-7.9375000000000009
10
311.46699999999998
20
-4.7625000000000011
10
331.78699999999998
20
-4.7625000000000011
10
331.78699999999998
20
-7.9375000000000009
0
LWPOLYLINE
5
146
100
AcDbEntity
8
0
100
AcDbPolyline
90
4
70
1
43
0.0
10
350.83699999999999
20
-36.829999999999998
10
354.01199999999994
20
-36.829999999999998
10
354.01199999999994
20
-57.149999999999999
10
350.83699999999999
20
-57.149999999999999
0
LWPOLYLINE
5
147
100
AcDbEntity
8
0
100
AcDbPolyline
90
4
70
1
43
0.0
10
350.83699999999999
20
-77.469999999999999
10
354.01199999999994
20
-77.469999999999999
10
354.01199999999994
20
-97.79000000000002
10
350.83699999999999
20
-97.79000000000002
0
LWPOLYLINE
5
148
100
AcDbEntity
8
0
100
AcDbPolyline
90
4
70
1
43
0.0
10
350.83699999999999
20
-118.11
10
354.01199999999994
20
-118.11
10
354.01199999999994
20
-138.43000000000001
10
350.83699999999999
20
-138.43000000000001
0
LWPOLYLINE
5
149
100
AcDbEntity
8
0
100
AcDbPolyline
90
4
70
1
43
0.0
10
331.78699999999998
20
-170.49800000000002
10
331.78699999999998
20
-167.32200000000003
10
311.46699999999998
20
-167.32200000000003
10
311.46699999999998
20
-170.49800000000002
0
LWPOLYLINE
5
150
100
AcDbEntity
8
0
100
AcDbPolyline
90
4
70
1
43
0.0
10
291.14699999999999
20
-170.49800000000002
10
291.14699999999999
20
-167.32200000000003
10
270.827
20
-167.32200000000003
10
270.827
20
-170.49800000000002
0
LWPOLYLINE
5
151
100
AcDbEntity
8
0
100
AcDbPolyline
90
4
70
1
43
0.0
10
250.50700000000003
20
-170.49800000000002
10
250.50700000000003
20
-167.32200000000003
10
230.18799999999999
20
-167.32200000000003
10
230.18799999999999
20
-170.49800000000002
0
LWPOLYLINE
5
152
100
AcDbEntity
8
0
100
AcDbPolyline
90
4
70
1
43
0.0
10
209.86700000000002
20
-170.49800000000002
10
209.86700000000002
20
-167.32200000000003
10
189.547
20
-167.32200000000003
10
189.547
20
-170.49800000000002
0
LWPOLYLINE
5
153
100
AcDbEntity
8
0
100
AcDbPolyline
90
4
70
1
43
0.0
10
169.22700000000003
20
-170.49800000000002
10
169.22700000000003
20
-167.32200000000003
10
148.90700000000004
20
-167.32200000000003
10
148.90700000000004
20
-170.49800000000002
0
LWPOLYLINE
5
154
100
AcDbEntity
8
0
100
AcDbPolyline
90
4
70
1
43
0.0
10
128.58799999999999
20
-167.32200000000003
10
128.58799999999999
20
-170.49800000000002
10
108.26700000000002
20
-170.49800000000002
10
108.26700000000002
20
-167.32200000000003
0
LWPOLYLINE
5
155
100
AcDbEntity
8
0
100
AcDbPolyline
90
4
70
1
43
0.0
10
87.947500000000005
20
-167.32200000000003
10
87.947500000000005
20
-170.49800000000002
10
67.627499999999998
20
-170.49800000000002
10
67.627499999999998
20
-167.32200000000003
0
LWPOLYLINE
5
156
100
AcDbEntity
8
0
100
AcDbPolyline
90
4
70
1
43
0.0
10
47.307499999999997
20
-170.49800000000002
10
47.307499999999997
20
-167.32200000000003
10
26.987500000000004
20
-167.32200000000003
10
26.987500000000004
20
-170.49800000000002
0
LWPOLYLINE
5
157
100
AcDbEntity
8
0
100
AcDbPolyline
90
4
70
1
43
0.0
10
4.7625000000000011
20
-138.43000000000001
10
7.9375000000000009
20
-138.43000000000001
10
7.9375000000000009
20
-118.11
10
4.7625000000000011
20
-118.11
0
LWPOLYLINE
5
158
100
AcDbEntity
8
0
100
AcDbPolyline
90
4
70
1
43
0.0
10
7.9375000000000009
20
-97.79000000000002
10
4.7625000000000011
20
-97.79000000000002
10
4.7625000000000011
20
-77.469999999999999
10
7.9375000000000009
20
-77.469999999999999
0
LWPOLYLINE
5
159
100
AcDbEntity
8
0
100
AcDbPolyline
90
4
70
1
43
0.0
10
4.7625000000000011
20
-57.149999999999999
10
7.9375000000000009
20
-57.149999999999999
10
7.9375000000000009
20
-36.829999999999998
10
4.7625000000000011
20
-36.829999999999998
0
LWPOLYLINE
5
160
100
AcDbEntity
8
0
100
AcDbPolyline
90
8
70
1
43
0.0
10
356.23500000000001
20
-175.25999999999999
10
2.5399999999999783
20
-175.26000000000005
42
-0.41421356237309248
10
0
20
-172.72000000000003
10
0
20
-2.5400000000000138
42
-0.41421356237309659
10
2.54
20
0
10
356.23500000000001
20
-2.2204460492503131e-14
42
-0.41421356237309503
10
358.77499999999998
20
-2.54
10
358.77499999999998
20
-172.72000000000003
42
-0.41421356237309503
0
LWPOLYLINE
5
161
100
AcDbEntity
8
0
100
AcDbPolyline
90
4
70
1
43
0.0
10
307.97500000000002
20
-66.675000000000011
10
307.97500000000002
20
-104.77500000000001
10
346.07500000000005
20
-104.77500000000001
10
346.07500000000005
20
-66.675000000000011
0
LWPOLYLINE
5
162
100
AcDbEntity
8
0
100
AcDbPolyline
90
18
70
1
43
0.0
10
274.63700000000006
20
-161.92500000000001
10
60.324999999999989
20
-161.92500000000001
10
60.325000000000003
20
-142.875
10
36.512500000000003
20
-142.875
10
36.512500000000003
20
-161.92500000000001
10
12.699999999999999
20
-161.92500000000001
10
12.699999999999999
20
-66.675000000000011
10
298.44999999999999
20
-66.675000000000011
10
298.44999999999999
20
-142.875
10
307.97500000000002
20
-142.875
10
307.97500000000002
20
-123.825
10
327.02499999999998
20
-123.825
10
327.02499999999998
20
-142.875
10
346.07500000000005
20
-142.875
10
346.07500000000005
20
-161.92500000000001
10
288.92500000000001
20
-161.92500000000001
10
288.92500000000001
20
-142.875
10
274.63700000000006
20
-142.875
0
CIRCLE
5
163
100
AcDbEntity
8
0
100
AcDbCircle
10
332.74000000000001
20
-112.395
30
0
40
1.5874999999999999
210
0
220
0
230
1
0
CIRCLE
5
164
100
AcDbEntity
8
0
100
AcDbCircle
10
281.94000000000005
20
-156.21000000000004
30
0
40
1.5874999999999999
210
0
220
0
230
1
0
CIRCLE
5
165
100
AcDbEntity
8
0
100
AcDbCircle
10
43.180000000000007
20
-156.21000000000004
30
0
40
1.5874999999999999
210
0
220
0
230
1
0
CIRCLE
5
166
100
AcDbEntity
8
0
100
AcDbCircle
10
303.52999999999997
20
-74.930000000000007
30
0
40
1.5874999999999999
210
0
220
0
230
1
0
CIRCLE
5
167
100
AcDbEntity
8
0
100
AcDbCircle
10
177.80000000000001
20
-44.450000000000003
30
0
40
1.5874999999999999
210
0
220
0
230
1
0
CIRCLE
5
168
100
AcDbEntity
8
0
100
AcDbCircle
10
43.180000000000007
20
-44.450000000000003
30
0
40
1.5874999999999999
210
0
220
0
230
1
0
LWPOLYLINE
5
169
100
AcDbEntity
8
0
100
AcDbPolyline
90
4
70
1
43
0.0
10
232.41
20
-55.88000000000001
10
232.41
20
-38.100000000000009
10
344.17000000000002
20
-38.100000000000009
10
344.17000000000002
20
-55.88000000000001
0
LWPOLYLINE
5
170
100
AcDbEntity
8
0
100
AcDbPolyline
90
4
70
1
43
0.0
10
232.41
20
-33.020000000000003
10
232.41
20
-15.24
10
344.17000000000002
20
-15.24
10
344.17000000000002
20
-33.020000000000003
0
LWPOLYLINE
5
171
100
AcDbEntity
8
0
100
AcDbPolyline
90
4
70
1
43
0.0
10
12.699999999999999
20
-57.149999999999999
10
31.750000000000004
20
-57.149999999999999
10
31.750000000000004
20
-38.100000000000009
10
12.699999999999999
20
-38.100000000000009
0
LWPOLYLINE
5
172
100
AcDbEntity
8
0
100
AcDbPolyline
90
4
70
1
43
0.0
10
50.799999999999997
20
-57.149999999999999
10
50.799999999999997
20
-38.100000000000009
10
146.05000000000001
20
-38.100000000000009
10
146.05000000000001
20
-57.149999999999999
0
ENDSEC
0
SECTION
2
OBJECTS
0
DICTIONARY
5
C
100
AcDbDictionary
3
ACAD_GROUP
350
D
3
ACAD_MLINESTYLE
350
17
0
DICTIONARY
5
D
100
AcDbDictionary
0
DICTIONARY
5
1A
330
C
100
AcDbDictionary
0
DICTIONARY
5
17
100
AcDbDictionary
0
ENDSEC
0
EOF
