  0
SECTION
  2
HEADER
  9
$ANGBASE
  50
0.0
  9
$ANGDIR
  70
  1
  9
$MEASUREMENT
  70
0
  0
ENDSEC
  0
SECTION
  2
TABLES
  0
TABLE
  2
LTYPE
  70
4
  0
LTYPE
  5
40F
  2
CONTINUOUS
  70
0
  3
Solid line
  72
65
  73
0
  40
0.0
  0
LTYPE
  5
410
  2
DASHDOT
 70
0
  3
Dash Dot ____ _ ____ _
 72
65
 73
4
 40
2.0
 49
1.25
 49
-0.25
 49
0.25
 49
-0.25
  0
LTYPE
  5
411
  2
DASHED
 70
0
  3
Dashed __ __ __ __ __
 72
65
 73
2
 40
0.75
 49
0.5
 49
-0.25
  0
LTYPE
  5
43B
  2
DOTTED
 70
0
  3
Dotted .  .  .  .
 72
65
 73
2
 40
0.2
 49
0.0
 49
-0.2
  0
ENDTAB
  0
TABLE
  2
STYLE
  70
4
  0
STYLE
  2
KICAD
  70
0
  40
0
  41
1
  42
1
  50
0
  71
0
  3
isocp.shx
  0
STYLE
  2
KICADB
  70
0
  40
0
  41
1
  42
1
  50
0
  71
0
  3
isocp.shx
  0
STYLE
  2
KICADI
  70
0
  40
0
  41
1
  42
1
  50
15
  71
0
  3
isocp.shx
  0
STYLE
  2
KICADBI
  70
0
  40
0
  41
1
  42
1
  50
15
  71
0
  3
isocp.shx
  0
ENDTAB
  0
TABLE
  2
LAYER
  70
30
  0
LAYER
  2
BLACK
  70
0
  62
7
  6
CONTINUOUS
  0
LAYER
  2
GRAY1
  70
0
  62
251
  6
CONTINUOUS
  0
LAYER
  2
GRAY2
  70
0
  62
8
  6
CONTINUOUS
  0
LAYER
  2
GRAY3
  70
0
  62
9
  6
CONTINUOUS
  0
LAYER
  2
WHITE
  70
0
  62
7
  6
CONTINUOUS
  0
LAYER
  2
LYELLOW
  70
0
  62
51
  6
CONTINUOUS
  0
LAYER
  2
BLUE1
  70
0
  62
178
  6
CONTINUOUS
  0
LAYER
  2
GREEN1
  70
0
  62
98
  6
CONTINUOUS
  0
LAYER
  2
CYAN1
  70
0
  62
138
  6
CONTINUOUS
  0
LAYER
  2
RED1
  70
0
  62
18
  6
CONTINUOUS
  0
LAYER
  2
MAGENTA1
  70
0
  62
228
  6
CONTINUOUS
  0
LAYER
  2
BROWN1
  70
0
  62
58
  6
CONTINUOUS
  0
LAYER
  2
BLUE2
  70
0
  62
5
  6
CONTINUOUS
  0
LAYER
  2
GREEN2
  70
0
  62
3
  6
CONTINUOUS
  0
LAYER
  2
CYAN2
  70
0
  62
4
  6
CONTINUOUS
  0
LAYER
  2
RED2
  70
0
  62
1
  6
CONTINUOUS
  0
LAYER
  2
MAGENTA2
  70
0
  62
6
  6
CONTINUOUS
  0
LAYER
  2
BROWN2
  70
0
  62
54
  6
CONTINUOUS
  0
LAYER
  2
BLUE3
  70
0
  62
171
  6
CONTINUOUS
  0
LAYER
  2
GREEN3
  70
0
  62
91
  6
CONTINUOUS
  0
LAYER
  2
CYAN3
  70
0
  62
131
  6
CONTINUOUS
  0
LAYER
  2
RED3
  70
0
  62
11
  6
CONTINUOUS
  0
LAYER
  2
MAGENTA3
  70
0
  62
221
  6
CONTINUOUS
  0
LAYER
  2
YELLOW3
  70
0
  62
2
  6
CONTINUOUS
  0
LAYER
  2
BLUE4
  70
0
  62
5
  6
CONTINUOUS
  0
LAYER
  2
GREEN4
  70
0
  62
3
  6
CONTINUOUS
  0
LAYER
  2
CYAN4
  70
0
  62
4
  6
CONTINUOUS
  0
LAYER
  2
RED4
  70
0
  62
1
  6
CONTINUOUS
  0
LAYER
  2
MAGENTA4
  70
0
  62
6
  6
CONTINUOUS
  0
LAYER
  2
YELLOW4
  70
0
  62
2
  6
CONTINUOUS
  0
ENDTAB
  0
ENDSEC
  0
SECTION
  2
ENTITIES
0
CIRCLE
8
BLACK
10
34.6075
20
-120.015
40
1.5875
0
CIRCLE
8
BLACK
10
47.3075
20
-120.015
40
3.81
0
CIRCLE
8
BLACK
10
34.6075
20
-120.015
40
3.81
0
CIRCLE
8
BLACK
10
60.0075
20
-120.015
40
1.5875
0
CIRCLE
8
BLACK
10
47.3075
20
-120.015
40
1.5875
0
CIRCLE
8
BLACK
10
60.0075
20
-120.015
40
3.81
0
CIRCLE
8
BLACK
10
171.45
20
28.956
40
3.6195
0
LINE
8
BLACK
6
CONTINUOUS
10
358.775
20
-211.582
11
358.775
21
-180.34
0
LINE
8
BLACK
6
CONTINUOUS
10
0
20
-211.582
11
0
21
-180.34
0
LINE
8
BLACK
6
CONTINUOUS
10
358.775
20
7.62
11
358.775
21
38.862
0
LINE
8
BLACK
6
CONTINUOUS
10
0
20
7.62
11
0
21
38.862
0
LINE
8
BLACK
6
CONTINUOUS
10
79.0575
20
-108.902
11
79.0575
21
-77.6605
0
LINE
8
BLACK
6
CONTINUOUS
10
238.76
20
-108.902
11
238.76
21
-77.6605
0
LINE
8
BLACK
6
CONTINUOUS
10
238.76
20
-123.38
11
238.76
21
-154.623
0
LINE
8
BLACK
6
CONTINUOUS
10
79.0575
20
-154.623
11
79.0575
21
-123.38
0
LINE
8
BLACK
6
CONTINUOUS
10
291.147
20
-214.757
11
270.827
21
-214.757
0
LINE
8
BLACK
6
CONTINUOUS
10
270.827
20
-214.757
11
270.827
21
-211.582
0
LINE
8
BLACK
6
CONTINUOUS
10
26.9875
20
-214.757
11
47.3075
21
-214.757
0
LINE
8
BLACK
6
CONTINUOUS
10
148.907
20
-214.757
11
148.907
21
-211.582
0
LINE
8
BLACK
6
CONTINUOUS
10
311.467
20
-214.757
11
311.467
21
-211.582
0
LINE
8
BLACK
6
CONTINUOUS
10
331.787
20
-214.757
11
311.467
21
-214.757
0
LINE
8
BLACK
6
CONTINUOUS
10
128.588
20
-211.582
11
128.588
21
-214.757
0
LINE
8
BLACK
6
CONTINUOUS
10
189.547
20
-211.582
11
169.227
21
-211.582
0
LINE
8
BLACK
6
CONTINUOUS
10
250.507
20
-214.757
11
230.188
21
-214.757
0
LINE
8
BLACK
6
CONTINUOUS
10
26.9875
20
-211.582
11
0
21
-211.582
0
LINE
8
BLACK
6
CONTINUOUS
10
108.267
20
-214.757
11
128.588
21
-214.757
0
LINE
8
BLACK
6
CONTINUOUS
10
250.507
20
-211.582
11
270.827
21
-211.582
0
LINE
8
BLACK
6
CONTINUOUS
10
148.907
20
-214.757
11
169.227
21
-214.757
0
LINE
8
BLACK
6
CONTINUOUS
10
26.9875
20
-214.757
11
26.9875
21
-211.582
0
LINE
8
BLACK
6
CONTINUOUS
10
47.3075
20
-214.757
11
47.3075
21
-211.582
0
LINE
8
BLACK
6
CONTINUOUS
10
358.775
20
-211.582
11
331.787
21
-211.582
0
LINE
8
BLACK
6
CONTINUOUS
10
108.267
20
-214.757
11
108.267
21
-211.582
0
LINE
8
BLACK
6
CONTINUOUS
10
291.147
20
-214.757
11
291.147
21
-211.582
0
LINE
8
BLACK
6
CONTINUOUS
10
291.147
20
-211.582
11
311.467
21
-211.582
0
LINE
8
BLACK
6
CONTINUOUS
10
209.867
20
-214.757
11
209.867
21
-211.582
0
LINE
8
BLACK
6
CONTINUOUS
10
230.188
20
-214.757
11
230.188
21
-211.582
0
LINE
8
BLACK
6
CONTINUOUS
10
250.507
20
-214.757
11
250.507
21
-211.582
0
LINE
8
BLACK
6
CONTINUOUS
10
108.267
20
-211.582
11
87.9475
21
-211.582
0
LINE
8
BLACK
6
CONTINUOUS
10
67.6275
20
-214.757
11
67.6275
21
-211.582
0
LINE
8
BLACK
6
CONTINUOUS
10
331.787
20
-214.757
11
331.787
21
-211.582
0
LINE
8
BLACK
6
CONTINUOUS
10
209.867
20
-211.582
11
230.188
21
-211.582
0
LINE
8
BLACK
6
CONTINUOUS
10
148.907
20
-211.582
11
128.588
21
-211.582
0
LINE
8
BLACK
6
CONTINUOUS
10
67.6275
20
-214.757
11
87.9475
21
-214.757
0
LINE
8
BLACK
6
CONTINUOUS
10
67.6275
20
-211.582
11
47.3075
21
-211.582
0
LINE
8
BLACK
6
CONTINUOUS
10
87.9475
20
-211.582
11
87.9475
21
-214.757
0
LINE
8
BLACK
6
CONTINUOUS
10
189.547
20
-214.757
11
209.867
21
-214.757
0
LINE
8
BLACK
6
CONTINUOUS
10
169.227
20
-214.757
11
169.227
21
-211.582
0
LINE
8
BLACK
6
CONTINUOUS
10
189.547
20
-211.582
11
189.547
21
-214.757
0
CIRCLE
8
BLACK
10
60.0075
20
-107.315
40
3.81
0
CIRCLE
8
BLACK
10
47.3075
20
-107.315
40
1.5875
0
CIRCLE
8
BLACK
10
47.3075
20
-107.315
40
3.81
0
CIRCLE
8
BLACK
10
34.6075
20
-107.315
40
3.81
0
CIRCLE
8
BLACK
10
34.6075
20
-107.315
40
1.5875
0
CIRCLE
8
BLACK
10
60.0075
20
-107.315
40
1.5875
0
CIRCLE
8
BLACK
10
60.0075
20
-94.615
40
3.81
0
CIRCLE
8
BLACK
10
47.3075
20
-94.615
40
3.81
0
CIRCLE
8
BLACK
10
34.6075
20
-94.615
40
3.81
0
CIRCLE
8
BLACK
10
34.6075
20
-94.615
40
1.5875
0
CIRCLE
8
BLACK
10
60.0075
20
-94.615
40
1.5875
0
CIRCLE
8
BLACK
10
47.3075
20
-94.615
40
1.5875
0
CIRCLE
8
BLACK
10
47.3075
20
-81.915
40
3.81
0
CIRCLE
8
BLACK
10
47.3075
20
-81.915
40
1.5875
0
CIRCLE
8
BLACK
10
60.0075
20
-81.915
40
3.81
0
CIRCLE
8
BLACK
10
60.0075
20
-81.915
40
1.5875
0
CIRCLE
8
BLACK
10
34.6075
20
-81.915
40
3.81
0
CIRCLE
8
BLACK
10
34.6075
20
-81.915
40
1.5875
0
ARC
8
BLACK
10
91.694
20
-185.166
40
1.905
50
-0
51
90
0
ARC
8
BLACK
10
111.379
20
-197.866
40
1.905
50
180
51
270
0
LINE
8
BLACK
6
CONTINUOUS
10
91.694
20
-199.771
11
60.579
21
-199.771
0
ARC
8
BLACK
10
142.494
20
-185.166
40
1.905
50
-0
51
90
0
ARC
8
BLACK
10
91.694
20
-197.866
40
1.905
50
-90
51
-0
0
ARC
8
BLACK
10
60.579
20
-197.866
40
1.905
50
180
51
270
0
ARC
8
BLACK
10
142.494
20
-197.866
40
1.905
50
-90
51
-0
0
ARC
8
BLACK
10
60.579
20
-185.166
40
1.905
50
90
51
180
0
LINE
8
BLACK
6
CONTINUOUS
10
144.399
20
-185.166
11
144.399
21
-197.866
0
LINE
8
BLACK
6
CONTINUOUS
10
93.599
20
-185.166
11
93.599
21
-197.866
0
ARC
8
BLACK
10
111.379
20
-185.166
40
1.905
50
90
51
180
0
LINE
8
BLACK
6
CONTINUOUS
10
142.494
20
-199.771
11
111.379
21
-199.771
0
LINE
8
BLACK
6
CONTINUOUS
10
111.379
20
-183.261
11
142.494
21
-183.261
0
LINE
8
BLACK
6
CONTINUOUS
10
60.579
20
-183.261
11
91.694
21
-183.261
0
LINE
8
BLACK
6
CONTINUOUS
10
58.674
20
-197.866
11
58.674
21
-185.166
0
LINE
8
BLACK
6
CONTINUOUS
10
109.474
20
-197.866
11
109.474
21
-185.166
0
CIRCLE
8
BLACK
10
76.2
20
19.1135
40
6
0
CIRCLE
8
BLACK
10
127
20
19.1135
40
6
0
CIRCLE
8
BLACK
10
101.6
20
18.796
40
7.1
0
CIRCLE
8
BLACK
10
25.4
20
18.796
40
5.6
0
CIRCLE
8
BLACK
10
50.8
20
22.606
40
10.16
0
CIRCLE
8
BLACK
10
152.4
20
22.606
40
10.165
0
LINE
8
BLACK
6
CONTINUOUS
10
225.425
20
10.541
11
180.975
21
10.541
0
LINE
8
BLACK
6
CONTINUOUS
10
227.33
20
28.0035
11
227.33
21
12.446
0
LINE
8
BLACK
6
CONTINUOUS
10
180.975
20
29.9085
11
225.425
21
29.9085
0
LINE
8
BLACK
6
CONTINUOUS
10
179.07
20
12.446
11
179.07
21
28.0035
0
ARC
8
BLACK
10
180.975
20
28.0035
40
1.905
50
90
51
180
0
ARC
8
BLACK
10
225.425
20
28.0035
40
1.905
50
-0
51
90
0
ARC
8
BLACK
10
225.425
20
12.446
40
1.905
50
-90
51
-0
0
ARC
8
BLACK
10
180.975
20
12.446
40
1.905
50
180
51
270
0
LINE
8
BLACK
6
CONTINUOUS
10
0
20
38.862
11
26.9875
21
38.862
0
LINE
8
BLACK
6
CONTINUOUS
10
189.547
20
4.445
11
209.867
21
4.445
0
LINE
8
BLACK
6
CONTINUOUS
10
331.787
20
38.862
11
358.775
21
38.862
0
LINE
8
BLACK
6
CONTINUOUS
10
358.775
20
7.62
11
331.787
21
7.62
0
LINE
8
BLACK
6
CONTINUOUS
10
26.9875
20
7.62
11
0
21
7.62
0
LINE
8
BLACK
6
CONTINUOUS
10
189.547
20
7.62
11
189.547
21
4.445
0
LINE
8
BLACK
6
CONTINUOUS
10
189.547
20
42.037
11
189.547
21
38.862
0
LINE
8
BLACK
6
CONTINUOUS
10
169.227
20
38.862
11
189.547
21
38.862
0
LINE
8
BLACK
6
CONTINUOUS
10
47.3075
20
42.037
11
26.9875
21
42.037
0
LINE
8
BLACK
6
CONTINUOUS
10
169.227
20
42.037
11
148.907
21
42.037
0
LINE
8
BLACK
6
CONTINUOUS
10
67.6275
20
38.862
11
67.6275
21
42.037
0
LINE
8
BLACK
6
CONTINUOUS
10
47.3075
20
38.862
11
47.3075
21
42.037
0
LINE
8
BLACK
6
CONTINUOUS
10
169.227
20
4.445
11
169.227
21
7.62
0
LINE
8
BLACK
6
CONTINUOUS
10
291.147
20
4.445
11
291.147
21
7.62
0
LINE
8
BLACK
6
CONTINUOUS
10
169.227
20
38.862
11
169.227
21
42.037
0
LINE
8
BLACK
6
CONTINUOUS
10
128.588
20
38.862
11
148.907
21
38.862
0
LINE
8
BLACK
6
CONTINUOUS
10
291.147
20
38.862
11
291.147
21
42.037
0
LINE
8
BLACK
6
CONTINUOUS
10
230.188
20
42.037
11
250.507
21
42.037
0
LINE
8
BLACK
6
CONTINUOUS
10
331.787
20
4.445
11
331.787
21
7.62
0
LINE
8
BLACK
6
CONTINUOUS
10
128.588
20
42.037
11
108.267
21
42.037
0
LINE
8
BLACK
6
CONTINUOUS
10
148.907
20
7.62
11
128.588
21
7.62
0
LINE
8
BLACK
6
CONTINUOUS
10
128.588
20
42.037
11
128.588
21
38.862
0
LINE
8
BLACK
6
CONTINUOUS
10
148.907
20
4.445
11
169.227
21
4.445
0
LINE
8
BLACK
6
CONTINUOUS
10
67.6275
20
7.62
11
47.3075
21
7.62
0
LINE
8
BLACK
6
CONTINUOUS
10
230.188
20
4.445
11
230.188
21
7.62
0
LINE
8
BLACK
6
CONTINUOUS
10
87.9475
20
7.62
11
87.9475
21
4.445
0
LINE
8
BLACK
6
CONTINUOUS
10
108.267
20
38.862
11
108.267
21
42.037
0
LINE
8
BLACK
6
CONTINUOUS
10
209.867
20
42.037
11
189.547
21
42.037
0
LINE
8
BLACK
6
CONTINUOUS
10
250.507
20
7.62
11
270.827
21
7.62
0
LINE
8
BLACK
6
CONTINUOUS
10
291.147
20
7.62
11
311.467
21
7.62
0
LINE
8
BLACK
6
CONTINUOUS
10
87.9475
20
38.862
11
108.267
21
38.862
0
LINE
8
BLACK
6
CONTINUOUS
10
87.9475
20
42.037
11
67.6275
21
42.037
0
LINE
8
BLACK
6
CONTINUOUS
10
311.467
20
38.862
11
311.467
21
42.037
0
LINE
8
BLACK
6
CONTINUOUS
10
230.188
20
38.862
11
209.867
21
38.862
0
LINE
8
BLACK
6
CONTINUOUS
10
250.507
20
38.862
11
250.507
21
42.037
0
LINE
8
BLACK
6
CONTINUOUS
10
47.3075
20
38.862
11
67.6275
21
38.862
0
LINE
8
BLACK
6
CONTINUOUS
10
209.867
20
7.62
11
230.188
21
7.62
0
LINE
8
BLACK
6
CONTINUOUS
10
189.547
20
7.62
11
169.227
21
7.62
0
LINE
8
BLACK
6
CONTINUOUS
10
270.827
20
38.862
11
270.827
21
42.037
0
LINE
8
BLACK
6
CONTINUOUS
10
67.6275
20
4.445
11
67.6275
21
7.62
0
LINE
8
BLACK
6
CONTINUOUS
10
47.3075
20
4.445
11
47.3075
21
7.62
0
LINE
8
BLACK
6
CONTINUOUS
10
331.787
20
4.445
11
311.467
21
4.445
0
LINE
8
BLACK
6
CONTINUOUS
10
230.188
20
38.862
11
230.188
21
42.037
0
LINE
8
BLACK
6
CONTINUOUS
10
108.267
20
7.62
11
87.9475
21
7.62
0
LINE
8
BLACK
6
CONTINUOUS
10
128.588
20
7.62
11
128.588
21
4.445
0
LINE
8
BLACK
6
CONTINUOUS
10
148.907
20
38.862
11
148.907
21
42.037
0
LINE
8
BLACK
6
CONTINUOUS
10
108.267
20
4.445
11
108.267
21
7.62
0
LINE
8
BLACK
6
CONTINUOUS
10
108.267
20
4.445
11
128.588
21
4.445
0
LINE
8
BLACK
6
CONTINUOUS
10
250.507
20
4.445
11
230.188
21
4.445
0
LINE
8
BLACK
6
CONTINUOUS
10
250.507
20
4.445
11
250.507
21
7.62
0
LINE
8
BLACK
6
CONTINUOUS
10
67.6275
20
4.445
11
87.9475
21
4.445
0
LINE
8
BLACK
6
CONTINUOUS
10
26.9875
20
38.862
11
26.9875
21
42.037
0
LINE
8
BLACK
6
CONTINUOUS
10
209.867
20
4.445
11
209.867
21
7.62
0
LINE
8
BLACK
6
CONTINUOUS
10
209.867
20
38.862
11
209.867
21
42.037
0
LINE
8
BLACK
6
CONTINUOUS
10
26.9875
20
4.445
11
26.9875
21
7.62
0
LINE
8
BLACK
6
CONTINUOUS
10
270.827
20
4.445
11
270.827
21
7.62
0
LINE
8
BLACK
6
CONTINUOUS
10
311.467
20
4.445
11
311.467
21
7.62
0
LINE
8
BLACK
6
CONTINUOUS
10
26.9875
20
4.445
11
47.3075
21
4.445
0
LINE
8
BLACK
6
CONTINUOUS
10
148.907
20
4.445
11
148.907
21
7.62
0
LINE
8
BLACK
6
CONTINUOUS
10
291.147
20
4.445
11
270.827
21
4.445
0
LINE
8
BLACK
6
CONTINUOUS
10
331.787
20
38.862
11
331.787
21
42.037
0
LINE
8
BLACK
6
CONTINUOUS
10
87.9475
20
42.037
11
87.9475
21
38.862
0
LINE
8
BLACK
6
CONTINUOUS
10
270.827
20
42.037
11
291.147
21
42.037
0
LINE
8
BLACK
6
CONTINUOUS
10
311.467
20
42.037
11
331.787
21
42.037
0
LINE
8
BLACK
6
CONTINUOUS
10
311.467
20
38.862
11
291.147
21
38.862
0
LINE
8
BLACK
6
CONTINUOUS
10
270.827
20
38.862
11
250.507
21
38.862
0
LINE
8
BLACK
6
CONTINUOUS
10
331.787
20
-180.34
11
358.775
21
-180.34
0
LINE
8
BLACK
6
CONTINUOUS
10
0
20
-180.34
11
26.9875
21
-180.34
0
LINE
8
BLACK
6
CONTINUOUS
10
291.147
20
-180.34
11
291.147
21
-177.165
0
LINE
8
BLACK
6
CONTINUOUS
10
311.467
20
-180.34
11
311.467
21
-177.165
0
LINE
8
BLACK
6
CONTINUOUS
10
148.907
20
-180.34
11
148.907
21
-177.165
0
LINE
8
BLACK
6
CONTINUOUS
10
331.787
20
-180.34
11
331.787
21
-177.165
0
LINE
8
BLACK
6
CONTINUOUS
10
270.827
20
-180.34
11
270.827
21
-177.165
0
LINE
8
BLACK
6
CONTINUOUS
10
128.588
20
-177.165
11
128.588
21
-180.34
0
LINE
8
BLACK
6
CONTINUOUS
10
189.547
20
-177.165
11
189.547
21
-180.34
0
LINE
8
BLACK
6
CONTINUOUS
10
230.188
20
-180.34
11
230.188
21
-177.165
0
LINE
8
BLACK
6
CONTINUOUS
10
169.227
20
-180.34
11
169.227
21
-177.165
0
LINE
8
BLACK
6
CONTINUOUS
10
250.507
20
-180.34
11
250.507
21
-177.165
0
LINE
8
BLACK
6
CONTINUOUS
10
209.867
20
-180.34
11
209.867
21
-177.165
0
LINE
8
BLACK
6
CONTINUOUS
10
87.9475
20
-177.165
11
87.9475
21
-180.34
0
LINE
8
BLACK
6
CONTINUOUS
10
67.6275
20
-180.34
11
67.6275
21
-177.165
0
LINE
8
BLACK
6
CONTINUOUS
10
108.267
20
-180.34
11
108.267
21
-177.165
0
LINE
8
BLACK
6
CONTINUOUS
10
26.9875
20
-180.34
11
26.9875
21
-177.165
0
LINE
8
BLACK
6
CONTINUOUS
10
47.3075
20
-180.34
11
47.3075
21
-177.165
0
LINE
8
BLACK
6
CONTINUOUS
10
87.9475
20
-177.165
11
67.6275
21
-177.165
0
LINE
8
BLACK
6
CONTINUOUS
10
87.9475
20
-180.34
11
108.267
21
-180.34
0
LINE
8
BLACK
6
CONTINUOUS
10
128.588
20
-177.165
11
108.267
21
-177.165
0
LINE
8
BLACK
6
CONTINUOUS
10
128.588
20
-180.34
11
148.907
21
-180.34
0
LINE
8
BLACK
6
CONTINUOUS
10
230.188
20
-177.165
11
250.507
21
-177.165
0
LINE
8
BLACK
6
CONTINUOUS
10
169.227
20
-180.34
11
189.547
21
-180.34
0
LINE
8
BLACK
6
CONTINUOUS
10
47.3075
20
-180.34
11
67.6275
21
-180.34
0
LINE
8
BLACK
6
CONTINUOUS
10
47.3075
20
-177.165
11
26.9875
21
-177.165
0
LINE
8
BLACK
6
CONTINUOUS
10
169.227
20
-177.165
11
148.907
21
-177.165
0
LINE
8
BLACK
6
CONTINUOUS
10
209.867
20
-177.165
11
189.547
21
-177.165
0
LINE
8
BLACK
6
CONTINUOUS
10
230.188
20
-180.34
11
209.867
21
-180.34
0
LINE
8
BLACK
6
CONTINUOUS
10
270.827
20
-180.34
11
250.507
21
-180.34
0
LINE
8
BLACK
6
CONTINUOUS
10
270.827
20
-177.165
11
291.147
21
-177.165
0
LINE
8
BLACK
6
CONTINUOUS
10
311.467
20
-177.165
11
331.787
21
-177.165
0
LINE
8
BLACK
6
CONTINUOUS
10
311.467
20
-180.34
11
291.147
21
-180.34
0
LINE
8
BLACK
6
CONTINUOUS
10
148.907
20
-123.38
11
128.588
21
-123.38
0
LINE
8
BLACK
6
CONTINUOUS
10
189.547
20
-154.623
11
169.227
21
-154.623
0
LINE
8
BLACK
6
CONTINUOUS
10
108.267
20
-123.38
11
79.0575
21
-123.38
0
LINE
8
BLACK
6
CONTINUOUS
10
148.907
20
-154.623
11
128.588
21
-154.623
0
LINE
8
BLACK
6
CONTINUOUS
10
189.547
20
-123.38
11
169.227
21
-123.38
0
LINE
8
BLACK
6
CONTINUOUS
10
238.76
20
-154.623
11
209.867
21
-154.623
0
LINE
8
BLACK
6
CONTINUOUS
10
108.267
20
-154.623
11
79.0575
21
-154.623
0
LINE
8
BLACK
6
CONTINUOUS
10
238.76
20
-123.38
11
209.867
21
-123.38
0
LINE
8
BLACK
6
CONTINUOUS
10
148.907
20
-120.206
11
169.227
21
-120.206
0
LINE
8
BLACK
6
CONTINUOUS
10
148.907
20
-123.38
11
148.907
21
-120.206
0
LINE
8
BLACK
6
CONTINUOUS
10
189.547
20
-157.797
11
189.547
21
-154.623
0
LINE
8
BLACK
6
CONTINUOUS
10
108.267
20
-157.797
11
108.267
21
-154.623
0
LINE
8
BLACK
6
CONTINUOUS
10
169.227
20
-154.623
11
169.227
21
-157.797
0
LINE
8
BLACK
6
CONTINUOUS
10
128.588
20
-154.623
11
128.588
21
-157.797
0
LINE
8
BLACK
6
CONTINUOUS
10
189.547
20
-120.206
11
209.867
21
-120.206
0
LINE
8
BLACK
6
CONTINUOUS
10
189.547
20
-123.38
11
189.547
21
-120.206
0
LINE
8
BLACK
6
CONTINUOUS
10
169.227
20
-120.206
11
169.227
21
-123.38
0
LINE
8
BLACK
6
CONTINUOUS
10
108.267
20
-120.206
11
128.588
21
-120.206
0
LINE
8
BLACK
6
CONTINUOUS
10
108.267
20
-123.38
11
108.267
21
-120.206
0
LINE
8
BLACK
6
CONTINUOUS
10
108.267
20
-157.797
11
128.588
21
-157.797
0
LINE
8
BLACK
6
CONTINUOUS
10
148.907
20
-157.797
11
169.227
21
-157.797
0
LINE
8
BLACK
6
CONTINUOUS
10
128.588
20
-120.206
11
128.588
21
-123.38
0
LINE
8
BLACK
6
CONTINUOUS
10
148.907
20
-157.797
11
148.907
21
-154.623
0
LINE
8
BLACK
6
CONTINUOUS
10
189.547
20
-157.797
11
209.867
21
-157.797
0
LINE
8
BLACK
6
CONTINUOUS
10
209.867
20
-154.623
11
209.867
21
-157.797
0
LINE
8
BLACK
6
CONTINUOUS
10
209.867
20
-120.206
11
209.867
21
-123.38
0
LINE
8
BLACK
6
CONTINUOUS
10
108.267
20
-108.902
11
79.0575
21
-108.902
0
LINE
8
BLACK
6
CONTINUOUS
10
108.267
20
-77.6605
11
79.0575
21
-77.6605
0
LINE
8
BLACK
6
CONTINUOUS
10
148.907
20
-77.6605
11
128.588
21
-77.6605
0
LINE
8
BLACK
6
CONTINUOUS
10
148.907
20
-108.902
11
128.588
21
-108.902
0
LINE
8
BLACK
6
CONTINUOUS
10
189.547
20
-108.902
11
169.227
21
-108.902
0
LINE
8
BLACK
6
CONTINUOUS
10
189.547
20
-77.6605
11
169.227
21
-77.6605
0
LINE
8
BLACK
6
CONTINUOUS
10
238.76
20
-77.6605
11
209.867
21
-77.6605
0
LINE
8
BLACK
6
CONTINUOUS
10
238.76
20
-108.902
11
209.867
21
-108.902
0
LINE
8
BLACK
6
CONTINUOUS
10
148.907
20
-112.078
11
169.227
21
-112.078
0
LINE
8
BLACK
6
CONTINUOUS
10
148.907
20
-112.078
11
148.907
21
-108.902
0
LINE
8
BLACK
6
CONTINUOUS
10
189.547
20
-112.078
11
209.867
21
-112.078
0
LINE
8
BLACK
6
CONTINUOUS
10
189.547
20
-112.078
11
189.547
21
-108.902
0
LINE
8
BLACK
6
CONTINUOUS
10
169.227
20
-108.902
11
169.227
21
-112.078
0
LINE
8
BLACK
6
CONTINUOUS
10
108.267
20
-112.078
11
128.588
21
-112.078
0
LINE
8
BLACK
6
CONTINUOUS
10
108.267
20
-112.078
11
108.267
21
-108.902
0
LINE
8
BLACK
6
CONTINUOUS
10
128.588
20
-108.902
11
128.588
21
-112.078
0
LINE
8
BLACK
6
CONTINUOUS
10
209.867
20
-108.902
11
209.867
21
-112.078
0
LINE
8
BLACK
6
CONTINUOUS
10
209.867
20
-74.4855
11
209.867
21
-77.6605
0
LINE
8
BLACK
6
CONTINUOUS
10
189.547
20
-74.4855
11
209.867
21
-74.4855
0
LINE
8
BLACK
6
CONTINUOUS
10
189.547
20
-77.6605
11
189.547
21
-74.4855
0
LINE
8
BLACK
6
CONTINUOUS
10
169.227
20
-74.4855
11
169.227
21
-77.6605
0
LINE
8
BLACK
6
CONTINUOUS
10
148.907
20
-74.4855
11
169.227
21
-74.4855
0
LINE
8
BLACK
6
CONTINUOUS
10
148.907
20
-77.6605
11
148.907
21
-74.4855
0
LINE
8
BLACK
6
CONTINUOUS
10
128.588
20
-74.4855
11
128.588
21
-77.6605
0
LINE
8
BLACK
6
CONTINUOUS
10
108.267
20
-74.4855
11
128.588
21
-74.4855
0
LINE
8
BLACK
6
CONTINUOUS
10
108.267
20
-77.6605
11
108.267
21
-74.4855
0
LINE
8
BLACK
6
CONTINUOUS
10
47.3075
20
-7.9375
11
47.3075
21
-4.7625
0
LINE
8
BLACK
6
CONTINUOUS
10
26.9875
20
-7.9375
11
26.9875
21
-4.7625
0
LINE
8
BLACK
6
CONTINUOUS
10
67.6275
20
-7.9375
11
67.6275
21
-4.7625
0
LINE
8
BLACK
6
CONTINUOUS
10
87.9475
20
-7.9375
11
87.9475
21
-4.7625
0
LINE
8
BLACK
6
CONTINUOUS
10
108.267
20
-7.9375
11
108.267
21
-4.7625
0
LINE
8
BLACK
6
CONTINUOUS
10
128.588
20
-7.9375
11
128.588
21
-4.7625
0
LINE
8
BLACK
6
CONTINUOUS
10
148.907
20
-7.9375
11
148.907
21
-4.7625
0
LINE
8
BLACK
6
CONTINUOUS
10
169.227
20
-7.9375
11
169.227
21
-4.7625
0
LINE
8
BLACK
6
CONTINUOUS
10
209.867
20
-7.9375
11
209.867
21
-4.7625
0
LINE
8
BLACK
6
CONTINUOUS
10
189.547
20
-7.9375
11
189.547
21
-4.7625
0
LINE
8
BLACK
6
CONTINUOUS
10
250.507
20
-7.9375
11
250.507
21
-4.7625
0
LINE
8
BLACK
6
CONTINUOUS
10
230.188
20
-7.9375
11
230.188
21
-4.7625
0
LINE
8
BLACK
6
CONTINUOUS
10
270.827
20
-7.9375
11
270.827
21
-4.7625
0
LINE
8
BLACK
6
CONTINUOUS
10
291.147
20
-7.9375
11
291.147
21
-4.7625
0
LINE
8
BLACK
6
CONTINUOUS
10
311.467
20
-7.9375
11
311.467
21
-4.7625
0
LINE
8
BLACK
6
CONTINUOUS
10
331.787
20
-7.9375
11
331.787
21
-4.7625
0
LINE
8
BLACK
6
CONTINUOUS
10
350.837
20
-36.83
11
354.012
21
-36.83
0
LINE
8
BLACK
6
CONTINUOUS
10
350.837
20
-57.15
11
354.012
21
-57.15
0
LINE
8
BLACK
6
CONTINUOUS
10
350.837
20
-77.47
11
354.012
21
-77.47
0
LINE
8
BLACK
6
CONTINUOUS
10
350.837
20
-97.79
11
354.012
21
-97.79
0
LINE
8
BLACK
6
CONTINUOUS
10
350.837
20
-118.11
11
354.012
21
-118.11
0
LINE
8
BLACK
6
CONTINUOUS
10
350.837
20
-138.43
11
354.012
21
-138.43
0
LINE
8
BLACK
6
CONTINUOUS
10
331.787
20
-170.498
11
331.787
21
-167.322
0
LINE
8
BLACK
6
CONTINUOUS
10
311.467
20
-170.498
11
311.467
21
-167.322
0
LINE
8
BLACK
6
CONTINUOUS
10
291.147
20
-170.498
11
291.147
21
-167.322
0
LINE
8
BLACK
6
CONTINUOUS
10
270.827
20
-170.498
11
270.827
21
-167.322
0
LINE
8
BLACK
6
CONTINUOUS
10
250.507
20
-170.498
11
250.507
21
-167.322
0
LINE
8
BLACK
6
CONTINUOUS
10
230.188
20
-170.498
11
230.188
21
-167.322
0
LINE
8
BLACK
6
CONTINUOUS
10
209.867
20
-170.498
11
209.867
21
-167.322
0
LINE
8
BLACK
6
CONTINUOUS
10
189.547
20
-167.322
11
189.547
21
-170.498
0
LINE
8
BLACK
6
CONTINUOUS
10
169.227
20
-170.498
11
169.227
21
-167.322
0
LINE
8
BLACK
6
CONTINUOUS
10
148.907
20
-170.498
11
148.907
21
-167.322
0
LINE
8
BLACK
6
CONTINUOUS
10
128.588
20
-167.322
11
128.588
21
-170.498
0
LINE
8
BLACK
6
CONTINUOUS
10
108.267
20
-170.498
11
108.267
21
-167.322
0
LINE
8
BLACK
6
CONTINUOUS
10
87.9475
20
-167.322
11
87.9475
21
-170.498
0
LINE
8
BLACK
6
CONTINUOUS
10
67.6275
20
-170.498
11
67.6275
21
-167.322
0
LINE
8
BLACK
6
CONTINUOUS
10
47.3075
20
-170.498
11
47.3075
21
-167.322
0
LINE
8
BLACK
6
CONTINUOUS
10
26.9875
20
-170.498
11
26.9875
21
-167.322
0
LINE
8
BLACK
6
CONTINUOUS
10
4.7625
20
-138.43
11
7.9375
21
-138.43
0
LINE
8
BLACK
6
CONTINUOUS
10
4.7625
20
-118.11
11
7.9375
21
-118.11
0
LINE
8
BLACK
6
CONTINUOUS
10
7.9375
20
-97.79
11
4.7625
21
-97.79
0
LINE
8
BLACK
6
CONTINUOUS
10
4.7625
20
-77.47
11
7.9375
21
-77.47
0
LINE
8
BLACK
6
CONTINUOUS
10
4.7625
20
-57.15
11
7.9375
21
-57.15
0
LINE
8
BLACK
6
CONTINUOUS
10
4.7625
20
-36.83
11
7.9375
21
-36.83
0
LINE
8
BLACK
6
CONTINUOUS
10
270.827
20
-4.7625
11
291.147
21
-4.7625
0
LINE
8
BLACK
6
CONTINUOUS
10
291.147
20
-7.9375
11
270.827
21
-7.9375
0
LINE
8
BLACK
6
CONTINUOUS
10
169.227
20
-4.7625
11
148.907
21
-4.7625
0
LINE
8
BLACK
6
CONTINUOUS
10
148.907
20
-7.9375
11
169.227
21
-7.9375
0
LINE
8
BLACK
6
CONTINUOUS
10
87.9475
20
-4.7625
11
67.6275
21
-4.7625
0
LINE
8
BLACK
6
CONTINUOUS
10
189.547
20
-7.9375
11
209.867
21
-7.9375
0
LINE
8
BLACK
6
CONTINUOUS
10
67.6275
20
-7.9375
11
87.9475
21
-7.9375
0
LINE
8
BLACK
6
CONTINUOUS
10
26.9875
20
-7.9375
11
47.3075
21
-7.9375
0
LINE
8
BLACK
6
CONTINUOUS
10
230.188
20
-4.7625
11
250.507
21
-4.7625
0
LINE
8
BLACK
6
CONTINUOUS
10
128.588
20
-4.7625
11
108.267
21
-4.7625
0
LINE
8
BLACK
6
CONTINUOUS
10
311.467
20
-4.7625
11
331.787
21
-4.7625
0
LINE
8
BLACK
6
CONTINUOUS
10
331.787
20
-7.9375
11
311.467
21
-7.9375
0
LINE
8
BLACK
6
CONTINUOUS
10
209.867
20
-4.7625
11
189.547
21
-4.7625
0
LINE
8
BLACK
6
CONTINUOUS
10
250.507
20
-7.9375
11
230.188
21
-7.9375
0
LINE
8
BLACK
6
CONTINUOUS
10
47.3075
20
-4.7625
11
26.9875
21
-4.7625
0
LINE
8
BLACK
6
CONTINUOUS
10
108.267
20
-7.9375
11
128.588
21
-7.9375
0
LINE
8
BLACK
6
CONTINUOUS
10
331.787
20
-170.498
11
311.467
21
-170.498
0
LINE
8
BLACK
6
CONTINUOUS
10
311.467
20
-167.322
11
331.787
21
-167.322
0
LINE
8
BLACK
6
CONTINUOUS
10
291.147
20
-170.498
11
270.827
21
-170.498
0
LINE
8
BLACK
6
CONTINUOUS
10
270.827
20
-167.322
11
291.147
21
-167.322
0
LINE
8
BLACK
6
CONTINUOUS
10
250.507
20
-170.498
11
230.188
21
-170.498
0
LINE
8
BLACK
6
CONTINUOUS
10
230.188
20
-167.322
11
250.507
21
-167.322
0
LINE
8
BLACK
6
CONTINUOUS
10
209.867
20
-167.322
11
189.547
21
-167.322
0
LINE
8
BLACK
6
CONTINUOUS
10
189.547
20
-170.498
11
209.867
21
-170.498
0
LINE
8
BLACK
6
CONTINUOUS
10
169.227
20
-167.322
11
148.907
21
-167.322
0
LINE
8
BLACK
6
CONTINUOUS
10
148.907
20
-170.498
11
169.227
21
-170.498
0
LINE
8
BLACK
6
CONTINUOUS
10
128.588
20
-167.322
11
108.267
21
-167.322
0
LINE
8
BLACK
6
CONTINUOUS
10
108.267
20
-170.498
11
128.588
21
-170.498
0
LINE
8
BLACK
6
CONTINUOUS
10
87.9475
20
-167.322
11
67.6275
21
-167.322
0
LINE
8
BLACK
6
CONTINUOUS
10
67.6275
20
-170.498
11
87.9475
21
-170.498
0
LINE
8
BLACK
6
CONTINUOUS
10
47.3075
20
-167.322
11
26.9875
21
-167.322
0
LINE
8
BLACK
6
CONTINUOUS
10
26.9875
20
-170.498
11
47.3075
21
-170.498
0
LINE
8
BLACK
6
CONTINUOUS
10
354.012
20
-138.43
11
354.012
21
-118.11
0
LINE
8
BLACK
6
CONTINUOUS
10
350.837
20
-118.11
11
350.837
21
-138.43
0
LINE
8
BLACK
6
CONTINUOUS
10
350.837
20
-97.79
11
350.837
21
-77.47
0
LINE
8
BLACK
6
CONTINUOUS
10
354.012
20
-77.47
11
354.012
21
-97.79
0
LINE
8
BLACK
6
CONTINUOUS
10
350.837
20
-57.15
11
350.837
21
-36.83
0
LINE
8
BLACK
6
CONTINUOUS
10
354.012
20
-36.83
11
354.012
21
-57.15
0
LINE
8
BLACK
6
CONTINUOUS
10
4.7625
20
-138.43
11
4.7625
21
-118.11
0
LINE
8
BLACK
6
CONTINUOUS
10
7.9375
20
-118.11
11
7.9375
21
-138.43
0
LINE
8
BLACK
6
CONTINUOUS
10
4.7625
20
-97.79
11
4.7625
21
-77.47
0
LINE
8
BLACK
6
CONTINUOUS
10
7.9375
20
-77.47
11
7.9375
21
-97.79
0
LINE
8
BLACK
6
CONTINUOUS
10
4.7625
20
-57.15
11
4.7625
21
-36.83
0
LINE
8
BLACK
6
CONTINUOUS
10
7.9375
20
-36.83
11
7.9375
21
-57.15
0
LINE
8
BLACK
6
CONTINUOUS
10
356.235
20
-175.26
11
2.54
21
-175.26
0
LINE
8
BLACK
6
CONTINUOUS
10
358.775
20
-2.54
11
358.775
21
-172.72
0
LINE
8
BLACK
6
CONTINUOUS
10
2.54
20
0
11
356.235
21
0
0
LINE
8
BLACK
6
CONTINUOUS
10
0
20
-172.72
11
0
21
-2.54
0
ARC
8
BLACK
10
2.54
20
-172.72
40
2.54
50
180
51
270
0
ARC
8
BLACK
10
2.54
20
-2.54
40
2.54
50
90
51
180
0
ARC
8
BLACK
10
356.235
20
-2.54
40
2.54
50
-0
51
90
0
ARC
8
BLACK
10
356.235
20
-172.72
40
2.54
50
-90
51
-0
0
LINE
8
BLACK
6
CONTINUOUS
10
307.975
20
-66.675
11
307.975
21
-104.775
0
LINE
8
BLACK
6
CONTINUOUS
10
346.075
20
-66.675
11
307.975
21
-66.675
0
LINE
8
BLACK
6
CONTINUOUS
10
346.075
20
-104.775
11
346.075
21
-66.675
0
LINE
8
BLACK
6
CONTINUOUS
10
307.975
20
-104.775
11
346.075
21
-104.775
0
LINE
8
BLACK
6
CONTINUOUS
10
274.637
20
-161.925
11
60.325
21
-161.925
0
LINE
8
BLACK
6
CONTINUOUS
10
274.637
20
-142.875
11
274.637
21
-161.925
0
LINE
8
BLACK
6
CONTINUOUS
10
288.925
20
-142.875
11
274.637
21
-142.875
0
LINE
8
BLACK
6
CONTINUOUS
10
288.925
20
-161.925
11
288.925
21
-142.875
0
LINE
8
BLACK
6
CONTINUOUS
10
346.075
20
-161.925
11
288.925
21
-161.925
0
CIRCLE
8
BLACK
10
332.74
20
-112.395
40
1.5875
0
CIRCLE
8
BLACK
10
281.94
20
-156.21
40
1.5875
0
CIRCLE
8
BLACK
10
43.18
20
-156.21
40
1.5875
0
CIRCLE
8
BLACK
10
303.53
20
-74.93
40
1.5875
0
CIRCLE
8
BLACK
10
177.8
20
-44.45
40
1.5875
0
CIRCLE
8
BLACK
10
43.18
20
-44.45
40
1.5875
0
LINE
8
BLACK
6
CONTINUOUS
10
12.7
20
-161.925
11
12.7
21
-66.675
0
LINE
8
BLACK
6
CONTINUOUS
10
36.5125
20
-161.925
11
12.7
21
-161.925
0
LINE
8
BLACK
6
CONTINUOUS
10
36.5125
20
-142.875
11
36.5125
21
-161.925
0
LINE
8
BLACK
6
CONTINUOUS
10
60.325
20
-142.875
11
36.5125
21
-142.875
0
LINE
8
BLACK
6
CONTINUOUS
10
60.325
20
-161.925
11
60.325
21
-142.875
0
LINE
8
BLACK
6
CONTINUOUS
10
346.075
20
-142.875
11
346.075
21
-161.925
0
LINE
8
BLACK
6
CONTINUOUS
10
327.025
20
-142.875
11
346.075
21
-142.875
0
LINE
8
BLACK
6
CONTINUOUS
10
327.025
20
-123.825
11
327.025
21
-142.875
0
LINE
8
BLACK
6
CONTINUOUS
10
307.975
20
-123.825
11
327.025
21
-123.825
0
LINE
8
BLACK
6
CONTINUOUS
10
307.975
20
-142.875
11
307.975
21
-123.825
0
LINE
8
BLACK
6
CONTINUOUS
10
298.45
20
-142.875
11
307.975
21
-142.875
0
LINE
8
BLACK
6
CONTINUOUS
10
298.45
20
-66.675
11
298.45
21
-142.875
0
LINE
8
BLACK
6
CONTINUOUS
10
12.7
20
-66.675
11
298.45
21
-66.675
0
LINE
8
BLACK
6
CONTINUOUS
10
232.41
20
-55.88
11
232.41
21
-38.1
0
LINE
8
BLACK
6
CONTINUOUS
10
344.17
20
-55.88
11
232.41
21
-55.88
0
LINE
8
BLACK
6
CONTINUOUS
10
232.41
20
-38.1
11
344.17
21
-38.1
0
LINE
8
BLACK
6
CONTINUOUS
10
232.41
20
-33.02
11
232.41
21
-15.24
0
LINE
8
BLACK
6
CONTINUOUS
10
344.17
20
-33.02
11
232.41
21
-33.02
0
LINE
8
BLACK
6
CONTINUOUS
10
344.17
20
-15.24
11
344.17
21
-33.02
0
LINE
8
BLACK
6
CONTINUOUS
10
232.41
20
-15.24
11
344.17
21
-15.24
0
LINE
8
BLACK
6
CONTINUOUS
10
12.7
20
-57.15
11
31.75
21
-57.15
0
LINE
8
BLACK
6
CONTINUOUS
10
344.17
20
-38.1
11
344.17
21
-55.88
0
LINE
8
BLACK
6
CONTINUOUS
10
50.8
20
-57.15
11
50.8
21
-38.1
0
LINE
8
BLACK
6
CONTINUOUS
10
146.05
20
-57.15
11
50.8
21
-57.15
0
LINE
8
BLACK
6
CONTINUOUS
10
146.05
20
-38.1
11
146.05
21
-57.15
0
LINE
8
BLACK
6
CONTINUOUS
10
50.8
20
-38.1
11
146.05
21
-38.1
0
LINE
8
BLACK
6
CONTINUOUS
10
12.7
20
-38.1
11
12.7
21
-57.15
0
LINE
8
BLACK
6
CONTINUOUS
10
31.75
20
-38.1
11
12.7
21
-38.1
0
LINE
8
BLACK
6
CONTINUOUS
10
31.75
20
-57.15
11
31.75
21
-38.1
  0
ENDSEC
  0
EOF
