G04 #@! TF.GenerationSoftware,KiCad,Pcbnew,(5.1.0)-1*
G04 #@! TF.CreationDate,2019-10-09T16:22:28-07:00*
G04 #@! TF.ProjectId,Omega-Mainboard,4f6d6567-612d-44d6-9169-6e626f617264,rev?*
G04 #@! TF.SameCoordinates,Original*
G04 #@! TF.FileFunction,Legend,Bot*
G04 #@! TF.FilePolarity,Positive*
%FSLAX46Y46*%
G04 Gerber Fmt 4.6, Leading zero omitted, Abs format (unit mm)*
G04 Created by KiCad (PCBNEW (5.1.0)-1) date 2019-10-09 16:22:28*
%MOMM*%
%LPD*%
G04 APERTURE LIST*
%ADD10C,0.150000*%
%ADD11C,0.200000*%
G04 APERTURE END LIST*
D10*
X55562500Y-21907500D02*
X54927500Y-21907500D01*
X54927500Y-22542500D02*
X54927500Y-21907500D01*
X56515000Y-23495000D02*
X54927500Y-21907500D01*
X56515000Y-24765000D02*
X56515000Y-23495000D01*
X46672500Y-22542500D02*
X46672500Y-21907500D01*
X46672500Y-21907500D02*
X46037500Y-21907500D01*
X45085000Y-23495000D02*
X46672500Y-21907500D01*
X45085000Y-24765000D02*
X45085000Y-23495000D01*
X52705000Y-20320000D02*
X53340000Y-20320000D01*
X52705000Y-20320000D02*
X52705000Y-19685000D01*
X54927500Y-19685000D02*
X53340000Y-19685000D01*
X52705000Y-20320000D02*
X53340000Y-19685000D01*
X58737500Y-23495000D02*
X54927500Y-19685000D01*
X58737500Y-24765000D02*
X58737500Y-23495000D01*
X42862500Y-24765000D02*
X42862500Y-23495000D01*
X46672500Y-19685000D02*
X48260000Y-19685000D01*
X46672500Y-19685000D02*
X42862500Y-23495000D01*
X48895000Y-20002500D02*
X48895000Y-19685000D01*
X48577500Y-20320000D02*
X48260000Y-20320000D01*
X48895000Y-20320000D02*
X48895000Y-20002500D01*
X48895000Y-20320000D02*
X48577500Y-20320000D01*
X48260000Y-19685000D02*
X48895000Y-20320000D01*
D11*
X47759880Y-25704523D02*
X47283690Y-25371190D01*
X47759880Y-25133095D02*
X46759880Y-25133095D01*
X46759880Y-25514047D01*
X46807500Y-25609285D01*
X46855119Y-25656904D01*
X46950357Y-25704523D01*
X47093214Y-25704523D01*
X47188452Y-25656904D01*
X47236071Y-25609285D01*
X47283690Y-25514047D01*
X47283690Y-25133095D01*
X47712261Y-26514047D02*
X47759880Y-26418809D01*
X47759880Y-26228333D01*
X47712261Y-26133095D01*
X47617023Y-26085476D01*
X47236071Y-26085476D01*
X47140833Y-26133095D01*
X47093214Y-26228333D01*
X47093214Y-26418809D01*
X47140833Y-26514047D01*
X47236071Y-26561666D01*
X47331309Y-26561666D01*
X47426547Y-26085476D01*
X47759880Y-27418809D02*
X46759880Y-27418809D01*
X47712261Y-27418809D02*
X47759880Y-27323571D01*
X47759880Y-27133095D01*
X47712261Y-27037857D01*
X47664642Y-26990238D01*
X47569404Y-26942619D01*
X47283690Y-26942619D01*
X47188452Y-26990238D01*
X47140833Y-27037857D01*
X47093214Y-27133095D01*
X47093214Y-27323571D01*
X47140833Y-27418809D01*
X45442142Y-25704523D02*
X45489761Y-25656904D01*
X45537380Y-25514047D01*
X45537380Y-25418809D01*
X45489761Y-25275952D01*
X45394523Y-25180714D01*
X45299285Y-25133095D01*
X45108809Y-25085476D01*
X44965952Y-25085476D01*
X44775476Y-25133095D01*
X44680238Y-25180714D01*
X44585000Y-25275952D01*
X44537380Y-25418809D01*
X44537380Y-25514047D01*
X44585000Y-25656904D01*
X44632619Y-25704523D01*
X45537380Y-26133095D02*
X44537380Y-26133095D01*
X45537380Y-26561666D02*
X45013571Y-26561666D01*
X44918333Y-26514047D01*
X44870714Y-26418809D01*
X44870714Y-26275952D01*
X44918333Y-26180714D01*
X44965952Y-26133095D01*
X45537380Y-27037857D02*
X44870714Y-27037857D01*
X45061190Y-27037857D02*
X44965952Y-27085476D01*
X44918333Y-27133095D01*
X44870714Y-27228333D01*
X44870714Y-27323571D01*
X45537380Y-27799761D02*
X45489761Y-27704523D01*
X45442142Y-27656904D01*
X45346904Y-27609285D01*
X45061190Y-27609285D01*
X44965952Y-27656904D01*
X44918333Y-27704523D01*
X44870714Y-27799761D01*
X44870714Y-27942619D01*
X44918333Y-28037857D01*
X44965952Y-28085476D01*
X45061190Y-28133095D01*
X45346904Y-28133095D01*
X45442142Y-28085476D01*
X45489761Y-28037857D01*
X45537380Y-27942619D01*
X45537380Y-27799761D01*
X45537380Y-28561666D02*
X44870714Y-28561666D01*
X44965952Y-28561666D02*
X44918333Y-28609285D01*
X44870714Y-28704523D01*
X44870714Y-28847380D01*
X44918333Y-28942619D01*
X45013571Y-28990238D01*
X45537380Y-28990238D01*
X45013571Y-28990238D02*
X44918333Y-29037857D01*
X44870714Y-29133095D01*
X44870714Y-29275952D01*
X44918333Y-29371190D01*
X45013571Y-29418809D01*
X45537380Y-29418809D01*
X45537380Y-30323571D02*
X45013571Y-30323571D01*
X44918333Y-30275952D01*
X44870714Y-30180714D01*
X44870714Y-29990238D01*
X44918333Y-29895000D01*
X45489761Y-30323571D02*
X45537380Y-30228333D01*
X45537380Y-29990238D01*
X45489761Y-29895000D01*
X45394523Y-29847380D01*
X45299285Y-29847380D01*
X45204047Y-29895000D01*
X45156428Y-29990238D01*
X45156428Y-30228333D01*
X45108809Y-30323571D01*
X59189880Y-25609285D02*
X59189880Y-25133095D01*
X58189880Y-25133095D01*
X58523214Y-26371190D02*
X59189880Y-26371190D01*
X58523214Y-25942619D02*
X59047023Y-25942619D01*
X59142261Y-25990238D01*
X59189880Y-26085476D01*
X59189880Y-26228333D01*
X59142261Y-26323571D01*
X59094642Y-26371190D01*
X59189880Y-26847380D02*
X58523214Y-26847380D01*
X58618452Y-26847380D02*
X58570833Y-26895000D01*
X58523214Y-26990238D01*
X58523214Y-27133095D01*
X58570833Y-27228333D01*
X58666071Y-27275952D01*
X59189880Y-27275952D01*
X58666071Y-27275952D02*
X58570833Y-27323571D01*
X58523214Y-27418809D01*
X58523214Y-27561666D01*
X58570833Y-27656904D01*
X58666071Y-27704523D01*
X59189880Y-27704523D01*
X59189880Y-28609285D02*
X58666071Y-28609285D01*
X58570833Y-28561666D01*
X58523214Y-28466428D01*
X58523214Y-28275952D01*
X58570833Y-28180714D01*
X59142261Y-28609285D02*
X59189880Y-28514047D01*
X59189880Y-28275952D01*
X59142261Y-28180714D01*
X59047023Y-28133095D01*
X58951785Y-28133095D01*
X58856547Y-28180714D01*
X58808928Y-28275952D01*
X58808928Y-28514047D01*
X58761309Y-28609285D01*
X42362500Y-25656904D02*
X42314880Y-25561666D01*
X42314880Y-25418809D01*
X42362500Y-25275952D01*
X42457738Y-25180714D01*
X42552976Y-25133095D01*
X42743452Y-25085476D01*
X42886309Y-25085476D01*
X43076785Y-25133095D01*
X43172023Y-25180714D01*
X43267261Y-25275952D01*
X43314880Y-25418809D01*
X43314880Y-25514047D01*
X43267261Y-25656904D01*
X43219642Y-25704523D01*
X42886309Y-25704523D01*
X42886309Y-25514047D01*
X43314880Y-26133095D02*
X42314880Y-26133095D01*
X43314880Y-26704523D01*
X42314880Y-26704523D01*
X43314880Y-27180714D02*
X42314880Y-27180714D01*
X42314880Y-27418809D01*
X42362500Y-27561666D01*
X42457738Y-27656904D01*
X42552976Y-27704523D01*
X42743452Y-27752142D01*
X42886309Y-27752142D01*
X43076785Y-27704523D01*
X43172023Y-27656904D01*
X43267261Y-27561666D01*
X43314880Y-27418809D01*
X43314880Y-27180714D01*
X56681666Y-25085476D02*
X56681666Y-25561666D01*
X56967380Y-24990238D02*
X55967380Y-25323571D01*
X56967380Y-25656904D01*
X56300714Y-26418809D02*
X56967380Y-26418809D01*
X56300714Y-25990238D02*
X56824523Y-25990238D01*
X56919761Y-26037857D01*
X56967380Y-26133095D01*
X56967380Y-26275952D01*
X56919761Y-26371190D01*
X56872142Y-26418809D01*
X56967380Y-27323571D02*
X55967380Y-27323571D01*
X56919761Y-27323571D02*
X56967380Y-27228333D01*
X56967380Y-27037857D01*
X56919761Y-26942619D01*
X56872142Y-26895000D01*
X56776904Y-26847380D01*
X56491190Y-26847380D01*
X56395952Y-26895000D01*
X56348333Y-26942619D01*
X56300714Y-27037857D01*
X56300714Y-27228333D01*
X56348333Y-27323571D01*
X56967380Y-27799761D02*
X56300714Y-27799761D01*
X55967380Y-27799761D02*
X56015000Y-27752142D01*
X56062619Y-27799761D01*
X56015000Y-27847380D01*
X55967380Y-27799761D01*
X56062619Y-27799761D01*
X56967380Y-28418809D02*
X56919761Y-28323571D01*
X56872142Y-28275952D01*
X56776904Y-28228333D01*
X56491190Y-28228333D01*
X56395952Y-28275952D01*
X56348333Y-28323571D01*
X56300714Y-28418809D01*
X56300714Y-28561666D01*
X56348333Y-28656904D01*
X56395952Y-28704523D01*
X56491190Y-28752142D01*
X56776904Y-28752142D01*
X56872142Y-28704523D01*
X56919761Y-28656904D01*
X56967380Y-28561666D01*
X56967380Y-28418809D01*
X54697261Y-25085476D02*
X54744880Y-25228333D01*
X54744880Y-25466428D01*
X54697261Y-25561666D01*
X54649642Y-25609285D01*
X54554404Y-25656904D01*
X54459166Y-25656904D01*
X54363928Y-25609285D01*
X54316309Y-25561666D01*
X54268690Y-25466428D01*
X54221071Y-25275952D01*
X54173452Y-25180714D01*
X54125833Y-25133095D01*
X54030595Y-25085476D01*
X53935357Y-25085476D01*
X53840119Y-25133095D01*
X53792500Y-25180714D01*
X53744880Y-25275952D01*
X53744880Y-25514047D01*
X53792500Y-25656904D01*
X54078214Y-25990238D02*
X54744880Y-26228333D01*
X54078214Y-26466428D02*
X54744880Y-26228333D01*
X54982976Y-26133095D01*
X55030595Y-26085476D01*
X55078214Y-25990238D01*
X54078214Y-26847380D02*
X54744880Y-26847380D01*
X54173452Y-26847380D02*
X54125833Y-26895000D01*
X54078214Y-26990238D01*
X54078214Y-27133095D01*
X54125833Y-27228333D01*
X54221071Y-27275952D01*
X54744880Y-27275952D01*
X54697261Y-28180714D02*
X54744880Y-28085476D01*
X54744880Y-27895000D01*
X54697261Y-27799761D01*
X54649642Y-27752142D01*
X54554404Y-27704523D01*
X54268690Y-27704523D01*
X54173452Y-27752142D01*
X54125833Y-27799761D01*
X54078214Y-27895000D01*
X54078214Y-28085476D01*
X54125833Y-28180714D01*
X51998571Y-25466428D02*
X52046190Y-25609285D01*
X52093809Y-25656904D01*
X52189047Y-25704523D01*
X52331904Y-25704523D01*
X52427142Y-25656904D01*
X52474761Y-25609285D01*
X52522380Y-25514047D01*
X52522380Y-25133095D01*
X51522380Y-25133095D01*
X51522380Y-25466428D01*
X51570000Y-25561666D01*
X51617619Y-25609285D01*
X51712857Y-25656904D01*
X51808095Y-25656904D01*
X51903333Y-25609285D01*
X51950952Y-25561666D01*
X51998571Y-25466428D01*
X51998571Y-25133095D01*
X52522380Y-26275952D02*
X52474761Y-26180714D01*
X52379523Y-26133095D01*
X51522380Y-26133095D01*
X51855714Y-27085476D02*
X52522380Y-27085476D01*
X51855714Y-26656904D02*
X52379523Y-26656904D01*
X52474761Y-26704523D01*
X52522380Y-26799761D01*
X52522380Y-26942619D01*
X52474761Y-27037857D01*
X52427142Y-27085476D01*
X52474761Y-27942619D02*
X52522380Y-27847380D01*
X52522380Y-27656904D01*
X52474761Y-27561666D01*
X52379523Y-27514047D01*
X51998571Y-27514047D01*
X51903333Y-27561666D01*
X51855714Y-27656904D01*
X51855714Y-27847380D01*
X51903333Y-27942619D01*
X51998571Y-27990238D01*
X52093809Y-27990238D01*
X52189047Y-27514047D01*
X49030000Y-25656904D02*
X48982380Y-25561666D01*
X48982380Y-25418809D01*
X49030000Y-25275952D01*
X49125238Y-25180714D01*
X49220476Y-25133095D01*
X49410952Y-25085476D01*
X49553809Y-25085476D01*
X49744285Y-25133095D01*
X49839523Y-25180714D01*
X49934761Y-25275952D01*
X49982380Y-25418809D01*
X49982380Y-25514047D01*
X49934761Y-25656904D01*
X49887142Y-25704523D01*
X49553809Y-25704523D01*
X49553809Y-25514047D01*
X49982380Y-26133095D02*
X49315714Y-26133095D01*
X49506190Y-26133095D02*
X49410952Y-26180714D01*
X49363333Y-26228333D01*
X49315714Y-26323571D01*
X49315714Y-26418809D01*
X49934761Y-27133095D02*
X49982380Y-27037857D01*
X49982380Y-26847380D01*
X49934761Y-26752142D01*
X49839523Y-26704523D01*
X49458571Y-26704523D01*
X49363333Y-26752142D01*
X49315714Y-26847380D01*
X49315714Y-27037857D01*
X49363333Y-27133095D01*
X49458571Y-27180714D01*
X49553809Y-27180714D01*
X49649047Y-26704523D01*
X49934761Y-27990238D02*
X49982380Y-27895000D01*
X49982380Y-27704523D01*
X49934761Y-27609285D01*
X49839523Y-27561666D01*
X49458571Y-27561666D01*
X49363333Y-27609285D01*
X49315714Y-27704523D01*
X49315714Y-27895000D01*
X49363333Y-27990238D01*
X49458571Y-28037857D01*
X49553809Y-28037857D01*
X49649047Y-27561666D01*
X49315714Y-28466428D02*
X49982380Y-28466428D01*
X49410952Y-28466428D02*
X49363333Y-28514047D01*
X49315714Y-28609285D01*
X49315714Y-28752142D01*
X49363333Y-28847380D01*
X49458571Y-28895000D01*
X49982380Y-28895000D01*
M02*
