M48
; DRILL file {KiCad (5.1.0)-1} date 10/18/2019 11:59:57 PM
; FORMAT={-:-/ absolute / inch / decimal}
; #@! TF.CreationDate,2019-10-18T23:59:57-07:00
; #@! TF.GenerationSoftware,Kicad,Pcbnew,(5.1.0)-1
FMAT,2
INCH
T1C0.0157
T2C0.0250
T3C0.0315
T4C0.0320
T5C0.0350
T6C0.0400
T7C0.0410
T8C0.0512
T9C0.0512
T10C0.0620
T11C0.0902
T12C0.0945
T13C0.1024
T14C0.1050
T15C0.1200
T16C0.1201
T17C0.1220
%
G90
G05
T1
X0.85Y-4.225
X1.075Y-4.175
X1.45Y-5.025
X1.55Y-4.975
X1.6Y-5.125
X1.675Y-1.4
X1.7Y-4.35
X1.95Y-5.475
X2.0Y-4.8
X2.5Y-4.8
X2.9875Y-4.3125
X3.1125Y-5.1625
X3.15Y-4.875
X3.35Y-4.2
X3.35Y-4.4
X3.35Y-5.35
X3.5875Y-4.9875
X3.6Y-3.8
X3.625Y-4.95
X3.65Y-2.25
X3.6625Y-5.35
X3.7Y-2.55
X3.7Y-2.6
X3.7125Y-3.5
X3.8Y-2.5
X3.975Y-3.0
X4.2Y-3.025
X4.2125Y-5.2
X4.225Y-4.95
X4.25Y-2.55
X4.3Y-5.325
X4.375Y-5.05
X4.375Y-5.825
X4.45Y-2.425
X4.55Y-3.7
X4.65Y-3.55
X4.725Y-5.7875
X4.8Y-4.3
X4.8125Y-3.6125
X4.9875Y-4.4
X5.0267Y-3.45
X5.1Y-3.2625
X5.25Y-3.55
X5.2625Y-4.3875
X5.3125Y-4.25
X5.45Y-3.75
X5.55Y-2.45
X5.55Y-4.65
X5.65Y-4.125
X5.7Y-3.5
X6.025Y-6.0
X6.05Y-4.15
X6.075Y-6.1
X6.0875Y-5.0875
X6.1Y-4.5
X6.1125Y-5.9875
X6.2Y-3.5
X6.2375Y-3.5875
X6.2875Y-4.25
X6.325Y-3.4
X6.375Y-2.875
X6.425Y-3.1625
X6.475Y-2.95
X6.6Y-5.0
X6.6125Y-3.3375
X6.625Y-3.05
X6.6458Y-2.65
X6.6464Y-4.0522
X6.65Y-4.675
X6.7Y-2.45
X6.8125Y-3.75
X6.825Y-3.925
X6.8375Y-2.0125
X6.8471Y-3.8404
X6.875Y-3.425
X6.9Y-2.4625
X6.95Y-2.4625
X6.95Y-4.6375
X6.9625Y-4.5125
X6.975Y-2.175
X6.9875Y-4.6125
X6.9955Y-3.7705
X7.0Y-2.4625
X7.0Y-6.35
X7.075Y-1.275
X7.1125Y-1.2875
X7.1375Y-2.4625
X7.1688Y-3.6687
X7.2125Y-3.125
X7.2618Y-3.5868
X7.4Y-4.75
X7.45Y-1.0
X7.45Y-1.5875
X7.5Y-5.0125
X7.5Y-5.2336
X7.525Y-5.375
X7.5263Y-5.2509
X7.575Y-2.5625
X7.6Y-5.1875
X7.6125Y-2.5625
X7.65Y-2.5625
X7.65Y-5.0375
X7.7167Y-2.3375
X7.7167Y-2.4125
X7.7167Y-2.375
X7.8Y-5.125
X7.825Y-2.9
X7.875Y-2.8
X7.9125Y-2.6625
X8.0875Y-3.825
X8.0875Y-4.8125
X8.1125Y-2.5625
X8.1625Y-3.9375
X8.3Y-4.375
X8.35Y-5.55
X8.3929Y-3.8446
X8.4Y-1.95
X8.425Y-5.0625
X8.4375Y-5.45
X8.45Y-1.75
X8.4625Y-3.875
X8.4625Y-5.0375
X8.5Y-1.95
X8.5375Y-5.0375
X8.55Y-4.8
X8.55Y-4.6375
X8.6Y-2.3375
X8.675Y-4.375
X8.7375Y-4.725
X8.75Y-3.1375
X8.75Y-4.8
X8.7889Y-2.9389
X8.8017Y-3.8
X8.8017Y-3.9
X8.8125Y-3.4
X8.8125Y-3.5
X8.8128Y-4.1997
X8.975Y-5.3
X9.1Y-3.55
X9.125Y-5.7
X9.2Y-4.6375
X9.2Y-4.8
X9.2125Y-1.9875
X9.275Y-2.325
X9.2875Y-5.0125
X9.55Y-3.4125
X9.55Y-3.75
X9.55Y-4.625
X9.5875Y-5.775
X9.7042Y-2.325
X9.7375Y-1.9625
X9.75Y-3.55
X9.75Y-4.0
X9.75Y-5.425
X9.75Y-5.675
X9.8Y-2.8
X9.825Y-2.275
X9.85Y-4.25
X9.9Y-5.5267
X10.0333Y-4.8125
X10.1Y-3.375
X10.1125Y-4.775
X10.125Y-1.25
X10.15Y-3.4875
X10.175Y-1.625
X10.2Y-3.75
X10.225Y-1.525
X10.2875Y-4.6125
X10.35Y-4.9
X10.35Y-5.55
X10.4Y-4.9
X10.625Y-6.35
X10.6375Y-4.0375
X10.675Y-6.2
X10.75Y-3.75
X10.7625Y-4.7125
X10.8751Y-4.5251
X10.9125Y-4.3875
X10.9309Y-4.475
X11.1125Y-4.0875
X11.125Y-4.75
X11.15Y-3.875
X11.2Y-3.825
X11.2125Y-4.0875
X11.4Y-3.65
X11.45Y-3.55
X11.5Y-3.45
X11.75Y-3.8125
X11.8125Y-3.9125
X11.9Y-5.8
X12.125Y-5.375
X12.175Y-5.425
X12.2Y-2.0
X12.2Y-3.1
X12.3Y-2.0
X12.35Y-5.35
X12.4Y-2.0
X12.45Y-5.3
X12.55Y-5.25
X12.5875Y-3.7625
X12.9Y-4.0
X12.95Y-3.8
X13.225Y-6.175
T2
X1.825Y-3.515
X1.825Y-3.585
X1.825Y-3.655
X1.825Y-3.725
X1.825Y-3.795
X1.825Y-3.865
X1.825Y-3.935
X1.825Y-4.005
X1.825Y-4.075
X1.825Y-4.145
X1.825Y-4.215
X1.825Y-4.285
X1.825Y-4.355
X1.825Y-4.425
X1.825Y-4.495
X1.825Y-4.565
X1.825Y-4.635
X1.825Y-4.705
X1.825Y-4.775
X1.825Y-4.845
X1.825Y-4.915
X1.825Y-4.985
X1.825Y-5.055
X1.825Y-5.125
X1.825Y-5.195
X1.825Y-5.265
X1.825Y-5.335
X1.825Y-5.405
X1.825Y-5.475
X1.825Y-5.545
X1.825Y-5.615
X1.825Y-5.685
X2.575Y-3.515
X2.575Y-3.585
X2.575Y-3.655
X2.575Y-3.725
X2.575Y-3.795
X2.575Y-3.865
X2.575Y-3.935
X2.575Y-4.005
X2.575Y-4.075
X2.575Y-4.145
X2.575Y-4.215
X2.575Y-4.285
X2.575Y-4.355
X2.575Y-4.425
X2.575Y-4.495
X2.575Y-4.565
X2.575Y-4.635
X2.575Y-4.705
X2.575Y-4.775
X2.575Y-4.845
X2.575Y-4.915
X2.575Y-4.985
X2.575Y-5.055
X2.575Y-5.125
X2.575Y-5.195
X2.575Y-5.265
X2.575Y-5.335
X2.575Y-5.405
X2.575Y-5.475
X2.575Y-5.545
X2.575Y-5.615
X2.575Y-5.685
T3
X6.2606Y-1.5
X6.3394Y-1.5
X5.7606Y-2.3
X5.8394Y-2.3
X2.1606Y-6.05
X2.2394Y-6.05
X6.3606Y-2.3
X6.4394Y-2.3
X6.0356Y-2.3
X6.1144Y-2.3
X0.8Y-1.7008
X0.8Y-1.7992
X12.0106Y-4.9
X12.0894Y-4.9
X1.4Y-1.7008
X1.4Y-1.7992
X4.9Y-1.3106
X4.9Y-1.3894
X1.1Y-1.7008
X1.1Y-1.7992
X3.1606Y-2.9
X3.2394Y-2.9
X3.3Y-1.9106
X3.3Y-1.9894
X3.8Y-2.1106
X3.8Y-2.1894
X5.4606Y-2.3
X5.5394Y-2.3
T4
X0.6Y-4.95
X0.6Y-5.15
X4.4Y-2.6
X4.4Y-2.7
X4.4Y-2.8
X4.4Y-2.9
X4.4Y-3.0
X4.4Y-3.1
X4.4Y-3.2
X4.7Y-2.6
X4.7Y-2.7
X4.7Y-2.8
X4.7Y-2.9
X4.7Y-3.0
X4.7Y-3.1
X4.7Y-3.2
X6.7Y-4.8
X6.9Y-4.8
X2.4Y-1.75
X2.4Y-2.05
X8.4Y-3.0
X8.5Y-3.0
X8.6Y-3.0
X8.7Y-3.0
X8.8Y-3.0
X8.9Y-3.0
X9.0Y-3.0
X9.1Y-3.0
X9.2Y-3.0
X9.3Y-3.0
X9.5Y-3.95
X9.5Y-4.15
X6.5Y-5.0
X6.5Y-5.1
X6.5Y-5.2
X6.5Y-5.3
X6.5Y-5.4
X6.5Y-5.5
X6.5Y-5.6
X6.5Y-5.7
X6.5Y-5.8
X6.5Y-5.9
X6.8Y-5.0
X6.8Y-5.1
X6.8Y-5.2
X6.8Y-5.3
X6.8Y-5.4
X6.8Y-5.5
X6.8Y-5.6
X6.8Y-5.7
X6.8Y-5.8
X6.8Y-5.9
X1.3Y-5.35
X1.6Y-5.35
X5.9Y-5.0
X5.9Y-5.1
X5.9Y-5.2
X5.9Y-5.3
X5.9Y-5.4
X5.9Y-5.5
X5.9Y-5.6
X5.9Y-5.7
X5.9Y-5.8
X5.9Y-5.9
X6.2Y-5.0
X6.2Y-5.1
X6.2Y-5.2
X6.2Y-5.3
X6.2Y-5.4
X6.2Y-5.5
X6.2Y-5.6
X6.2Y-5.7
X6.2Y-5.8
X6.2Y-5.9
X11.0Y-2.45
X11.0Y-2.75
X11.1Y-2.45
X11.1Y-2.75
X11.2Y-2.45
X11.2Y-2.75
X11.3Y-2.45
X11.3Y-2.75
X11.4Y-2.45
X11.4Y-2.75
X11.5Y-2.45
X11.5Y-2.75
X11.6Y-2.45
X11.6Y-2.75
X11.7Y-2.45
X11.7Y-2.75
X11.8Y-2.45
X11.8Y-2.75
X11.9Y-2.45
X11.9Y-2.75
X4.95Y-5.6
X5.15Y-5.6
X1.5Y-5.7
X1.5Y-6.0
X1.3Y-5.7539
X1.3Y-5.9461
X6.3Y-1.7
X6.3Y-2.0
X0.8Y-4.9
X0.8Y-5.2
X0.9Y-4.9
X0.9Y-5.2
X1.0Y-4.9
X1.0Y-5.2
X1.1Y-4.9
X1.1Y-5.2
X1.2Y-4.9
X1.2Y-5.2
X1.3Y-4.9
X1.3Y-5.2
X1.4Y-4.9
X1.4Y-5.2
X1.5Y-4.9
X1.5Y-5.2
X1.6Y-4.9
X1.6Y-5.2
X5.5Y-1.7
X5.5Y-2.0
X8.3Y-5.1
X8.3Y-5.2
X8.3Y-5.3
X8.3Y-5.4
X8.3Y-5.5
X8.3Y-5.6
X8.3Y-5.7
X8.3Y-5.8
X8.3Y-5.9
X8.6Y-5.1
X8.6Y-5.2
X8.6Y-5.3
X8.6Y-5.4
X8.6Y-5.5
X8.6Y-5.6
X8.6Y-5.7
X8.6Y-5.8
X8.6Y-5.9
X8.4Y-2.5
X8.4Y-2.8
X8.5Y-2.5
X8.5Y-2.8
X8.6Y-2.5
X8.6Y-2.8
X8.7Y-2.5
X8.7Y-2.8
X8.8Y-2.5
X8.8Y-2.8
X8.9Y-2.5
X8.9Y-2.8
X9.0Y-2.5
X9.0Y-2.8
X9.1Y-2.5
X9.1Y-2.8
X9.2Y-2.5
X9.2Y-2.8
X9.3Y-2.5
X9.3Y-2.8
X4.45Y-3.4
X4.65Y-3.4
X6.1Y-1.35
X6.1Y-1.55
X4.4Y-2.3
X4.7Y-2.3
X9.7Y-4.7
X9.7Y-5.0
X9.8Y-4.7
X9.8Y-5.0
X9.9Y-4.7
X9.9Y-5.0
X10.0Y-4.7
X10.0Y-5.0
X10.1Y-4.7
X10.1Y-5.0
X10.2Y-4.7
X10.2Y-5.0
X10.3Y-4.7
X10.3Y-5.0
X10.4Y-4.7
X10.4Y-5.0
X2.0Y-3.2
X2.1Y-3.2
X2.2Y-3.2
X2.3Y-3.2
X2.4Y-3.2
X2.5Y-3.2
X5.4Y-4.8
X5.4Y-4.9
X5.4Y-5.0
X5.4Y-5.1
X5.4Y-5.2
X5.4Y-5.3
X5.4Y-5.4
X5.7Y-4.8
X5.7Y-4.9
X5.7Y-5.0
X5.7Y-5.1
X5.7Y-5.2
X5.7Y-5.3
X5.7Y-5.4
X11.3Y-3.2
X11.3Y-3.3
X11.3Y-3.4
X11.3Y-3.5
X11.3Y-3.6
X11.3Y-3.7
X11.3Y-3.8
X11.3Y-3.9
X11.3Y-4.0
X11.3Y-4.1
X11.3Y-4.2
X11.3Y-4.3
X11.3Y-4.4
X11.3Y-4.5
X11.3Y-4.6
X11.3Y-4.7
X11.9Y-3.2
X11.9Y-3.3
X11.9Y-3.4
X11.9Y-3.5
X11.9Y-3.6
X11.9Y-3.7
X11.9Y-3.8
X11.9Y-3.9
X11.9Y-4.0
X11.9Y-4.1
X11.9Y-4.2
X11.9Y-4.3
X11.9Y-4.4
X11.9Y-4.5
X11.9Y-4.6
X11.9Y-4.7
X5.45Y-4.5
X5.65Y-4.5
X3.8Y-4.7
X3.8Y-4.8
X3.8Y-4.9
X3.8Y-5.0
X3.8Y-5.1
X3.8Y-5.2
X3.8Y-5.3
X3.8Y-5.4
X4.1Y-4.7
X4.1Y-4.8
X4.1Y-4.9
X4.1Y-5.0
X4.1Y-5.1
X4.1Y-5.2
X4.1Y-5.3
X4.1Y-5.4
X2.5Y-0.65
X2.5Y-0.95
X2.2Y-2.8
X2.2Y-3.0
X12.1Y-5.2
X12.4Y-5.2
X1.8Y-3.15
X1.8Y-3.35
X9.5Y-3.35
X9.5Y-3.55
X8.75Y-5.7
X8.75Y-6.0
X2.6Y-2.8
X2.6Y-3.1
X3.6Y-1.75
X3.6Y-1.95
X9.5Y-2.75
X9.5Y-2.95
X9.5Y-4.75
X9.5Y-4.95
X9.7Y-5.9
X9.7Y-6.2
X9.8Y-5.9
X9.8Y-6.2
X9.9Y-5.9
X9.9Y-6.2
X10.0Y-5.9
X10.0Y-6.2
X10.1Y-5.9
X10.1Y-6.2
X10.2Y-5.9
X10.2Y-6.2
X10.3Y-5.9
X10.3Y-6.2
X10.4Y-5.9
X10.4Y-6.2
X0.9Y-5.95
X1.1Y-5.95
X1.9Y-2.4
X1.9Y-2.7
X11.2Y-5.5
X11.2Y-5.7
X3.25Y-5.6
X3.45Y-5.6
X9.5Y-5.95
X9.5Y-6.15
X9.7Y-5.3
X9.7Y-5.6
X9.8Y-5.3
X9.8Y-5.6
X9.9Y-5.3
X9.9Y-5.6
X10.0Y-5.3
X10.0Y-5.6
X10.1Y-5.3
X10.1Y-5.6
X10.2Y-5.3
X10.2Y-5.6
X10.3Y-5.3
X10.3Y-5.6
X10.4Y-5.3
X10.4Y-5.6
X2.3Y-1.75
X2.3Y-2.05
X0.7Y-2.6
X0.7Y-2.9
X5.5Y-1.2
X5.5Y-1.5
X4.4Y-4.8
X4.4Y-4.9
X4.4Y-5.0
X4.4Y-5.1
X4.4Y-5.2
X4.4Y-5.3
X4.4Y-5.4
X4.7Y-4.8
X4.7Y-4.9
X4.7Y-5.0
X4.7Y-5.1
X4.7Y-5.2
X4.7Y-5.3
X4.7Y-5.4
X8.2Y-2.55
X8.2Y-2.75
X8.3Y-1.2
X8.3Y-1.5
X8.4Y-1.2
X8.4Y-1.5
X8.5Y-1.2
X8.5Y-1.5
X8.6Y-1.2
X8.6Y-1.5
X8.7Y-1.2
X8.7Y-1.5
X8.8Y-1.2
X8.8Y-1.5
X8.9Y-1.2
X8.9Y-1.5
X9.7Y-2.5
X9.8Y-2.5
X9.9Y-2.5
X10.0Y-2.5
X10.1Y-2.5
X10.2Y-2.5
X10.3Y-2.5
X10.4Y-2.5
X10.5Y-2.5
X10.6Y-2.5
X8.05Y-6.0
X8.05Y-6.2
X5.6Y-1.75
X5.6Y-1.95
X5.0Y-1.7
X5.0Y-2.0
X4.9Y-4.8
X4.9Y-4.9
X4.9Y-5.0
X4.9Y-5.1
X4.9Y-5.2
X4.9Y-5.3
X4.9Y-5.4
X5.2Y-4.8
X5.2Y-4.9
X5.2Y-5.0
X5.2Y-5.1
X5.2Y-5.2
X5.2Y-5.3
X5.2Y-5.4
X2.3Y-2.8
X2.3Y-3.0
X6.55Y-6.1
X6.75Y-6.1
X1.7Y-2.2
X1.8Y-2.2
X1.9Y-2.2
X2.1Y-5.8
X2.3Y-5.8
X5.4Y-1.7
X5.4Y-2.0
X8.9Y-3.2
X8.9Y-3.3
X8.9Y-3.4
X8.9Y-3.5
X8.9Y-3.6
X8.9Y-3.7
X8.9Y-3.8
X8.9Y-3.9
X8.9Y-4.0
X8.9Y-4.1
X9.2Y-3.2
X9.2Y-3.3
X9.2Y-3.4
X9.2Y-3.5
X9.2Y-3.6
X9.2Y-3.7
X9.2Y-3.8
X9.2Y-3.9
X9.2Y-4.0
X9.2Y-4.1
X6.6Y-1.7
X6.6Y-2.0
X8.3Y-3.2
X8.3Y-3.3
X8.3Y-3.4
X8.3Y-3.5
X8.3Y-3.6
X8.3Y-3.7
X8.3Y-3.8
X8.3Y-3.9
X8.3Y-4.0
X8.3Y-4.1
X8.6Y-3.2
X8.6Y-3.3
X8.6Y-3.4
X8.6Y-3.5
X8.6Y-3.6
X8.6Y-3.7
X8.6Y-3.8
X8.6Y-3.9
X8.6Y-4.0
X8.6Y-4.1
X2.5Y-2.8
X2.5Y-3.0
X8.35Y-6.1
X8.55Y-6.1
X7.0Y-1.2
X7.0Y-1.5
X7.1Y-1.2
X7.1Y-1.5
X7.2Y-1.2
X7.2Y-1.5
X7.3Y-1.2
X7.3Y-1.5
X7.4Y-1.2
X7.4Y-1.5
X7.5Y-1.2
X7.5Y-1.5
X7.6Y-1.2
X7.6Y-1.5
X7.7Y-1.2
X7.7Y-1.5
X7.8Y-1.2
X7.8Y-1.5
X7.9Y-1.2
X7.9Y-1.5
X0.8Y-5.5
X1.1Y-5.5
X7.7Y-5.0
X7.7Y-5.1
X7.7Y-5.2
X7.7Y-5.3
X7.7Y-5.4
X7.7Y-5.5
X7.7Y-5.6
X7.7Y-5.7
X8.0Y-5.0
X8.0Y-5.1
X8.0Y-5.2
X8.0Y-5.3
X8.0Y-5.4
X8.0Y-5.5
X8.0Y-5.6
X8.0Y-5.7
X5.8Y-1.7
X5.8Y-2.0
X5.9Y-1.7
X5.9Y-2.0
X6.0Y-1.7
X6.0Y-2.0
X6.1Y-1.7
X6.1Y-2.0
X3.7Y-4.5
X3.9Y-4.5
X5.4Y-2.6
X5.4Y-2.7
X5.4Y-2.8
X5.4Y-2.9
X5.4Y-3.0
X5.4Y-3.1
X5.4Y-3.2
X5.7Y-2.6
X5.7Y-2.7
X5.7Y-2.8
X5.7Y-2.9
X5.7Y-3.0
X5.7Y-3.1
X5.7Y-3.2
X2.1Y-1.75
X2.1Y-2.05
X5.4Y-3.7
X5.4Y-3.8
X5.4Y-3.9
X5.4Y-4.0
X5.4Y-4.1
X5.4Y-4.2
X5.4Y-4.3
X5.7Y-3.7
X5.7Y-3.8
X5.7Y-3.9
X5.7Y-4.0
X5.7Y-4.1
X5.7Y-4.2
X5.7Y-4.3
X7.75Y-5.9
X7.95Y-5.9
X2.9Y-1.75
X2.9Y-1.95
X5.9Y-2.6
X5.9Y-2.7
X5.9Y-2.8
X5.9Y-2.9
X5.9Y-3.0
X5.9Y-3.1
X5.9Y-3.2
X6.2Y-2.6
X6.2Y-2.7
X6.2Y-2.8
X6.2Y-2.9
X6.2Y-3.0
X6.2Y-3.1
X6.2Y-3.2
X3.0Y-1.7
X3.0Y-2.0
X9.7Y-3.3
X9.7Y-3.6
X9.8Y-3.3
X9.8Y-3.6
X9.9Y-3.3
X9.9Y-3.6
X10.0Y-3.3
X10.0Y-3.6
X10.1Y-3.3
X10.1Y-3.6
X10.2Y-3.3
X10.2Y-3.6
X10.3Y-3.3
X10.3Y-3.6
X10.4Y-3.3
X10.4Y-3.6
X10.5Y-3.3
X10.5Y-3.6
X10.6Y-3.3
X10.6Y-3.6
X8.95Y-4.3
X9.15Y-4.3
X4.95Y-4.5
X5.15Y-4.5
X10.7Y-5.1
X10.7Y-5.2
X10.7Y-5.3
X10.7Y-5.4
X10.7Y-5.5
X10.7Y-5.6
X10.7Y-5.7
X10.7Y-5.8
X11.0Y-5.1
X11.0Y-5.2
X11.0Y-5.3
X11.0Y-5.4
X11.0Y-5.5
X11.0Y-5.6
X11.0Y-5.7
X11.0Y-5.8
X6.6Y-1.2
X6.6Y-1.5
X0.8Y-2.1
X0.8Y-2.4
X0.9Y-2.1
X0.9Y-2.4
X1.0Y-2.1
X1.0Y-2.4
X1.1Y-2.1
X1.1Y-2.4
X1.2Y-2.1
X1.2Y-2.4
X1.3Y-2.1
X1.3Y-2.4
X1.4Y-2.1
X1.4Y-2.4
X4.45Y-5.6
X4.65Y-5.6
X12.2Y-3.2
X12.2Y-3.3
X12.2Y-3.4
X12.2Y-3.5
X12.2Y-3.6
X12.2Y-3.7
X12.2Y-3.8
X12.2Y-3.9
X12.2Y-4.0
X12.2Y-4.1
X12.2Y-4.2
X12.2Y-4.3
X12.2Y-4.4
X12.2Y-4.5
X12.2Y-4.6
X12.2Y-4.7
X12.8Y-3.2
X12.8Y-3.3
X12.8Y-3.4
X12.8Y-3.5
X12.8Y-3.6
X12.8Y-3.7
X12.8Y-3.8
X12.8Y-3.9
X12.8Y-4.0
X12.8Y-4.1
X12.8Y-4.2
X12.8Y-4.3
X12.8Y-4.4
X12.8Y-4.5
X12.8Y-4.6
X12.8Y-4.7
X8.35Y-4.3
X8.55Y-4.3
X1.0Y-2.6539
X1.0Y-2.8461
X1.2Y-2.65
X1.4Y-2.65
X5.0Y-2.3
X5.3Y-2.3
X0.8Y-3.1
X0.8Y-3.4
X0.9Y-3.1
X0.9Y-3.4
X1.0Y-3.1
X1.0Y-3.4
X1.1Y-3.1
X1.1Y-3.4
X1.2Y-3.1
X1.2Y-3.4
X1.3Y-3.1
X1.3Y-3.4
X1.4Y-3.1
X1.4Y-3.4
X1.5Y-3.1
X1.5Y-3.4
X1.6Y-3.1
X1.6Y-3.4
X3.0Y-2.8
X3.0Y-3.0
X5.45Y-5.6
X5.65Y-5.6
X3.5Y-1.7
X3.5Y-2.0
X5.0Y-2.1
X5.3Y-2.1
X7.15Y-5.9
X7.35Y-5.9
X7.65Y-1.9
X7.75Y-1.9
X7.85Y-1.9
X7.95Y-1.9
X8.05Y-1.9
X8.15Y-1.9
X8.25Y-1.9
X8.35Y-1.9
X8.45Y-1.9
X8.55Y-1.9
X0.6Y-4.35
X0.6Y-4.55
X12.3Y-2.5
X12.3Y-2.8
X12.4Y-2.5
X12.4Y-2.8
X12.5Y-2.5
X12.5Y-2.8
X12.6Y-2.5
X12.6Y-2.8
X12.7Y-2.5
X12.7Y-2.8
X12.8Y-2.5
X12.8Y-2.8
X12.9Y-2.5
X12.9Y-2.8
X13.0Y-2.5
X13.0Y-2.8
X13.1Y-2.5
X13.1Y-2.8
X13.2Y-2.5
X13.2Y-2.8
X5.0Y-2.2
X5.3Y-2.2
X0.8Y-5.35
X1.1Y-5.35
X2.8Y-2.8
X2.8Y-3.0
X12.85Y-6.0
X13.05Y-6.0
X12.1Y-2.55
X12.1Y-2.75
X0.8Y-3.7
X0.8Y-4.0
X0.9Y-3.7
X0.9Y-4.0
X1.0Y-3.7
X1.0Y-4.0
X1.1Y-3.7
X1.1Y-4.0
X1.2Y-3.7
X1.2Y-4.0
X1.3Y-3.7
X1.3Y-4.0
X1.4Y-3.7
X1.4Y-4.0
X1.5Y-3.7
X1.5Y-4.0
X1.6Y-3.7
X1.6Y-4.0
X7.6Y-4.8
X7.8Y-4.8
X2.9Y-3.8
X2.9Y-3.9
X2.9Y-4.0
X2.9Y-4.1
X2.9Y-4.2
X2.9Y-4.3
X2.9Y-4.4
X2.9Y-4.5
X2.9Y-4.6
X2.9Y-4.7
X2.7Y-2.8
X2.7Y-3.0
X1.8Y-2.4
X1.8Y-2.7
X6.6Y-0.6
X6.6Y-0.9
X6.6Y-1.0
X6.8Y-0.6
X6.8Y-0.9
X6.8Y-1.0
X2.6Y-1.75
X2.6Y-1.95
X2.7Y-4.6
X2.7Y-4.8
X11.5Y-4.9
X11.7Y-4.9
X7.45Y-6.1
X7.45Y-6.2
X7.65Y-6.1
X7.65Y-6.2
X1.3Y-5.5
X1.6Y-5.5
X8.9Y-5.2
X8.9Y-5.3
X8.9Y-5.4
X8.9Y-5.5
X8.9Y-5.6
X8.9Y-5.7
X8.9Y-5.8
X8.9Y-5.9
X9.2Y-5.2
X9.2Y-5.3
X9.2Y-5.4
X9.2Y-5.5
X9.2Y-5.6
X9.2Y-5.7
X9.2Y-5.8
X9.2Y-5.9
X4.9Y-1.75
X4.9Y-1.95
X1.5Y-0.65
X1.5Y-0.95
X2.2Y-1.75
X2.2Y-2.05
X4.9Y-2.6
X4.9Y-2.7
X4.9Y-2.8
X4.9Y-2.9
X4.9Y-3.0
X4.9Y-3.1
X4.9Y-3.2
X5.2Y-2.6
X5.2Y-2.7
X5.2Y-2.8
X5.2Y-2.9
X5.2Y-3.0
X5.2Y-3.1
X5.2Y-3.2
X4.45Y-4.5
X4.65Y-4.5
X5.95Y-4.8
X6.15Y-4.8
X4.4Y-2.2
X4.7Y-2.2
X4.4Y-4.6
X4.7Y-4.6
X7.4Y-2.7
X7.4Y-2.8
X7.4Y-2.9
X7.4Y-3.0
X7.4Y-3.1
X7.4Y-3.2
X7.4Y-3.3
X7.4Y-3.4
X7.4Y-3.5
X7.4Y-3.6
X7.4Y-3.7
X7.4Y-3.8
X7.4Y-3.9
X7.4Y-4.0
X7.4Y-4.1
X7.4Y-4.2
X7.4Y-4.3
X7.4Y-4.4
X7.4Y-4.5
X7.4Y-4.6
X8.0Y-2.7
X8.0Y-2.8
X8.0Y-2.9
X8.0Y-3.0
X8.0Y-3.1
X8.0Y-3.2
X8.0Y-3.3
X8.0Y-3.4
X8.0Y-3.5
X8.0Y-3.6
X8.0Y-3.7
X8.0Y-3.8
X8.0Y-3.9
X8.0Y-4.0
X8.0Y-4.1
X8.0Y-4.2
X8.0Y-4.3
X8.0Y-4.4
X8.0Y-4.5
X8.0Y-4.6
X4.2Y-1.75
X4.2Y-1.95
X1.4Y-0.65
X1.4Y-0.95
X6.5Y-2.7
X6.5Y-2.8
X6.5Y-2.9
X6.5Y-3.0
X6.5Y-3.1
X6.5Y-3.2
X6.5Y-3.3
X6.5Y-3.4
X6.5Y-3.5
X6.5Y-3.6
X6.5Y-3.7
X6.5Y-3.8
X6.5Y-3.9
X6.5Y-4.0
X6.5Y-4.1
X6.5Y-4.2
X6.5Y-4.3
X6.5Y-4.4
X6.5Y-4.5
X6.5Y-4.6
X7.1Y-2.7
X7.1Y-2.8
X7.1Y-2.9
X7.1Y-3.0
X7.1Y-3.1
X7.1Y-3.2
X7.1Y-3.3
X7.1Y-3.4
X7.1Y-3.5
X7.1Y-3.6
X7.1Y-3.7
X7.1Y-3.8
X7.1Y-3.9
X7.1Y-4.0
X7.1Y-4.1
X7.1Y-4.2
X7.1Y-4.3
X7.1Y-4.4
X7.1Y-4.5
X7.1Y-4.6
X2.0Y-5.9
X2.0Y-6.2
X0.6Y-3.75
X0.6Y-3.95
X3.2Y-4.7
X3.2Y-4.8
X3.2Y-4.9
X3.2Y-5.0
X3.2Y-5.1
X3.2Y-5.2
X3.2Y-5.3
X3.2Y-5.4
X3.5Y-4.7
X3.5Y-4.8
X3.5Y-4.9
X3.5Y-5.0
X3.5Y-5.1
X3.5Y-5.2
X3.5Y-5.3
X3.5Y-5.4
X3.8Y-1.7
X3.8Y-2.0
X10.75Y-4.85
X10.95Y-4.85
X4.95Y-3.4
X5.15Y-3.4
X5.7Y-1.5
X5.8Y-1.5
X5.9Y-1.5
X0.8Y-4.3
X0.8Y-4.6
X0.9Y-4.3
X0.9Y-4.6
X1.0Y-4.3
X1.0Y-4.6
X1.1Y-4.3
X1.1Y-4.6
X1.2Y-4.3
X1.2Y-4.6
X1.3Y-4.3
X1.3Y-4.6
X1.4Y-4.3
X1.4Y-4.6
X1.5Y-4.3
X1.5Y-4.6
X1.6Y-4.3
X1.6Y-4.6
X5.3Y-1.7
X5.3Y-2.0
X12.4Y-4.9
X12.6Y-4.9
X4.4Y-3.7
X4.4Y-3.8
X4.4Y-3.9
X4.4Y-4.0
X4.4Y-4.1
X4.4Y-4.2
X4.4Y-4.3
X4.7Y-3.7
X4.7Y-3.8
X4.7Y-3.9
X4.7Y-4.0
X4.7Y-4.1
X4.7Y-4.2
X4.7Y-4.3
X3.9Y-1.7
X3.9Y-2.0
X3.5Y-2.4
X3.5Y-2.5
X3.5Y-2.6
X3.5Y-2.7
X3.5Y-2.8
X3.5Y-2.9
X3.5Y-3.0
X3.5Y-3.1
X3.5Y-3.2
X3.5Y-3.3
X3.5Y-3.4
X3.5Y-3.5
X3.5Y-3.6
X3.5Y-3.7
X3.5Y-3.8
X3.5Y-3.9
X3.5Y-4.0
X3.5Y-4.1
X3.5Y-4.2
X3.5Y-4.3
X4.1Y-2.4
X4.1Y-2.5
X4.1Y-2.6
X4.1Y-2.7
X4.1Y-2.8
X4.1Y-2.9
X4.1Y-3.0
X4.1Y-3.1
X4.1Y-3.2
X4.1Y-3.3
X4.1Y-3.4
X4.1Y-3.5
X4.1Y-3.6
X4.1Y-3.7
X4.1Y-3.8
X4.1Y-3.9
X4.1Y-4.0
X4.1Y-4.1
X4.1Y-4.2
X4.1Y-4.3
X10.7Y-4.0
X10.7Y-4.1
X10.7Y-4.2
X10.7Y-4.3
X10.7Y-4.4
X10.7Y-4.5
X10.7Y-4.6
X11.0Y-4.0
X11.0Y-4.1
X11.0Y-4.2
X11.0Y-4.3
X11.0Y-4.4
X11.0Y-4.5
X11.0Y-4.6
X8.95Y-6.1
X9.15Y-6.1
X7.0Y-0.65
X7.0Y-0.95
X5.2Y-1.75
X5.2Y-1.95
X4.4Y-1.7
X4.4Y-2.0
X4.5Y-1.7
X4.5Y-2.0
X4.6Y-1.7
X4.6Y-2.0
X4.7Y-1.7
X4.7Y-2.0
X2.7Y-1.7
X2.7Y-2.0
X3.75Y-6.0
X3.85Y-6.0
X3.95Y-6.0
X4.05Y-6.0
X4.15Y-6.0
X4.25Y-6.0
X9.7Y-2.7
X9.7Y-3.0
X9.8Y-2.7
X9.8Y-3.0
X9.9Y-2.7
X9.9Y-3.0
X10.0Y-2.7
X10.0Y-3.0
X10.1Y-2.7
X10.1Y-3.0
X10.2Y-2.7
X10.2Y-3.0
X10.3Y-2.7
X10.3Y-3.0
X10.4Y-2.7
X10.4Y-3.0
X10.5Y-2.7
X10.5Y-3.0
X10.6Y-2.7
X10.6Y-3.0
X8.1Y-1.25
X8.1Y-1.45
X2.0Y-2.8
X2.0Y-3.0
X9.7Y-3.9
X9.7Y-4.2
X9.8Y-3.9
X9.8Y-4.2
X9.9Y-3.9
X9.9Y-4.2
X10.0Y-3.9
X10.0Y-4.2
X10.1Y-3.9
X10.1Y-4.2
X10.2Y-3.9
X10.2Y-4.2
X10.3Y-3.9
X10.3Y-4.2
X10.4Y-3.9
X10.4Y-4.2
X6.5Y-1.7
X6.5Y-2.0
X8.25Y-6.0
X8.25Y-6.2
X0.8Y-2.6
X0.8Y-2.9
X5.9Y-3.7
X5.9Y-3.8
X5.9Y-3.9
X5.9Y-4.0
X5.9Y-4.1
X5.9Y-4.2
X5.9Y-4.3
X5.9Y-4.4
X5.9Y-4.5
X5.9Y-4.6
X6.2Y-3.7
X6.2Y-3.8
X6.2Y-3.9
X6.2Y-4.0
X6.2Y-4.1
X6.2Y-4.2
X6.2Y-4.3
X6.2Y-4.4
X6.2Y-4.5
X6.2Y-4.6
X4.1Y-1.75
X4.1Y-1.95
X6.8Y-1.25
X6.8Y-1.45
X8.15Y-5.9
X8.15Y-6.2
X6.7Y-1.7
X6.7Y-2.0
X6.5Y-1.2
X6.5Y-1.5
X3.85Y-5.6
X4.05Y-5.6
X2.5Y-1.75
X2.5Y-2.05
X5.1Y-1.2
X5.1Y-1.5
X9.5Y-5.35
X9.5Y-5.55
X5.4Y-1.2
X5.4Y-1.5
X0.6Y-2.15
X0.6Y-2.35
X5.45Y-3.4
X5.65Y-3.4
X5.95Y-6.1
X6.15Y-6.1
X2.1Y-2.2
X2.1Y-2.6
X2.2Y-2.2
X2.2Y-2.6
X2.3Y-2.2
X2.3Y-2.6
X2.4Y-2.2
X2.4Y-2.6
X2.5Y-2.2
X2.5Y-2.6
X2.6Y-2.2
X2.6Y-2.6
X2.7Y-2.2
X2.7Y-2.6
X2.8Y-2.2
X2.8Y-2.6
X2.9Y-2.2
X2.9Y-2.6
X3.0Y-2.2
X3.0Y-2.6
X3.1Y-2.2
X3.1Y-2.6
X3.2Y-2.2
X3.2Y-2.6
X3.2Y-3.4
X3.2Y-3.5
X3.2Y-3.6
X3.2Y-3.7
X3.2Y-3.8
X3.2Y-3.9
X3.2Y-4.0
X3.2Y-4.1
X3.2Y-4.2
X3.2Y-4.3
X5.2Y-5.8
X5.4Y-5.8
X2.1Y-2.8
X2.1Y-3.0
X5.2Y-1.2
X5.2Y-1.5
X0.6Y-3.15
X0.6Y-3.35
X7.1Y-5.0
X7.1Y-5.1
X7.1Y-5.2
X7.1Y-5.3
X7.1Y-5.4
X7.1Y-5.5
X7.1Y-5.6
X7.1Y-5.7
X7.4Y-5.0
X7.4Y-5.1
X7.4Y-5.2
X7.4Y-5.3
X7.4Y-5.4
X7.4Y-5.5
X7.4Y-5.6
X7.4Y-5.7
X12.8Y-5.1
X12.8Y-5.2
X12.8Y-5.3
X12.8Y-5.4
X12.8Y-5.5
X12.8Y-5.6
X12.8Y-5.7
X12.8Y-5.8
X13.1Y-5.1
X13.1Y-5.2
X13.1Y-5.3
X13.1Y-5.4
X13.1Y-5.5
X13.1Y-5.6
X13.1Y-5.7
X13.1Y-5.8
X2.9Y-4.8
X2.9Y-4.9
X2.9Y-5.0
X2.9Y-5.1
X2.9Y-5.2
X2.9Y-5.3
X2.9Y-5.4
X2.9Y-5.5
X2.9Y-5.6
X2.9Y-5.7
X2.9Y-2.8
X2.9Y-3.0
X6.4Y-1.7
X6.4Y-2.0
X2.6Y-0.65
X2.6Y-0.95
X2.8Y-1.7
X2.8Y-2.0
X5.95Y-3.4
X6.15Y-3.4
X10.8Y-2.5
X10.8Y-2.7
X3.1Y-1.7
X3.1Y-2.0
X3.25Y-5.8
X3.35Y-5.8
X3.45Y-5.8
X3.55Y-5.8
X3.65Y-5.8
X3.75Y-5.8
X3.85Y-5.8
X3.95Y-5.8
X4.05Y-5.8
X4.15Y-5.8
X4.9Y-3.7
X4.9Y-3.8
X4.9Y-3.9
X4.9Y-4.0
X4.9Y-4.1
X4.9Y-4.2
X4.9Y-4.3
X5.2Y-3.7
X5.2Y-3.8
X5.2Y-3.9
X5.2Y-4.0
X5.2Y-4.1
X5.2Y-4.2
X5.2Y-4.3
X2.4Y-2.8
X2.4Y-3.0
T5
X3.8661Y-0.8346
X3.8661Y-0.9331
X4.1339Y-0.8346
X4.1339Y-0.9331
T6
X0.7Y-1.4
X0.8Y-1.4
X0.9Y-1.4
X1.0Y-1.4
X1.1Y-1.4
X1.2Y-1.4
X1.3Y-1.4
X1.4Y-1.4
X3.0Y-1.3016
X3.0Y-1.4984
X4.5Y-1.3016
X4.5Y-1.4984
X11.8Y-5.2
X11.9Y-5.2
X7.75Y-2.15
X7.75Y-2.25
X7.85Y-2.15
X7.85Y-2.25
X7.95Y-2.15
X7.95Y-2.25
X8.05Y-2.15
X8.05Y-2.25
X8.15Y-2.15
X8.15Y-2.25
X8.25Y-2.15
X8.25Y-2.25
X8.35Y-2.15
X8.35Y-2.25
X8.45Y-2.15
X8.45Y-2.25
X2.0Y-1.4016
X2.0Y-1.5984
X2.7Y-3.2
X2.8Y-3.2
X2.9Y-3.2
X13.3Y-3.2
X13.3Y-3.3
X13.3Y-3.4
X13.3Y-3.5
X13.3Y-3.6
X13.3Y-3.7
X13.3Y-3.8
X13.3Y-3.9
X13.3Y-4.0
X13.3Y-4.1
X13.3Y-4.2
X13.3Y-4.3
X13.3Y-4.4
X13.3Y-4.5
X13.3Y-4.6
X13.3Y-4.7
X13.3Y-4.8
X13.3Y-4.9
X13.3Y-5.0
X13.3Y-5.1
X13.4Y-3.2
X13.4Y-3.3
X13.4Y-3.4
X13.4Y-3.5
X13.4Y-3.6
X13.4Y-3.7
X13.4Y-3.8
X13.4Y-3.9
X13.4Y-4.0
X13.4Y-4.1
X13.4Y-4.2
X13.4Y-4.3
X13.4Y-4.4
X13.4Y-4.5
X13.4Y-4.6
X13.4Y-4.7
X13.4Y-4.8
X13.4Y-4.9
X13.4Y-5.0
X13.4Y-5.1
X11.3988Y-5.8
X12.1862Y-5.8
X3.1Y-3.2
X3.2Y-3.2
X3.3Y-3.2
X4.25Y-2.8
X4.25Y-2.9
X3.5Y-1.3016
X3.5Y-1.4984
X10.35Y-1.75
X10.35Y-1.95
X10.45Y-1.75
X10.45Y-1.95
X10.55Y-1.75
X10.55Y-1.95
X10.65Y-1.75
X10.65Y-1.95
X10.75Y-1.75
X10.75Y-1.95
X10.85Y-1.75
X10.85Y-1.95
X10.95Y-1.75
X10.95Y-1.95
X11.05Y-1.75
X11.05Y-1.95
X11.15Y-1.75
X11.15Y-1.95
X11.25Y-1.75
X11.25Y-1.95
X11.35Y-1.75
X11.35Y-1.95
X11.45Y-1.75
X11.45Y-1.95
X11.55Y-1.75
X11.55Y-1.95
X11.65Y-1.75
X11.65Y-1.95
X11.75Y-1.75
X11.75Y-1.95
X11.85Y-1.75
X11.85Y-1.95
X11.95Y-1.75
X11.95Y-1.95
X12.05Y-1.75
X12.05Y-1.95
X12.15Y-1.75
X12.15Y-1.95
X12.25Y-1.75
X12.25Y-1.95
X12.35Y-1.75
X12.35Y-1.95
X12.45Y-1.75
X12.45Y-1.95
X12.55Y-1.75
X12.55Y-1.95
X12.65Y-1.75
X12.65Y-1.95
X12.75Y-1.75
X12.75Y-1.95
X2.7Y-4.2
X2.7Y-4.3
X2.7Y-4.4
X2.5Y-1.3516
X2.5Y-1.5484
X10.35Y-0.85
X10.35Y-1.05
X10.45Y-0.85
X10.45Y-1.05
X10.55Y-0.85
X10.55Y-1.05
X10.65Y-0.85
X10.65Y-1.05
X10.75Y-0.85
X10.75Y-1.05
X10.85Y-0.85
X10.85Y-1.05
X10.95Y-0.85
X10.95Y-1.05
X11.05Y-0.85
X11.05Y-1.05
X11.15Y-0.85
X11.15Y-1.05
X11.25Y-0.85
X11.25Y-1.05
X11.35Y-0.85
X11.35Y-1.05
X11.45Y-0.85
X11.45Y-1.05
X11.55Y-0.85
X11.55Y-1.05
X11.65Y-0.85
X11.65Y-1.05
X11.75Y-0.85
X11.75Y-1.05
X11.85Y-0.85
X11.85Y-1.05
X11.95Y-0.85
X11.95Y-1.05
X12.05Y-0.85
X12.05Y-1.05
X12.15Y-0.85
X12.15Y-1.05
X12.25Y-0.85
X12.25Y-1.05
X12.35Y-0.85
X12.35Y-1.05
X12.45Y-0.85
X12.45Y-1.05
X12.55Y-0.85
X12.55Y-1.05
X12.65Y-0.85
X12.65Y-1.05
X12.75Y-0.85
X12.75Y-1.05
X3.05Y-4.2
X3.05Y-4.3
X3.05Y-4.4
X3.05Y-4.5
X3.05Y-4.6
X3.05Y-4.7
X3.05Y-4.8
X3.05Y-4.9
X3.05Y-5.0
X3.05Y-5.1
X3.05Y-5.2
X4.0Y-1.3016
X4.0Y-1.4984
X8.75Y-2.15
X8.75Y-2.25
X8.85Y-2.15
X8.85Y-2.25
T7
X2.784Y-5.969
X2.838Y-6.081
X2.892Y-5.969
X2.945Y-6.081
X3.0Y-5.969
X3.054Y-6.081
X3.108Y-5.969
X3.162Y-6.081
X3.216Y-5.969
X7.7449Y-0.8329
X7.7449Y-1.0018
X7.8299Y-0.8329
X7.8299Y-1.0018
X7.915Y-0.8329
X7.915Y-1.0018
X8.0Y-0.8329
X8.0Y-1.0018
X8.085Y-0.8329
X8.085Y-1.0018
X8.1701Y-0.8329
X8.1701Y-1.0018
X8.2551Y-0.8329
X8.2551Y-1.0018
X4.784Y-5.969
X4.838Y-6.081
X4.892Y-5.969
X4.945Y-6.081
X5.0Y-5.969
X5.054Y-6.081
X5.108Y-5.969
X5.162Y-6.081
X5.216Y-5.969
T8
X5.7047Y-1.0984
X5.8031Y-1.0
X5.9016Y-0.6063
X5.9016Y-1.0984
X6.0Y-1.0
X6.0Y-1.1969
X6.0984Y-0.6063
X6.0984Y-1.0984
X6.1969Y-1.0
X6.2953Y-1.0984
X1.7047Y-1.0984
X1.8031Y-1.0
X1.9016Y-0.6063
X1.9016Y-1.0984
X2.0Y-1.0
X2.0Y-1.1969
X2.0984Y-0.6063
X2.0984Y-1.0984
X2.1969Y-1.0
X2.2953Y-1.0984
T9
X7.75Y-6.1
X7.95Y-6.1
X0.9Y-5.75
X1.1Y-5.75
X1.2Y-2.85
X1.4Y-2.85
T10
X5.0Y-0.85
X3.0Y-0.85
T11
X3.7343Y-0.7165
X4.0Y-0.685
X4.2657Y-0.7165
T12
X5.7047Y-0.8031
X6.2953Y-0.8031
X1.7047Y-0.8031
X2.2953Y-0.8031
T13
X0.811Y-0.9306
X1.0Y-0.8125
T14
X4.8Y-0.85
X5.0Y-0.65
X5.2Y-0.85
X2.8Y-0.85
X3.0Y-0.65
X3.2Y-0.85
T15
X7.0Y-6.15
X1.7Y-1.75
X11.95Y-2.95
X10.0125Y-1.85
X1.7Y-6.15
X11.1Y-6.15
X13.1Y-4.425
X13.0875Y-0.95
X10.0125Y-0.95
X7.0Y-1.75
X13.0875Y-1.85
T16
X4.5081Y-6.025
X2.5081Y-6.025
X3.4919Y-6.025
X7.2913Y-0.9173
X8.7087Y-0.9173
X5.4919Y-6.025
T17
X1.0Y-1.0566
T0
M30
