G04 #@! TF.GenerationSoftware,KiCad,Pcbnew,(5.1.9)-1*
G04 #@! TF.CreationDate,2025-05-01T10:55:14-07:00*
G04 #@! TF.ProjectId,Omega-Mainboard,4f6d6567-612d-44d6-9169-6e626f617264,rev?*
G04 #@! TF.SameCoordinates,Original*
G04 #@! TF.FileFunction,Soldermask,Top*
G04 #@! TF.FilePolarity,Negative*
%FSLAX46Y46*%
G04 Gerber Fmt 4.6, Leading zero omitted, Abs format (unit mm)*
G04 Created by KiCad (PCBNEW (5.1.9)-1) date 2025-05-01 10:55:14*
%MOMM*%
%LPD*%
G01*
G04 APERTURE LIST*
%ADD10C,4.000500*%
%ADD11C,1.371600*%
%ADD12R,1.397000X1.397000*%
%ADD13C,1.397000*%
%ADD14R,1.016000X1.016000*%
%ADD15C,1.016000*%
%ADD16R,1.524000X1.524000*%
%ADD17C,1.524000*%
%ADD18C,4.064000*%
%ADD19C,2.971800*%
%ADD20C,2.300000*%
%ADD21C,4.000000*%
%ADD22C,4.048760*%
%ADD23R,1.490980X1.490980*%
%ADD24C,1.490980*%
%ADD25R,1.778000X1.778000*%
%ADD26C,1.778000*%
%ADD27C,1.998980*%
%ADD28C,4.500000*%
G04 APERTURE END LIST*
D10*
X108350000Y-18200000D03*
X94850000Y-18200000D03*
X101600000Y-17400000D03*
D11*
X98200000Y-21200000D03*
X105000000Y-21200000D03*
X105000000Y-23700000D03*
X98200000Y-23700000D03*
D12*
X213360000Y-76200000D03*
D13*
X215900000Y-76200000D03*
X218440000Y-76200000D03*
X220980000Y-76200000D03*
X223520000Y-76200000D03*
X226060000Y-76200000D03*
X228600000Y-76200000D03*
X231140000Y-76200000D03*
X233680000Y-76200000D03*
X236220000Y-76200000D03*
X66040000Y-49530000D03*
X66040000Y-44450000D03*
X63500000Y-44450000D03*
X63500000Y-52070000D03*
X50800000Y-149860000D03*
X50800000Y-157480000D03*
D14*
X65405000Y-144399000D03*
D15*
X65405000Y-142621000D03*
X65405000Y-140843000D03*
X65405000Y-139065000D03*
X65405000Y-137287000D03*
X65405000Y-135509000D03*
X65405000Y-133731000D03*
X65405000Y-131953000D03*
X65405000Y-130175000D03*
X65405000Y-128397000D03*
X65405000Y-126619000D03*
X65405000Y-124841000D03*
X65405000Y-123063000D03*
X65405000Y-121285000D03*
X65405000Y-119507000D03*
X65405000Y-117729000D03*
X65405000Y-115951000D03*
X65405000Y-114173000D03*
X65405000Y-112395000D03*
X65405000Y-110617000D03*
X65405000Y-108839000D03*
X65405000Y-107061000D03*
X65405000Y-105283000D03*
X65405000Y-103505000D03*
X65405000Y-101727000D03*
X65405000Y-99949000D03*
X65405000Y-98171000D03*
X65405000Y-96393000D03*
X65405000Y-94615000D03*
X65405000Y-92837000D03*
X65405000Y-91059000D03*
X65405000Y-89281000D03*
X46355000Y-89281000D03*
X46355000Y-91059000D03*
X46355000Y-92837000D03*
X46355000Y-94615000D03*
X46355000Y-96393000D03*
X46355000Y-98171000D03*
X46355000Y-99949000D03*
X46355000Y-101727000D03*
X46355000Y-103505000D03*
X46355000Y-105283000D03*
X46355000Y-107061000D03*
X46355000Y-108839000D03*
X46355000Y-110617000D03*
X46355000Y-112395000D03*
X46355000Y-114173000D03*
X46355000Y-115951000D03*
X46355000Y-117729000D03*
X46355000Y-119507000D03*
X46355000Y-121285000D03*
X46355000Y-123063000D03*
X46355000Y-124841000D03*
X46355000Y-126619000D03*
X46355000Y-128397000D03*
X46355000Y-130175000D03*
X46355000Y-131953000D03*
X46355000Y-133731000D03*
X46355000Y-135509000D03*
X46355000Y-137287000D03*
X46355000Y-139065000D03*
X46355000Y-140843000D03*
X46355000Y-142621000D03*
X46355000Y-144399000D03*
D16*
X196850000Y-57150000D03*
D17*
X196850000Y-54610000D03*
X199390000Y-57150000D03*
X199390000Y-54610000D03*
X201930000Y-57150000D03*
X201930000Y-54610000D03*
X204470000Y-57150000D03*
X204470000Y-54610000D03*
X207010000Y-57150000D03*
X207010000Y-54610000D03*
X209550000Y-57150000D03*
X209550000Y-54610000D03*
X212090000Y-57150000D03*
X212090000Y-54610000D03*
X214630000Y-57150000D03*
X214630000Y-54610000D03*
D18*
X76200000Y-16510000D03*
X81280000Y-21590000D03*
X71120000Y-21590000D03*
D19*
X76200000Y-21590000D03*
D13*
X38100000Y-16510000D03*
X38100000Y-24130000D03*
X35560000Y-16510000D03*
X35560000Y-24130000D03*
X63500000Y-16510000D03*
X63500000Y-24130000D03*
D20*
X53300000Y-15400000D03*
D21*
X58300000Y-20400000D03*
D20*
X48300000Y-15400000D03*
X58300000Y-27900000D03*
X48300000Y-27900000D03*
D21*
X43300000Y-20400000D03*
D20*
X55800000Y-25400000D03*
X53300000Y-27900000D03*
X50800000Y-30400000D03*
X43300000Y-27900000D03*
X45800000Y-25400000D03*
X50800000Y-25400000D03*
X154900000Y-15400000D03*
D21*
X159900000Y-20400000D03*
D20*
X149900000Y-15400000D03*
X159900000Y-27900000D03*
X149900000Y-27900000D03*
D21*
X144900000Y-20400000D03*
D20*
X157400000Y-25400000D03*
X154900000Y-27900000D03*
X152400000Y-30400000D03*
X144900000Y-27900000D03*
X147400000Y-25400000D03*
X152400000Y-25400000D03*
D17*
X209680000Y-21155000D03*
X207520000Y-21155000D03*
X205360000Y-21155000D03*
X201040000Y-21155000D03*
X198880000Y-21155000D03*
X196720000Y-21155000D03*
X203200000Y-21155000D03*
X209680000Y-25445000D03*
X207520000Y-25445000D03*
X205360000Y-25445000D03*
X203200000Y-25445000D03*
X201040000Y-25445000D03*
X198880000Y-25445000D03*
D16*
X196720000Y-25445000D03*
D22*
X185200000Y-23300000D03*
X221200000Y-23300000D03*
D13*
X160020000Y-43180000D03*
X160020000Y-50800000D03*
X162560000Y-50800000D03*
X162560000Y-43180000D03*
X165100000Y-50800000D03*
X165100000Y-43180000D03*
X170180000Y-50800000D03*
X170180000Y-43180000D03*
X142240000Y-44450000D03*
X142240000Y-49530000D03*
X167640000Y-43180000D03*
X167640000Y-50800000D03*
X134620000Y-50800000D03*
X134620000Y-43180000D03*
D12*
X147320000Y-50800000D03*
D13*
X149860000Y-50800000D03*
X152400000Y-50800000D03*
X154940000Y-50800000D03*
X154940000Y-43180000D03*
X152400000Y-43180000D03*
X149860000Y-43180000D03*
X147320000Y-43180000D03*
D12*
X172720000Y-25400000D03*
D13*
X172720000Y-22860000D03*
X172720000Y-15240000D03*
X167640000Y-15240000D03*
X167640000Y-22860000D03*
X167640000Y-25400000D03*
X71120000Y-43180000D03*
X71120000Y-50800000D03*
X111760000Y-137160000D03*
X111760000Y-134620000D03*
X111760000Y-132080000D03*
X111760000Y-129540000D03*
X111760000Y-127000000D03*
X111760000Y-124460000D03*
X111760000Y-121920000D03*
X119380000Y-121920000D03*
X119380000Y-124460000D03*
X119380000Y-127000000D03*
X119380000Y-129540000D03*
X119380000Y-132080000D03*
X119380000Y-134620000D03*
D12*
X119380000Y-137160000D03*
X132080000Y-137160000D03*
D13*
X132080000Y-134620000D03*
X132080000Y-132080000D03*
X132080000Y-129540000D03*
X132080000Y-127000000D03*
X132080000Y-124460000D03*
X132080000Y-121920000D03*
X124460000Y-121920000D03*
X124460000Y-124460000D03*
X124460000Y-127000000D03*
X124460000Y-129540000D03*
X124460000Y-132080000D03*
X124460000Y-134620000D03*
X124460000Y-137160000D03*
D12*
X132080000Y-81280000D03*
D13*
X132080000Y-78740000D03*
X132080000Y-76200000D03*
X132080000Y-73660000D03*
X132080000Y-71120000D03*
X132080000Y-68580000D03*
X132080000Y-66040000D03*
X124460000Y-66040000D03*
X124460000Y-68580000D03*
X124460000Y-71120000D03*
X124460000Y-73660000D03*
X124460000Y-76200000D03*
X124460000Y-78740000D03*
X124460000Y-81280000D03*
D12*
X218440000Y-104140000D03*
D13*
X218440000Y-101600000D03*
X218440000Y-99060000D03*
X218440000Y-96520000D03*
X218440000Y-93980000D03*
X218440000Y-91440000D03*
X218440000Y-88900000D03*
X218440000Y-86360000D03*
X218440000Y-83820000D03*
X218440000Y-81280000D03*
X210820000Y-81280000D03*
X210820000Y-83820000D03*
X210820000Y-86360000D03*
X210820000Y-88900000D03*
X210820000Y-91440000D03*
X210820000Y-93980000D03*
X210820000Y-96520000D03*
X210820000Y-99060000D03*
X210820000Y-101600000D03*
X210820000Y-104140000D03*
D12*
X180340000Y-116840000D03*
D13*
X180340000Y-114300000D03*
X180340000Y-111760000D03*
X180340000Y-109220000D03*
X180340000Y-106680000D03*
X180340000Y-104140000D03*
X180340000Y-101600000D03*
X180340000Y-99060000D03*
X180340000Y-96520000D03*
X180340000Y-93980000D03*
X180340000Y-91440000D03*
X180340000Y-88900000D03*
X180340000Y-86360000D03*
X180340000Y-83820000D03*
X180340000Y-81280000D03*
X180340000Y-78740000D03*
X180340000Y-76200000D03*
X180340000Y-73660000D03*
X180340000Y-71120000D03*
X180340000Y-68580000D03*
X165100000Y-68580000D03*
X165100000Y-71120000D03*
X165100000Y-73660000D03*
X165100000Y-76200000D03*
X165100000Y-78740000D03*
X165100000Y-81280000D03*
X165100000Y-83820000D03*
X165100000Y-86360000D03*
X165100000Y-88900000D03*
X165100000Y-91440000D03*
X165100000Y-93980000D03*
X165100000Y-96520000D03*
X165100000Y-99060000D03*
X165100000Y-101600000D03*
X165100000Y-104140000D03*
X165100000Y-106680000D03*
X165100000Y-109220000D03*
X165100000Y-111760000D03*
X165100000Y-114300000D03*
X165100000Y-116840000D03*
D12*
X213360000Y-71120000D03*
D13*
X215900000Y-71120000D03*
X218440000Y-71120000D03*
X220980000Y-71120000D03*
X223520000Y-71120000D03*
X226060000Y-71120000D03*
X228600000Y-71120000D03*
X231140000Y-71120000D03*
X233680000Y-71120000D03*
X236220000Y-71120000D03*
X236220000Y-63500000D03*
X233680000Y-63500000D03*
X231140000Y-63500000D03*
X228600000Y-63500000D03*
X226060000Y-63500000D03*
X223520000Y-63500000D03*
X220980000Y-63500000D03*
X218440000Y-63500000D03*
X215900000Y-63500000D03*
X213360000Y-63500000D03*
X227330000Y-109220000D03*
X232410000Y-109220000D03*
D17*
X262890000Y-26670000D03*
X262890000Y-21590000D03*
X265430000Y-26670000D03*
X265430000Y-21590000D03*
X267970000Y-26670000D03*
X267970000Y-21590000D03*
X270510000Y-26670000D03*
X270510000Y-21590000D03*
X273050000Y-26670000D03*
X273050000Y-21590000D03*
X275590000Y-26670000D03*
X275590000Y-21590000D03*
X278130000Y-26670000D03*
X278130000Y-21590000D03*
X280670000Y-26670000D03*
X280670000Y-21590000D03*
X283210000Y-26670000D03*
X283210000Y-21590000D03*
X285750000Y-26670000D03*
X285750000Y-21590000D03*
X288290000Y-26670000D03*
X288290000Y-21590000D03*
X290830000Y-26670000D03*
X290830000Y-21590000D03*
X293370000Y-26670000D03*
X293370000Y-21590000D03*
X295910000Y-26670000D03*
X295910000Y-21590000D03*
X298450000Y-26670000D03*
X298450000Y-21590000D03*
X300990000Y-26670000D03*
X300990000Y-21590000D03*
X303530000Y-26670000D03*
X303530000Y-21590000D03*
X306070000Y-26670000D03*
X306070000Y-21590000D03*
X308610000Y-26670000D03*
X308610000Y-21590000D03*
X311150000Y-26670000D03*
X311150000Y-21590000D03*
X313690000Y-26670000D03*
X313690000Y-21590000D03*
X316230000Y-26670000D03*
X316230000Y-21590000D03*
X318770000Y-26670000D03*
X318770000Y-21590000D03*
X321310000Y-26670000D03*
X321310000Y-21590000D03*
X323850000Y-26670000D03*
X323850000Y-21590000D03*
X72085200Y-154457400D03*
X74803000Y-154457400D03*
X77571600Y-154457400D03*
X80314800Y-154457400D03*
X81686400Y-151612600D03*
X78943200Y-151612600D03*
X76200000Y-151612600D03*
X73456800Y-151612600D03*
D16*
X70713600Y-151612600D03*
D22*
X88694260Y-153035000D03*
X63705740Y-153035000D03*
D12*
X302260000Y-119380000D03*
D13*
X302260000Y-116840000D03*
X302260000Y-114300000D03*
X302260000Y-111760000D03*
X302260000Y-109220000D03*
X302260000Y-106680000D03*
X302260000Y-104140000D03*
X302260000Y-101600000D03*
X302260000Y-99060000D03*
X302260000Y-96520000D03*
X302260000Y-93980000D03*
X302260000Y-91440000D03*
X302260000Y-88900000D03*
X302260000Y-86360000D03*
X302260000Y-83820000D03*
X302260000Y-81280000D03*
X287020000Y-81280000D03*
X287020000Y-83820000D03*
X287020000Y-86360000D03*
X287020000Y-88900000D03*
X287020000Y-91440000D03*
X287020000Y-93980000D03*
X287020000Y-96520000D03*
X287020000Y-99060000D03*
X287020000Y-101600000D03*
X287020000Y-104140000D03*
X287020000Y-106680000D03*
X287020000Y-109220000D03*
X287020000Y-111760000D03*
X287020000Y-114300000D03*
X287020000Y-116840000D03*
X287020000Y-119380000D03*
D12*
X325120000Y-119380000D03*
D13*
X325120000Y-116840000D03*
X325120000Y-114300000D03*
X325120000Y-111760000D03*
X325120000Y-109220000D03*
X325120000Y-106680000D03*
X325120000Y-104140000D03*
X325120000Y-101600000D03*
X325120000Y-99060000D03*
X325120000Y-96520000D03*
X325120000Y-93980000D03*
X325120000Y-91440000D03*
X325120000Y-88900000D03*
X325120000Y-86360000D03*
X325120000Y-83820000D03*
X325120000Y-81280000D03*
X309880000Y-81280000D03*
X309880000Y-83820000D03*
X309880000Y-86360000D03*
X309880000Y-88900000D03*
X309880000Y-91440000D03*
X309880000Y-93980000D03*
X309880000Y-96520000D03*
X309880000Y-99060000D03*
X309880000Y-101600000D03*
X309880000Y-104140000D03*
X309880000Y-106680000D03*
X309880000Y-109220000D03*
X309880000Y-111760000D03*
X309880000Y-114300000D03*
X309880000Y-116840000D03*
X309880000Y-119380000D03*
D12*
X279400000Y-69850000D03*
D13*
X281940000Y-69850000D03*
X284480000Y-69850000D03*
X287020000Y-69850000D03*
X289560000Y-69850000D03*
X292100000Y-69850000D03*
X294640000Y-69850000D03*
X297180000Y-69850000D03*
X299720000Y-69850000D03*
X302260000Y-69850000D03*
X302260000Y-62230000D03*
X299720000Y-62230000D03*
X297180000Y-62230000D03*
X294640000Y-62230000D03*
X292100000Y-62230000D03*
X289560000Y-62230000D03*
X287020000Y-62230000D03*
X284480000Y-62230000D03*
X281940000Y-62230000D03*
X279400000Y-62230000D03*
D17*
X289529520Y-147320000D03*
X309529480Y-147320000D03*
D13*
X271780000Y-116840000D03*
X271780000Y-114300000D03*
X271780000Y-111760000D03*
X271780000Y-109220000D03*
X271780000Y-106680000D03*
X271780000Y-104140000D03*
X271780000Y-101600000D03*
X279400000Y-101600000D03*
X279400000Y-104140000D03*
X279400000Y-106680000D03*
X279400000Y-109220000D03*
X279400000Y-111760000D03*
X279400000Y-114300000D03*
D12*
X279400000Y-116840000D03*
D13*
X273050000Y-123190000D03*
X278130000Y-123190000D03*
D12*
X246380000Y-76200000D03*
D13*
X248920000Y-76200000D03*
X251460000Y-76200000D03*
X254000000Y-76200000D03*
X256540000Y-76200000D03*
X259080000Y-76200000D03*
X261620000Y-76200000D03*
X264160000Y-76200000D03*
X266700000Y-76200000D03*
X269240000Y-76200000D03*
X269240000Y-68580000D03*
X266700000Y-68580000D03*
X264160000Y-68580000D03*
X261620000Y-68580000D03*
X259080000Y-68580000D03*
X256540000Y-68580000D03*
X254000000Y-68580000D03*
X251460000Y-68580000D03*
X248920000Y-68580000D03*
X246380000Y-68580000D03*
D12*
X246380000Y-91440000D03*
D13*
X248920000Y-91440000D03*
X251460000Y-91440000D03*
X254000000Y-91440000D03*
X256540000Y-91440000D03*
X259080000Y-91440000D03*
X261620000Y-91440000D03*
X264160000Y-91440000D03*
X266700000Y-91440000D03*
X269240000Y-91440000D03*
X269240000Y-83820000D03*
X266700000Y-83820000D03*
X264160000Y-83820000D03*
X261620000Y-83820000D03*
X259080000Y-83820000D03*
X256540000Y-83820000D03*
X254000000Y-83820000D03*
X251460000Y-83820000D03*
X248920000Y-83820000D03*
X246380000Y-83820000D03*
D12*
X218440000Y-149860000D03*
D13*
X218440000Y-147320000D03*
X218440000Y-144780000D03*
X218440000Y-142240000D03*
X218440000Y-139700000D03*
X218440000Y-137160000D03*
X218440000Y-134620000D03*
X218440000Y-132080000D03*
X218440000Y-129540000D03*
X210820000Y-129540000D03*
X210820000Y-132080000D03*
X210820000Y-134620000D03*
X210820000Y-137160000D03*
X210820000Y-139700000D03*
X210820000Y-142240000D03*
X210820000Y-144780000D03*
X210820000Y-147320000D03*
X210820000Y-149860000D03*
D12*
X132080000Y-109220000D03*
D13*
X132080000Y-106680000D03*
X132080000Y-104140000D03*
X132080000Y-101600000D03*
X132080000Y-99060000D03*
X132080000Y-96520000D03*
X132080000Y-93980000D03*
X124460000Y-93980000D03*
X124460000Y-96520000D03*
X124460000Y-99060000D03*
X124460000Y-101600000D03*
X124460000Y-104140000D03*
X124460000Y-106680000D03*
X124460000Y-109220000D03*
D12*
X104140000Y-109220000D03*
D13*
X104140000Y-106680000D03*
X104140000Y-104140000D03*
X104140000Y-101600000D03*
X104140000Y-99060000D03*
X104140000Y-96520000D03*
X104140000Y-93980000D03*
X104140000Y-91440000D03*
X104140000Y-88900000D03*
X104140000Y-86360000D03*
X104140000Y-83820000D03*
X104140000Y-81280000D03*
X104140000Y-78740000D03*
X104140000Y-76200000D03*
X104140000Y-73660000D03*
X104140000Y-71120000D03*
X104140000Y-68580000D03*
X104140000Y-66040000D03*
X104140000Y-63500000D03*
X104140000Y-60960000D03*
X88900000Y-60960000D03*
X88900000Y-63500000D03*
X88900000Y-66040000D03*
X88900000Y-68580000D03*
X88900000Y-71120000D03*
X88900000Y-73660000D03*
X88900000Y-76200000D03*
X88900000Y-78740000D03*
X88900000Y-81280000D03*
X88900000Y-83820000D03*
X88900000Y-86360000D03*
X88900000Y-88900000D03*
X88900000Y-91440000D03*
X88900000Y-93980000D03*
X88900000Y-96520000D03*
X88900000Y-99060000D03*
X88900000Y-101600000D03*
X88900000Y-104140000D03*
X88900000Y-106680000D03*
X88900000Y-109220000D03*
D12*
X144780000Y-137160000D03*
D13*
X144780000Y-134620000D03*
X144780000Y-132080000D03*
X144780000Y-129540000D03*
X144780000Y-127000000D03*
X144780000Y-124460000D03*
X144780000Y-121920000D03*
X137160000Y-121920000D03*
X137160000Y-124460000D03*
X137160000Y-127000000D03*
X137160000Y-129540000D03*
X137160000Y-132080000D03*
X137160000Y-134620000D03*
X137160000Y-137160000D03*
D12*
X20320000Y-60960000D03*
D13*
X22860000Y-60960000D03*
X25400000Y-60960000D03*
X27940000Y-60960000D03*
X30480000Y-60960000D03*
X33020000Y-60960000D03*
X35560000Y-60960000D03*
X35560000Y-53340000D03*
X33020000Y-53340000D03*
X30480000Y-53340000D03*
X27940000Y-53340000D03*
X25400000Y-53340000D03*
X22860000Y-53340000D03*
X20320000Y-53340000D03*
X137160000Y-109220000D03*
X137160000Y-106680000D03*
X137160000Y-104140000D03*
X137160000Y-101600000D03*
X137160000Y-99060000D03*
X137160000Y-96520000D03*
X137160000Y-93980000D03*
X144780000Y-93980000D03*
X144780000Y-96520000D03*
X144780000Y-99060000D03*
X144780000Y-101600000D03*
X144780000Y-104140000D03*
X144780000Y-106680000D03*
D12*
X144780000Y-109220000D03*
X157480000Y-116840000D03*
D13*
X157480000Y-114300000D03*
X157480000Y-111760000D03*
X157480000Y-109220000D03*
X157480000Y-106680000D03*
X157480000Y-104140000D03*
X157480000Y-101600000D03*
X157480000Y-99060000D03*
X157480000Y-96520000D03*
X157480000Y-93980000D03*
X149860000Y-93980000D03*
X149860000Y-96520000D03*
X149860000Y-99060000D03*
X149860000Y-101600000D03*
X149860000Y-104140000D03*
X149860000Y-106680000D03*
X149860000Y-109220000D03*
X149860000Y-111760000D03*
X149860000Y-114300000D03*
X149860000Y-116840000D03*
D12*
X203200000Y-116840000D03*
D13*
X203200000Y-114300000D03*
X203200000Y-111760000D03*
X203200000Y-109220000D03*
X203200000Y-106680000D03*
X203200000Y-104140000D03*
X203200000Y-101600000D03*
X203200000Y-99060000D03*
X203200000Y-96520000D03*
X203200000Y-93980000D03*
X203200000Y-91440000D03*
X203200000Y-88900000D03*
X203200000Y-86360000D03*
X203200000Y-83820000D03*
X203200000Y-81280000D03*
X203200000Y-78740000D03*
X203200000Y-76200000D03*
X203200000Y-73660000D03*
X203200000Y-71120000D03*
X203200000Y-68580000D03*
X187960000Y-68580000D03*
X187960000Y-71120000D03*
X187960000Y-73660000D03*
X187960000Y-76200000D03*
X187960000Y-78740000D03*
X187960000Y-81280000D03*
X187960000Y-83820000D03*
X187960000Y-86360000D03*
X187960000Y-88900000D03*
X187960000Y-91440000D03*
X187960000Y-93980000D03*
X187960000Y-96520000D03*
X187960000Y-99060000D03*
X187960000Y-101600000D03*
X187960000Y-104140000D03*
X187960000Y-106680000D03*
X187960000Y-109220000D03*
X187960000Y-111760000D03*
X187960000Y-114300000D03*
X187960000Y-116840000D03*
D12*
X233680000Y-104140000D03*
D13*
X233680000Y-101600000D03*
X233680000Y-99060000D03*
X233680000Y-96520000D03*
X233680000Y-93980000D03*
X233680000Y-91440000D03*
X233680000Y-88900000D03*
X233680000Y-86360000D03*
X233680000Y-83820000D03*
X233680000Y-81280000D03*
X226060000Y-81280000D03*
X226060000Y-83820000D03*
X226060000Y-86360000D03*
X226060000Y-88900000D03*
X226060000Y-91440000D03*
X226060000Y-93980000D03*
X226060000Y-96520000D03*
X226060000Y-99060000D03*
X226060000Y-101600000D03*
X226060000Y-104140000D03*
D12*
X20320000Y-86360000D03*
D13*
X22860000Y-86360000D03*
X25400000Y-86360000D03*
X27940000Y-86360000D03*
X30480000Y-86360000D03*
X33020000Y-86360000D03*
X35560000Y-86360000D03*
X38100000Y-86360000D03*
X40640000Y-86360000D03*
X40640000Y-78740000D03*
X38100000Y-78740000D03*
X35560000Y-78740000D03*
X33020000Y-78740000D03*
X30480000Y-78740000D03*
X27940000Y-78740000D03*
X25400000Y-78740000D03*
X22860000Y-78740000D03*
X20320000Y-78740000D03*
D12*
X233680000Y-149860000D03*
D13*
X233680000Y-147320000D03*
X233680000Y-144780000D03*
X233680000Y-142240000D03*
X233680000Y-139700000D03*
X233680000Y-137160000D03*
X233680000Y-134620000D03*
X233680000Y-132080000D03*
X226060000Y-132080000D03*
X226060000Y-134620000D03*
X226060000Y-137160000D03*
X226060000Y-139700000D03*
X226060000Y-142240000D03*
X226060000Y-144780000D03*
X226060000Y-147320000D03*
X226060000Y-149860000D03*
D12*
X203200000Y-144780000D03*
D13*
X203200000Y-142240000D03*
X203200000Y-139700000D03*
X203200000Y-137160000D03*
X203200000Y-134620000D03*
X203200000Y-132080000D03*
X203200000Y-129540000D03*
X203200000Y-127000000D03*
X195580000Y-127000000D03*
X195580000Y-129540000D03*
X195580000Y-132080000D03*
X195580000Y-134620000D03*
X195580000Y-137160000D03*
X195580000Y-139700000D03*
X195580000Y-142240000D03*
X195580000Y-144780000D03*
D12*
X157480000Y-149860000D03*
D13*
X157480000Y-147320000D03*
X157480000Y-144780000D03*
X157480000Y-142240000D03*
X157480000Y-139700000D03*
X157480000Y-137160000D03*
X157480000Y-134620000D03*
X157480000Y-132080000D03*
X157480000Y-129540000D03*
X157480000Y-127000000D03*
X149860000Y-127000000D03*
X149860000Y-129540000D03*
X149860000Y-132080000D03*
X149860000Y-134620000D03*
X149860000Y-137160000D03*
X149860000Y-139700000D03*
X149860000Y-142240000D03*
X149860000Y-144780000D03*
X149860000Y-147320000D03*
X149860000Y-149860000D03*
D22*
X114505740Y-153035000D03*
X139494260Y-153035000D03*
D16*
X121513600Y-151612600D03*
D17*
X124256800Y-151612600D03*
X127000000Y-151612600D03*
X129743200Y-151612600D03*
X132486400Y-151612600D03*
X131114800Y-154457400D03*
X128371600Y-154457400D03*
X125603000Y-154457400D03*
X122885200Y-154457400D03*
D12*
X172720000Y-149860000D03*
D13*
X172720000Y-147320000D03*
X172720000Y-144780000D03*
X172720000Y-142240000D03*
X172720000Y-139700000D03*
X172720000Y-137160000D03*
X172720000Y-134620000D03*
X172720000Y-132080000D03*
X172720000Y-129540000D03*
X172720000Y-127000000D03*
X165100000Y-127000000D03*
X165100000Y-129540000D03*
X165100000Y-132080000D03*
X165100000Y-134620000D03*
X165100000Y-137160000D03*
X165100000Y-139700000D03*
X165100000Y-142240000D03*
X165100000Y-144780000D03*
X165100000Y-147320000D03*
X165100000Y-149860000D03*
D23*
X163560760Y-58420000D03*
D24*
X161559240Y-58420000D03*
D12*
X332740000Y-147320000D03*
D13*
X332740000Y-144780000D03*
X332740000Y-142240000D03*
X332740000Y-139700000D03*
X332740000Y-137160000D03*
X332740000Y-134620000D03*
X332740000Y-132080000D03*
X332740000Y-129540000D03*
X325120000Y-129540000D03*
X325120000Y-132080000D03*
X325120000Y-134620000D03*
X325120000Y-137160000D03*
X325120000Y-139700000D03*
X325120000Y-142240000D03*
X325120000Y-144780000D03*
X325120000Y-147320000D03*
D17*
X323850000Y-44450000D03*
X323850000Y-49530000D03*
X321310000Y-44450000D03*
X321310000Y-49530000D03*
X318770000Y-44450000D03*
X318770000Y-49530000D03*
X316230000Y-44450000D03*
X316230000Y-49530000D03*
X313690000Y-44450000D03*
X313690000Y-49530000D03*
X311150000Y-44450000D03*
X311150000Y-49530000D03*
X308610000Y-44450000D03*
X308610000Y-49530000D03*
X306070000Y-44450000D03*
X306070000Y-49530000D03*
X303530000Y-44450000D03*
X303530000Y-49530000D03*
X300990000Y-44450000D03*
X300990000Y-49530000D03*
X298450000Y-44450000D03*
X298450000Y-49530000D03*
X295910000Y-44450000D03*
X295910000Y-49530000D03*
X293370000Y-44450000D03*
X293370000Y-49530000D03*
X290830000Y-44450000D03*
X290830000Y-49530000D03*
X288290000Y-44450000D03*
X288290000Y-49530000D03*
X285750000Y-44450000D03*
X285750000Y-49530000D03*
X283210000Y-44450000D03*
X283210000Y-49530000D03*
X280670000Y-44450000D03*
X280670000Y-49530000D03*
X278130000Y-44450000D03*
X278130000Y-49530000D03*
X275590000Y-44450000D03*
X275590000Y-49530000D03*
X273050000Y-44450000D03*
X273050000Y-49530000D03*
X270510000Y-44450000D03*
X270510000Y-49530000D03*
X267970000Y-44450000D03*
X267970000Y-49530000D03*
X265430000Y-44450000D03*
X265430000Y-49530000D03*
X262890000Y-44450000D03*
X262890000Y-49530000D03*
D13*
X78740000Y-43180000D03*
X78740000Y-50800000D03*
D18*
X43180000Y-44450000D03*
X177800000Y-44450000D03*
X303530000Y-74930000D03*
X43180000Y-156210000D03*
X177800000Y-156210000D03*
X281940000Y-156210000D03*
X332740000Y-112395000D03*
D13*
X175260000Y-121920000D03*
X170180000Y-121920000D03*
X193040000Y-121920000D03*
X198120000Y-121920000D03*
X53340000Y-147320000D03*
X58420000Y-147320000D03*
X93980000Y-114300000D03*
X99060000Y-114300000D03*
X212090000Y-154940000D03*
X217170000Y-154940000D03*
X292100000Y-124460000D03*
X297180000Y-124460000D03*
X314960000Y-124460000D03*
X320040000Y-124460000D03*
X15240000Y-85090000D03*
X15240000Y-80010000D03*
X15240000Y-115570000D03*
X15240000Y-110490000D03*
X15240000Y-100330000D03*
X15240000Y-95250000D03*
X15240000Y-130810000D03*
X15240000Y-125730000D03*
X151130000Y-121920000D03*
X156210000Y-121920000D03*
X151130000Y-154940000D03*
X156210000Y-154940000D03*
X166370000Y-154940000D03*
X171450000Y-154940000D03*
X241300000Y-100330000D03*
X241300000Y-105410000D03*
X241300000Y-135890000D03*
X241300000Y-140970000D03*
X241300000Y-120650000D03*
X241300000Y-125730000D03*
X241300000Y-151130000D03*
X241300000Y-156210000D03*
X274320000Y-63500000D03*
X274320000Y-68580000D03*
X307340000Y-64770000D03*
X307340000Y-69850000D03*
X208280000Y-64770000D03*
X208280000Y-69850000D03*
X212090000Y-109220000D03*
X217170000Y-109220000D03*
X172720000Y-31750000D03*
X172720000Y-36830000D03*
X241300000Y-69850000D03*
X241300000Y-74930000D03*
X241300000Y-85090000D03*
X241300000Y-90170000D03*
X227330000Y-154940000D03*
X232410000Y-154940000D03*
X82550000Y-142240000D03*
X87630000Y-142240000D03*
X97790000Y-142240000D03*
X102870000Y-142240000D03*
X196850000Y-149860000D03*
X201930000Y-149860000D03*
X181610000Y-149860000D03*
X186690000Y-149860000D03*
X326390000Y-152400000D03*
X331470000Y-152400000D03*
X205740000Y-31750000D03*
X205740000Y-36830000D03*
X138430000Y-86360000D03*
X143510000Y-86360000D03*
X125730000Y-86360000D03*
X130810000Y-86360000D03*
X113030000Y-86360000D03*
X118110000Y-86360000D03*
X138430000Y-142240000D03*
X143510000Y-142240000D03*
X125730000Y-142240000D03*
X130810000Y-142240000D03*
X125730000Y-114300000D03*
X130810000Y-114300000D03*
X138430000Y-114300000D03*
X143510000Y-114300000D03*
X113030000Y-142240000D03*
X118110000Y-142240000D03*
X15240000Y-54610000D03*
X15240000Y-59690000D03*
X113030000Y-114300000D03*
X118110000Y-114300000D03*
X151130000Y-86360000D03*
X156210000Y-86360000D03*
X284480000Y-144780000D03*
X284480000Y-139700000D03*
X81280000Y-71120000D03*
X81280000Y-76200000D03*
X104140000Y-44450000D03*
X104140000Y-49530000D03*
X60960000Y-76200000D03*
X60960000Y-71120000D03*
X58420000Y-76200000D03*
X58420000Y-71120000D03*
X63500000Y-76200000D03*
X63500000Y-71120000D03*
X71120000Y-71120000D03*
X71120000Y-76200000D03*
X91440000Y-49530000D03*
X91440000Y-44450000D03*
X45720000Y-80010000D03*
X45720000Y-85090000D03*
D25*
X88900000Y-38059360D03*
D26*
X88900000Y-33060640D03*
D25*
X114300000Y-38059360D03*
D26*
X114300000Y-33060640D03*
D25*
X101600000Y-38059360D03*
D26*
X101600000Y-33060640D03*
D25*
X50800000Y-40599360D03*
D26*
X50800000Y-35600640D03*
D25*
X76200000Y-38059360D03*
D26*
X76200000Y-33060640D03*
D25*
X63500000Y-39329360D03*
D26*
X63500000Y-34330640D03*
D23*
X20320000Y-45700000D03*
D24*
X20320000Y-43200000D03*
D23*
X27940000Y-45700000D03*
D24*
X27940000Y-43200000D03*
D23*
X35560000Y-45700000D03*
D24*
X35560000Y-43200000D03*
D23*
X161020760Y-38100000D03*
D24*
X159019240Y-38100000D03*
D23*
X96520000Y-55610760D03*
D24*
X96520000Y-53609240D03*
D23*
X140700760Y-58420000D03*
D24*
X138699240Y-58420000D03*
D23*
X155940760Y-58420000D03*
D24*
X153939240Y-58420000D03*
D23*
X124460000Y-35290760D03*
D24*
X124460000Y-33289240D03*
X83820000Y-48529240D03*
D23*
X83820000Y-50530760D03*
D24*
X146319240Y-58420000D03*
D23*
X148320760Y-58420000D03*
D13*
X132080000Y-44450000D03*
X132080000Y-49530000D03*
X154940000Y-34290000D03*
X154940000Y-39370000D03*
X124460000Y-49530000D03*
X124460000Y-44450000D03*
X106680000Y-49530000D03*
X106680000Y-44450000D03*
X53340000Y-76200000D03*
X53340000Y-71120000D03*
X55880000Y-76200000D03*
X55880000Y-71120000D03*
X50800000Y-76200000D03*
X50800000Y-71120000D03*
X73660000Y-71120000D03*
X73660000Y-76200000D03*
X209550000Y-157480000D03*
X209550000Y-152400000D03*
X204470000Y-152400000D03*
X204470000Y-157480000D03*
D27*
X22860000Y-146050000D03*
X27940000Y-146050000D03*
X35560000Y-72390000D03*
X30480000Y-72390000D03*
D13*
X22860000Y-151130000D03*
X27940000Y-151130000D03*
X35560000Y-67310000D03*
X30480000Y-67310000D03*
X73660000Y-49530000D03*
X73660000Y-44450000D03*
X68580000Y-71120000D03*
X68580000Y-76200000D03*
X177800000Y-16510000D03*
D12*
X177800000Y-24130000D03*
D18*
X254317500Y-24130000D03*
X332422500Y-24130000D03*
X254317500Y-46990000D03*
X332422500Y-46990000D03*
D21*
X25400000Y-20637500D03*
D28*
X25400000Y-26837640D03*
D21*
X20599400Y-23637240D03*
D16*
X17780000Y-35560000D03*
D17*
X20320000Y-35560000D03*
X22860000Y-35560000D03*
X25400000Y-35560000D03*
X27940000Y-35560000D03*
X30480000Y-35560000D03*
X33020000Y-35560000D03*
X35560000Y-35560000D03*
D16*
X340360000Y-129540000D03*
D17*
X337820000Y-129540000D03*
X340360000Y-127000000D03*
X337820000Y-127000000D03*
X340360000Y-124460000D03*
X337820000Y-124460000D03*
X340360000Y-121920000D03*
X337820000Y-121920000D03*
X340360000Y-119380000D03*
X337820000Y-119380000D03*
X340360000Y-116840000D03*
X337820000Y-116840000D03*
X340360000Y-114300000D03*
X337820000Y-114300000D03*
X340360000Y-111760000D03*
X337820000Y-111760000D03*
X340360000Y-109220000D03*
X337820000Y-109220000D03*
X340360000Y-106680000D03*
X337820000Y-106680000D03*
X340360000Y-104140000D03*
X337820000Y-104140000D03*
X340360000Y-101600000D03*
X337820000Y-101600000D03*
X340360000Y-99060000D03*
X337820000Y-99060000D03*
X337820000Y-96520000D03*
X340360000Y-96520000D03*
X337820000Y-93980000D03*
X340360000Y-93980000D03*
X340360000Y-91440000D03*
X337820000Y-91440000D03*
X340360000Y-88900000D03*
X337820000Y-88900000D03*
X340360000Y-86360000D03*
X337820000Y-86360000D03*
X340360000Y-83820000D03*
X337820000Y-83820000D03*
X340360000Y-81280000D03*
X337820000Y-81280000D03*
D16*
X299720000Y-132080000D03*
D17*
X302260000Y-132080000D03*
D16*
X107950000Y-73660000D03*
D17*
X107950000Y-71120000D03*
D16*
X68580000Y-111760000D03*
D17*
X68580000Y-109220000D03*
X68580000Y-106680000D03*
D16*
X78740000Y-81280000D03*
D17*
X81280000Y-81280000D03*
X83820000Y-81280000D03*
D16*
X68580000Y-81280000D03*
D17*
X71120000Y-81280000D03*
X73660000Y-81280000D03*
D12*
X144780000Y-38100000D03*
D13*
X147320000Y-38100000D03*
X149860000Y-38100000D03*
X17780000Y-66040000D03*
X17780000Y-73660000D03*
X38100000Y-152400000D03*
X38100000Y-144780000D03*
X207010000Y-149860000D03*
X207010000Y-157480000D03*
X222250000Y-144780000D03*
X222250000Y-152400000D03*
X88900000Y-50800000D03*
X88900000Y-43180000D03*
X129540000Y-30480000D03*
X129540000Y-38100000D03*
X68580000Y-50800000D03*
X68580000Y-43180000D03*
X127000000Y-58420000D03*
X134620000Y-58420000D03*
X307340000Y-132080000D03*
X314960000Y-132080000D03*
X127000000Y-50800000D03*
X127000000Y-43180000D03*
X127000000Y-55880000D03*
X134620000Y-55880000D03*
X127000000Y-53340000D03*
X134620000Y-53340000D03*
X137160000Y-50800000D03*
X137160000Y-43180000D03*
X137160000Y-38100000D03*
X137160000Y-30480000D03*
X167640000Y-30480000D03*
X167640000Y-38100000D03*
X165100000Y-38100000D03*
X165100000Y-30480000D03*
X45720000Y-60960000D03*
X45720000Y-68580000D03*
X66040000Y-71120000D03*
X66040000Y-78740000D03*
X99060000Y-43180000D03*
X99060000Y-50800000D03*
X119380000Y-116840000D03*
X111760000Y-116840000D03*
X20320000Y-73660000D03*
X20320000Y-66040000D03*
X139700000Y-50800000D03*
X139700000Y-43180000D03*
X96520000Y-50800000D03*
X96520000Y-43180000D03*
X48260000Y-68580000D03*
X48260000Y-60960000D03*
X66040000Y-24130000D03*
X66040000Y-16510000D03*
X33020000Y-135890000D03*
X40640000Y-135890000D03*
X20320000Y-139700000D03*
X27940000Y-139700000D03*
X20320000Y-135890000D03*
X27940000Y-135890000D03*
X33020000Y-139700000D03*
X40640000Y-139700000D03*
X132080000Y-38100000D03*
X132080000Y-30480000D03*
X139700000Y-30480000D03*
X139700000Y-38100000D03*
X60960000Y-44450000D03*
X60960000Y-52070000D03*
X76200000Y-43180000D03*
X76200000Y-50800000D03*
X53340000Y-44450000D03*
X53340000Y-52070000D03*
X55880000Y-44450000D03*
X55880000Y-52070000D03*
X58420000Y-44450000D03*
X58420000Y-52070000D03*
D12*
X81280000Y-109220000D03*
D13*
X81280000Y-106680000D03*
X81280000Y-104140000D03*
X81280000Y-101600000D03*
X81280000Y-99060000D03*
X81280000Y-96520000D03*
X81280000Y-93980000D03*
X81280000Y-91440000D03*
X81280000Y-88900000D03*
X81280000Y-86360000D03*
D12*
X73660000Y-119380000D03*
D13*
X73660000Y-116840000D03*
X73660000Y-114300000D03*
X73660000Y-111760000D03*
X73660000Y-109220000D03*
X73660000Y-106680000D03*
X73660000Y-104140000D03*
X73660000Y-101600000D03*
X73660000Y-99060000D03*
X73660000Y-96520000D03*
D12*
X73660000Y-144780000D03*
D13*
X73660000Y-142240000D03*
X73660000Y-139700000D03*
X73660000Y-137160000D03*
X73660000Y-134620000D03*
X73660000Y-132080000D03*
X73660000Y-129540000D03*
X73660000Y-127000000D03*
X73660000Y-124460000D03*
X73660000Y-121920000D03*
D12*
X246380000Y-63500000D03*
D13*
X248920000Y-63500000D03*
X251460000Y-63500000D03*
X254000000Y-63500000D03*
X256540000Y-63500000D03*
X259080000Y-63500000D03*
X261620000Y-63500000D03*
X264160000Y-63500000D03*
X266700000Y-63500000D03*
X269240000Y-63500000D03*
D12*
X82550000Y-147320000D03*
D13*
X85090000Y-147320000D03*
X87630000Y-147320000D03*
X90170000Y-147320000D03*
X92710000Y-147320000D03*
X95250000Y-147320000D03*
X97790000Y-147320000D03*
X100330000Y-147320000D03*
X102870000Y-147320000D03*
X105410000Y-147320000D03*
D12*
X95250000Y-152400000D03*
D13*
X97790000Y-152400000D03*
X100330000Y-152400000D03*
X102870000Y-152400000D03*
X105410000Y-152400000D03*
X107950000Y-152400000D03*
D12*
X50800000Y-81280000D03*
D13*
X53340000Y-81280000D03*
X55880000Y-81280000D03*
X58420000Y-81280000D03*
X60960000Y-81280000D03*
X63500000Y-81280000D03*
D12*
X20320000Y-116840000D03*
D13*
X22860000Y-116840000D03*
X25400000Y-116840000D03*
X27940000Y-116840000D03*
X30480000Y-116840000D03*
X33020000Y-116840000D03*
X35560000Y-116840000D03*
X38100000Y-116840000D03*
X40640000Y-116840000D03*
X40640000Y-109220000D03*
X38100000Y-109220000D03*
X35560000Y-109220000D03*
X33020000Y-109220000D03*
X30480000Y-109220000D03*
X27940000Y-109220000D03*
X25400000Y-109220000D03*
X22860000Y-109220000D03*
X20320000Y-109220000D03*
D12*
X20320000Y-101600000D03*
D13*
X22860000Y-101600000D03*
X25400000Y-101600000D03*
X27940000Y-101600000D03*
X30480000Y-101600000D03*
X33020000Y-101600000D03*
X35560000Y-101600000D03*
X38100000Y-101600000D03*
X40640000Y-101600000D03*
X40640000Y-93980000D03*
X38100000Y-93980000D03*
X35560000Y-93980000D03*
X33020000Y-93980000D03*
X30480000Y-93980000D03*
X27940000Y-93980000D03*
X25400000Y-93980000D03*
X22860000Y-93980000D03*
X20320000Y-93980000D03*
D12*
X20320000Y-132080000D03*
D13*
X22860000Y-132080000D03*
X25400000Y-132080000D03*
X27940000Y-132080000D03*
X30480000Y-132080000D03*
X33020000Y-132080000D03*
X35560000Y-132080000D03*
X38100000Y-132080000D03*
X40640000Y-132080000D03*
X40640000Y-124460000D03*
X38100000Y-124460000D03*
X35560000Y-124460000D03*
X33020000Y-124460000D03*
X30480000Y-124460000D03*
X27940000Y-124460000D03*
X25400000Y-124460000D03*
X22860000Y-124460000D03*
X20320000Y-124460000D03*
D12*
X246380000Y-106680000D03*
D13*
X248920000Y-106680000D03*
X251460000Y-106680000D03*
X254000000Y-106680000D03*
X256540000Y-106680000D03*
X259080000Y-106680000D03*
X261620000Y-106680000D03*
X264160000Y-106680000D03*
X264160000Y-99060000D03*
X261620000Y-99060000D03*
X259080000Y-99060000D03*
X256540000Y-99060000D03*
X254000000Y-99060000D03*
X251460000Y-99060000D03*
X248920000Y-99060000D03*
X246380000Y-99060000D03*
D12*
X246380000Y-142240000D03*
D13*
X248920000Y-142240000D03*
X251460000Y-142240000D03*
X254000000Y-142240000D03*
X256540000Y-142240000D03*
X259080000Y-142240000D03*
X261620000Y-142240000D03*
X264160000Y-142240000D03*
X264160000Y-134620000D03*
X261620000Y-134620000D03*
X259080000Y-134620000D03*
X256540000Y-134620000D03*
X254000000Y-134620000D03*
X251460000Y-134620000D03*
X248920000Y-134620000D03*
X246380000Y-134620000D03*
D12*
X246380000Y-127000000D03*
D13*
X248920000Y-127000000D03*
X251460000Y-127000000D03*
X254000000Y-127000000D03*
X256540000Y-127000000D03*
X259080000Y-127000000D03*
X261620000Y-127000000D03*
X264160000Y-127000000D03*
X264160000Y-119380000D03*
X261620000Y-119380000D03*
X259080000Y-119380000D03*
X256540000Y-119380000D03*
X254000000Y-119380000D03*
X251460000Y-119380000D03*
X248920000Y-119380000D03*
X246380000Y-119380000D03*
D12*
X246380000Y-157480000D03*
D13*
X248920000Y-157480000D03*
X251460000Y-157480000D03*
X254000000Y-157480000D03*
X256540000Y-157480000D03*
X259080000Y-157480000D03*
X261620000Y-157480000D03*
X264160000Y-157480000D03*
X264160000Y-149860000D03*
X261620000Y-149860000D03*
X259080000Y-149860000D03*
X256540000Y-149860000D03*
X254000000Y-149860000D03*
X251460000Y-149860000D03*
X248920000Y-149860000D03*
X246380000Y-149860000D03*
D12*
X312420000Y-71120000D03*
D13*
X314960000Y-71120000D03*
X317500000Y-71120000D03*
X320040000Y-71120000D03*
X322580000Y-71120000D03*
X325120000Y-71120000D03*
X327660000Y-71120000D03*
X330200000Y-71120000D03*
X332740000Y-71120000D03*
X335280000Y-71120000D03*
X335280000Y-63500000D03*
X332740000Y-63500000D03*
X330200000Y-63500000D03*
X327660000Y-63500000D03*
X325120000Y-63500000D03*
X322580000Y-63500000D03*
X320040000Y-63500000D03*
X317500000Y-63500000D03*
X314960000Y-63500000D03*
X312420000Y-63500000D03*
D12*
X177800000Y-38100000D03*
D13*
X180340000Y-38100000D03*
X182880000Y-38100000D03*
X185420000Y-38100000D03*
X187960000Y-38100000D03*
X190500000Y-38100000D03*
X193040000Y-38100000D03*
X195580000Y-38100000D03*
X198120000Y-38100000D03*
X200660000Y-38100000D03*
X200660000Y-30480000D03*
X198120000Y-30480000D03*
X195580000Y-30480000D03*
X193040000Y-30480000D03*
X190500000Y-30480000D03*
X187960000Y-30480000D03*
X185420000Y-30480000D03*
X182880000Y-30480000D03*
X180340000Y-30480000D03*
X177800000Y-30480000D03*
D12*
X88900000Y-137160000D03*
D13*
X88900000Y-134620000D03*
X88900000Y-132080000D03*
X88900000Y-129540000D03*
X88900000Y-127000000D03*
X88900000Y-124460000D03*
X88900000Y-121920000D03*
X88900000Y-119380000D03*
X81280000Y-119380000D03*
X81280000Y-121920000D03*
X81280000Y-124460000D03*
X81280000Y-127000000D03*
X81280000Y-129540000D03*
X81280000Y-132080000D03*
X81280000Y-134620000D03*
X81280000Y-137160000D03*
D12*
X104140000Y-137160000D03*
D13*
X104140000Y-134620000D03*
X104140000Y-132080000D03*
X104140000Y-129540000D03*
X104140000Y-127000000D03*
X104140000Y-124460000D03*
X104140000Y-121920000D03*
X104140000Y-119380000D03*
X96520000Y-119380000D03*
X96520000Y-121920000D03*
X96520000Y-124460000D03*
X96520000Y-127000000D03*
X96520000Y-129540000D03*
X96520000Y-132080000D03*
X96520000Y-134620000D03*
X96520000Y-137160000D03*
D12*
X187960000Y-144780000D03*
D13*
X187960000Y-142240000D03*
X187960000Y-139700000D03*
X187960000Y-137160000D03*
X187960000Y-134620000D03*
X187960000Y-132080000D03*
X187960000Y-129540000D03*
X187960000Y-127000000D03*
X180340000Y-127000000D03*
X180340000Y-129540000D03*
X180340000Y-132080000D03*
X180340000Y-134620000D03*
X180340000Y-137160000D03*
X180340000Y-139700000D03*
X180340000Y-142240000D03*
X180340000Y-144780000D03*
D12*
X210820000Y-38100000D03*
D13*
X213360000Y-38100000D03*
X215900000Y-38100000D03*
X218440000Y-38100000D03*
X220980000Y-38100000D03*
X223520000Y-38100000D03*
X226060000Y-38100000D03*
X226060000Y-30480000D03*
X223520000Y-30480000D03*
X220980000Y-30480000D03*
X218440000Y-30480000D03*
X215900000Y-30480000D03*
X213360000Y-30480000D03*
X210820000Y-30480000D03*
D12*
X144780000Y-81280000D03*
D13*
X144780000Y-78740000D03*
X144780000Y-76200000D03*
X144780000Y-73660000D03*
X144780000Y-71120000D03*
X144780000Y-68580000D03*
X144780000Y-66040000D03*
X137160000Y-66040000D03*
X137160000Y-68580000D03*
X137160000Y-71120000D03*
X137160000Y-73660000D03*
X137160000Y-76200000D03*
X137160000Y-78740000D03*
X137160000Y-81280000D03*
D12*
X119380000Y-81280000D03*
D13*
X119380000Y-78740000D03*
X119380000Y-76200000D03*
X119380000Y-73660000D03*
X119380000Y-71120000D03*
X119380000Y-68580000D03*
X119380000Y-66040000D03*
X111760000Y-66040000D03*
X111760000Y-68580000D03*
X111760000Y-71120000D03*
X111760000Y-73660000D03*
X111760000Y-76200000D03*
X111760000Y-78740000D03*
X111760000Y-81280000D03*
D12*
X119380000Y-109220000D03*
D13*
X119380000Y-106680000D03*
X119380000Y-104140000D03*
X119380000Y-101600000D03*
X119380000Y-99060000D03*
X119380000Y-96520000D03*
X119380000Y-93980000D03*
X111760000Y-93980000D03*
X111760000Y-96520000D03*
X111760000Y-99060000D03*
X111760000Y-101600000D03*
X111760000Y-104140000D03*
X111760000Y-106680000D03*
X111760000Y-109220000D03*
D12*
X157480000Y-81280000D03*
D13*
X157480000Y-78740000D03*
X157480000Y-76200000D03*
X157480000Y-73660000D03*
X157480000Y-71120000D03*
X157480000Y-68580000D03*
X157480000Y-66040000D03*
X149860000Y-66040000D03*
X149860000Y-68580000D03*
X149860000Y-71120000D03*
X149860000Y-73660000D03*
X149860000Y-76200000D03*
X149860000Y-78740000D03*
X149860000Y-81280000D03*
D12*
X279400000Y-147320000D03*
D13*
X279400000Y-144780000D03*
X279400000Y-142240000D03*
X279400000Y-139700000D03*
X279400000Y-137160000D03*
X279400000Y-134620000D03*
X279400000Y-132080000D03*
X279400000Y-129540000D03*
X271780000Y-129540000D03*
X271780000Y-132080000D03*
X271780000Y-134620000D03*
X271780000Y-137160000D03*
X271780000Y-139700000D03*
X271780000Y-142240000D03*
X271780000Y-144780000D03*
X271780000Y-147320000D03*
X53340000Y-55880000D03*
X55880000Y-55880000D03*
X58420000Y-55880000D03*
X60960000Y-55880000D03*
X63500000Y-55880000D03*
X66040000Y-55880000D03*
X68580000Y-55880000D03*
X71120000Y-55880000D03*
X73660000Y-55880000D03*
X76200000Y-55880000D03*
X78740000Y-55880000D03*
X81280000Y-55880000D03*
X81280000Y-66040000D03*
X78740000Y-66040000D03*
X76200000Y-66040000D03*
X73660000Y-66040000D03*
X71120000Y-66040000D03*
X68580000Y-66040000D03*
X66040000Y-66040000D03*
X63500000Y-66040000D03*
X60960000Y-66040000D03*
X58420000Y-66040000D03*
X55880000Y-66040000D03*
D12*
X53340000Y-66040000D03*
D13*
X33020000Y-151030940D03*
X33020000Y-146149060D03*
X189230000Y-157480000D03*
X189230000Y-154940000D03*
X194310000Y-157480000D03*
X194310000Y-154940000D03*
X25400000Y-67409060D03*
X25400000Y-72290940D03*
D18*
X127000000Y-16510000D03*
X132080000Y-21590000D03*
X121920000Y-21590000D03*
D19*
X127000000Y-21590000D03*
D12*
X43180000Y-55880000D03*
D13*
X45720000Y-55880000D03*
X48260000Y-55880000D03*
X119380000Y-58420000D03*
X111760000Y-58420000D03*
X119380000Y-55880000D03*
X111760000Y-55880000D03*
D12*
X111760000Y-50800000D03*
D13*
X114300000Y-50800000D03*
X116840000Y-50800000D03*
X119380000Y-50800000D03*
X119380000Y-43180000D03*
X116840000Y-43180000D03*
X114300000Y-43180000D03*
X111760000Y-43180000D03*
D12*
X194310000Y-48260000D03*
D13*
X196850000Y-48260000D03*
X199390000Y-48260000D03*
X201930000Y-48260000D03*
X204470000Y-48260000D03*
X207010000Y-48260000D03*
X209550000Y-48260000D03*
X212090000Y-48260000D03*
X214630000Y-48260000D03*
X217170000Y-48260000D03*
X68580000Y-116840000D03*
X68580000Y-121920000D03*
D16*
X222250000Y-57150000D03*
D17*
X222250000Y-54610000D03*
X224790000Y-57150000D03*
X224790000Y-54610000D03*
D13*
X132080000Y-147320000D03*
X137160000Y-147320000D03*
D27*
X201930000Y-154940000D03*
X196850000Y-154940000D03*
D16*
X77152500Y-137160000D03*
D17*
X77152500Y-134620000D03*
X77152500Y-132080000D03*
X77152500Y-129540000D03*
X77152500Y-127000000D03*
X77152500Y-124460000D03*
X77152500Y-121920000D03*
X77152500Y-119380000D03*
X77152500Y-116840000D03*
X77152500Y-114300000D03*
X77152500Y-111760000D03*
X77152500Y-109220000D03*
X77152500Y-106680000D03*
D16*
X40640000Y-66040000D03*
D17*
X40640000Y-63500000D03*
X40640000Y-60960000D03*
D13*
X307340000Y-124460000D03*
X304800000Y-124460000D03*
X309880000Y-124460000D03*
X77470000Y-73660000D03*
X77470000Y-76200000D03*
X77470000Y-71120000D03*
X58420000Y-152400000D03*
X53340000Y-152400000D03*
X55880000Y-152400000D03*
D17*
X322580000Y-139700000D03*
X322580000Y-142240000D03*
X320040000Y-139700000D03*
X320040000Y-142240000D03*
X317500000Y-139700000D03*
D16*
X317500000Y-142240000D03*
X273050000Y-96520000D03*
D17*
X273050000Y-93980000D03*
X275590000Y-96520000D03*
X275590000Y-93980000D03*
X278130000Y-96520000D03*
X278130000Y-93980000D03*
D12*
X335280000Y-147320000D03*
D13*
X335280000Y-144780000D03*
X335280000Y-142240000D03*
X335280000Y-139700000D03*
X335280000Y-137160000D03*
X335280000Y-134620000D03*
M02*
