M48
; DRILL file {KiCad (5.1.0)-1} date 9/30/2019 4:16:23 PM
; FORMAT={-:-/ absolute / inch / decimal}
; #@! TF.CreationDate,2019-09-30T16:16:23-07:00
; #@! TF.GenerationSoftware,Kicad,Pcbnew,(5.1.0)-1
FMAT,2
INCH
T1C0.0157
T2C0.0250
T3C0.0315
T4C0.0320
T5C0.0350
T6C0.0400
T7C0.0410
T8C0.0512
T9C0.0620
T10C0.0902
T11C0.1024
T12C0.1050
T13C0.1200
T14C0.1201
T15C0.1220
%
G90
G05
T1
X0.85Y-4.225
X1.075Y-4.175
X1.45Y-5.025
X1.55Y-4.975
X1.6Y-5.125
X1.7Y-4.35
X1.95Y-5.475
X2.9625Y-3.3
X3.0625Y-5.25
X3.35Y-5.425
X3.425Y-3.2
X3.425Y-3.95
X3.575Y-3.8
X3.5875Y-4.9875
X3.625Y-4.95
X3.625Y-5.35
X3.65Y-2.25
X3.65Y-2.95
X3.7Y-2.95
X3.7Y-3.5
X3.8Y-2.675
X3.925Y-3.0
X4.2Y-3.025
X4.2125Y-5.2
X4.225Y-2.45
X4.225Y-4.95
X4.2625Y-2.325
X4.3Y-5.325
X4.375Y-5.05
X4.375Y-5.825
X4.55Y-3.7
X4.65Y-3.55
X4.725Y-5.7875
X4.8Y-2.4
X4.8Y-4.3
X4.8125Y-3.6125
X4.85Y-2.5
X4.9875Y-4.4
X5.025Y-4.25
X5.0267Y-3.45
X5.1Y-3.2625
X5.25Y-3.55
X5.2625Y-4.3875
X5.3Y-3.15
X5.45Y-3.75
X5.55Y-4.65
X5.65Y-4.125
X5.7Y-3.5
X5.825Y-2.6
X6.025Y-6.225
X6.05Y-4.15
X6.075Y-6.2
X6.0875Y-5.0875
X6.1Y-4.5
X6.1125Y-5.9875
X6.2Y-3.5
X6.2375Y-3.5875
X6.2875Y-4.25
X6.3267Y-3.4
X6.375Y-2.875
X6.425Y-3.15
X6.475Y-2.95
X6.475Y-3.15
X6.5625Y-3.5625
X6.6Y-2.7
X6.6Y-2.75
X6.6Y-2.95
X6.6Y-5.0
X6.625Y-3.0
X6.625Y-2.625
X6.6346Y-4.0404
X6.65Y-4.675
X6.675Y-2.4
X6.75Y-6.35
X6.7904Y-3.8404
X6.825Y-3.925
X6.8375Y-3.6375
X6.85Y-3.75
X6.8625Y-1.9875
X6.9375Y-2.4125
X6.95Y-4.6375
X6.9625Y-4.5125
X6.9875Y-2.4125
X6.9875Y-4.6125
X6.9999Y-2.1749
X7.0Y-6.35
X7.0142Y-3.7705
X7.025Y-2.425
X7.0625Y-2.4375
X7.1Y-1.275
X7.1875Y-1.2875
X7.225Y-3.55
X7.2374Y-3.1001
X7.2632Y-3.4882
X7.4Y-4.75
X7.5Y-5.0125
X7.5Y-5.2336
X7.525Y-5.375
X7.5263Y-5.2509
X7.575Y-2.5375
X7.6Y-5.1875
X7.6125Y-2.5375
X7.65Y-2.5375
X7.65Y-5.0375
X7.675Y-6.35
X7.7167Y-2.3375
X7.7167Y-2.4125
X7.7167Y-2.375
X7.75Y-2.9
X7.7875Y-2.8
X7.8Y-5.125
X7.8625Y-2.7
X8.0875Y-3.825
X8.0875Y-4.8125
X8.1125Y-2.5625
X8.1375Y-3.9625
X8.2Y-1.8
X8.2625Y-4.7125
X8.3Y-4.375
X8.35Y-5.55
X8.3929Y-3.8446
X8.4Y-3.1
X8.4Y-5.45
X8.425Y-5.1
X8.4625Y-3.875
X8.4625Y-5.0625
X8.55Y-4.8
X8.6375Y-2.4392
X8.75Y-4.8
X8.775Y-3.8
X8.775Y-3.9
X8.7997Y-4.1997
X8.825Y-3.4
X8.825Y-3.5
X8.9917Y-5.0583
X9.0Y-4.1997
X9.0375Y-4.35
X9.0375Y-5.0125
X9.05Y-5.3
X9.15Y-6.35
X9.2Y-4.8
X9.3Y-5.125
X9.35Y-1.675
X9.35Y-4.1625
X9.4Y-4.875
X9.45Y-4.575
X9.5Y-4.575
X9.5267Y-4.5125
X9.625Y-1.25
X9.95Y-6.35
X10.1125Y-4.1125
X10.175Y-1.525
X10.2875Y-4.8125
X10.3Y-4.45
X10.4375Y-4.3125
X10.5Y-3.3
X10.575Y-4.65
X10.8875Y-3.9625
X10.9Y-4.8875
X11.025Y-4.7
X11.025Y-4.8
X11.4Y-5.2
X11.5Y-5.2
X11.6625Y-3.2375
X11.675Y-3.35
X11.7Y-3.3875
X11.7Y-3.45
X11.75Y-3.475
X11.875Y-3.25
X11.875Y-3.55
X11.875Y-3.65
X11.875Y-3.75
X12.15Y-5.775
X12.225Y-5.55
X12.275Y-5.1
X12.4Y-1.525
X12.425Y-5.55
X12.45Y-5.4125
X12.5Y-5.425
X12.5375Y-5.2375
X12.55Y-3.55
X12.55Y-4.0
X12.55Y-5.425
X12.6Y-2.8
X12.65Y-4.25
X12.65Y-5.65
X12.7Y-5.425
X13.05Y-5.25
X13.125Y-5.65
T2
X1.825Y-3.515
X1.825Y-3.585
X1.825Y-3.655
X1.825Y-3.725
X1.825Y-3.795
X1.825Y-3.865
X1.825Y-3.935
X1.825Y-4.005
X1.825Y-4.075
X1.825Y-4.145
X1.825Y-4.215
X1.825Y-4.285
X1.825Y-4.355
X1.825Y-4.425
X1.825Y-4.495
X1.825Y-4.565
X1.825Y-4.635
X1.825Y-4.705
X1.825Y-4.775
X1.825Y-4.845
X1.825Y-4.915
X1.825Y-4.985
X1.825Y-5.055
X1.825Y-5.125
X1.825Y-5.195
X1.825Y-5.265
X1.825Y-5.335
X1.825Y-5.405
X1.825Y-5.475
X1.825Y-5.545
X1.825Y-5.615
X1.825Y-5.685
X2.575Y-3.515
X2.575Y-3.585
X2.575Y-3.655
X2.575Y-3.725
X2.575Y-3.795
X2.575Y-3.865
X2.575Y-3.935
X2.575Y-4.005
X2.575Y-4.075
X2.575Y-4.145
X2.575Y-4.215
X2.575Y-4.285
X2.575Y-4.355
X2.575Y-4.425
X2.575Y-4.495
X2.575Y-4.565
X2.575Y-4.635
X2.575Y-4.705
X2.575Y-4.775
X2.575Y-4.845
X2.575Y-4.915
X2.575Y-4.985
X2.575Y-5.055
X2.575Y-5.125
X2.575Y-5.195
X2.575Y-5.265
X2.575Y-5.335
X2.575Y-5.405
X2.575Y-5.475
X2.575Y-5.545
X2.575Y-5.615
X2.575Y-5.685
T3
X3.2Y-2.9008
X3.2Y-2.9992
X6.9606Y-2.05
X7.0394Y-2.05
X6.4Y-1.3206
X6.4Y-1.3994
X6.2106Y-2.3
X6.2894Y-2.3
X3.5Y-1.9106
X3.5Y-1.9894
X10.3008Y-5.1
X10.3992Y-5.1
X2.0Y-1.9008
X2.0Y-1.9992
X4.9Y-1.3106
X4.9Y-1.3894
X3.8Y-2.1106
X3.8Y-2.1894
X2.2Y-6.0008
X2.2Y-6.0992
X6.6Y-1.2106
X6.6Y-1.2894
X0.8Y-1.7008
X0.8Y-1.7992
X1.1Y-1.7008
X1.1Y-1.7992
X1.4Y-1.7008
X1.4Y-1.7992
X6.9606Y-2.3
X7.0394Y-2.3
T4
X7.85Y-6.1
X8.05Y-6.1
X3.75Y-6.0
X3.85Y-6.0
X3.95Y-6.0
X4.05Y-6.0
X4.15Y-6.0
X4.25Y-6.0
X12.5Y-5.9
X12.5Y-6.2
X12.6Y-5.9
X12.6Y-6.2
X12.7Y-5.9
X12.7Y-6.2
X12.8Y-5.9
X12.8Y-6.2
X12.9Y-5.9
X12.9Y-6.2
X13.0Y-5.9
X13.0Y-6.2
X13.1Y-5.9
X13.1Y-6.2
X13.2Y-5.9
X13.2Y-6.2
X1.5Y-5.7
X1.5Y-6.0
X8.3Y-5.1
X8.3Y-5.2
X8.3Y-5.3
X8.3Y-5.4
X8.3Y-5.5
X8.3Y-5.6
X8.3Y-5.7
X8.3Y-5.8
X8.3Y-5.9
X8.6Y-5.1
X8.6Y-5.2
X8.6Y-5.3
X8.6Y-5.4
X8.6Y-5.5
X8.6Y-5.6
X8.6Y-5.7
X8.6Y-5.8
X8.6Y-5.9
X12.5Y-5.3
X12.5Y-5.6
X12.6Y-5.3
X12.6Y-5.6
X12.7Y-5.3
X12.7Y-5.6
X12.8Y-5.3
X12.8Y-5.6
X12.9Y-5.3
X12.9Y-5.6
X13.0Y-5.3
X13.0Y-5.6
X13.1Y-5.3
X13.1Y-5.6
X13.2Y-5.3
X13.2Y-5.6
X12.3Y-5.35
X12.3Y-5.55
X6.6Y-0.7
X6.6Y-1.0
X8.4Y-2.5
X8.4Y-2.8
X8.5Y-2.5
X8.5Y-2.8
X8.6Y-2.5
X8.6Y-2.8
X8.7Y-2.5
X8.7Y-2.8
X8.8Y-2.5
X8.8Y-2.8
X8.9Y-2.5
X8.9Y-2.8
X9.0Y-2.5
X9.0Y-2.8
X9.1Y-2.5
X9.1Y-2.8
X9.2Y-2.5
X9.2Y-2.8
X9.3Y-2.5
X9.3Y-2.8
X12.5Y-3.3
X12.5Y-3.6
X12.6Y-3.3
X12.6Y-3.6
X12.7Y-3.3
X12.7Y-3.6
X12.8Y-3.3
X12.8Y-3.6
X12.9Y-3.3
X12.9Y-3.6
X13.0Y-3.3
X13.0Y-3.6
X13.1Y-3.3
X13.1Y-3.6
X13.2Y-3.3
X13.2Y-3.6
X13.3Y-3.3
X13.3Y-3.6
X13.4Y-3.3
X13.4Y-3.6
X0.8Y-5.35
X1.1Y-5.35
X12.3Y-3.35
X12.3Y-3.55
X1.2Y-2.65
X1.4Y-2.65
X8.1Y-1.25
X8.1Y-1.45
X6.4Y-1.7
X6.4Y-2.0
X6.5Y-1.7
X6.5Y-2.0
X6.6Y-1.7
X6.6Y-2.0
X6.7Y-1.7
X6.7Y-2.0
X1.3Y-5.35
X1.6Y-5.35
X6.8Y-1.25
X6.8Y-1.45
X1.2Y-2.85
X1.4Y-2.85
X7.15Y-5.9
X7.35Y-5.9
X5.9Y-2.6
X5.9Y-2.7
X5.9Y-2.8
X5.9Y-2.9
X5.9Y-3.0
X5.9Y-3.1
X5.9Y-3.2
X6.2Y-2.6
X6.2Y-2.7
X6.2Y-2.8
X6.2Y-2.9
X6.2Y-3.0
X6.2Y-3.1
X6.2Y-3.2
X3.9Y-1.7
X3.9Y-2.0
X7.0Y-1.2
X7.0Y-1.5
X7.1Y-1.2
X7.1Y-1.5
X7.2Y-1.2
X7.2Y-1.5
X7.3Y-1.2
X7.3Y-1.5
X7.4Y-1.2
X7.4Y-1.5
X7.5Y-1.2
X7.5Y-1.5
X7.6Y-1.2
X7.6Y-1.5
X7.7Y-1.2
X7.7Y-1.5
X7.8Y-1.2
X7.8Y-1.5
X7.9Y-1.2
X7.9Y-1.5
X4.45Y-5.6
X4.65Y-5.6
X0.6Y-3.15
X0.6Y-3.35
X1.4Y-0.9
X1.4Y-1.1
X2.5Y-1.7
X2.5Y-2.0
X7.1Y-5.0
X7.1Y-5.1
X7.1Y-5.2
X7.1Y-5.3
X7.1Y-5.4
X7.1Y-5.5
X7.1Y-5.6
X7.1Y-5.7
X7.4Y-5.0
X7.4Y-5.1
X7.4Y-5.2
X7.4Y-5.3
X7.4Y-5.4
X7.4Y-5.5
X7.4Y-5.6
X7.4Y-5.7
X4.45Y-3.4
X4.65Y-3.4
X3.3Y-1.7
X3.3Y-2.0
X9.75Y-6.1
X9.95Y-6.1
X5.4Y-1.2
X5.4Y-1.4
X5.5Y-1.2
X5.5Y-1.4
X5.8Y-1.2
X5.8Y-1.4
X9.7Y-2.5
X9.7Y-2.8
X9.8Y-2.5
X9.8Y-2.8
X9.9Y-2.5
X9.9Y-2.8
X10.0Y-2.5
X10.0Y-2.8
X10.1Y-2.5
X10.1Y-2.8
X10.2Y-2.5
X10.2Y-2.8
X10.3Y-2.5
X10.3Y-2.8
X10.4Y-2.5
X10.4Y-2.8
X10.5Y-2.5
X10.5Y-2.8
X10.6Y-2.5
X10.6Y-2.8
X6.45Y-2.2
X6.75Y-2.2
X5.9Y-3.7
X5.9Y-3.8
X5.9Y-3.9
X5.9Y-4.0
X5.9Y-4.1
X5.9Y-4.2
X5.9Y-4.3
X5.9Y-4.4
X5.9Y-4.5
X5.9Y-4.6
X6.2Y-3.7
X6.2Y-3.8
X6.2Y-3.9
X6.2Y-4.0
X6.2Y-4.1
X6.2Y-4.2
X6.2Y-4.3
X6.2Y-4.4
X6.2Y-4.5
X6.2Y-4.6
X11.85Y-4.1
X12.05Y-4.1
X10.7Y-5.1
X10.9Y-5.1
X8.95Y-4.3
X9.15Y-4.3
X2.6Y-1.75
X2.6Y-1.95
X1.3Y-5.5
X1.6Y-5.5
X4.4Y-2.6
X4.4Y-2.7
X4.4Y-2.8
X4.4Y-2.9
X4.4Y-3.0
X4.4Y-3.1
X4.4Y-3.2
X4.7Y-2.6
X4.7Y-2.7
X4.7Y-2.8
X4.7Y-2.9
X4.7Y-3.0
X4.7Y-3.1
X4.7Y-3.2
X8.3Y-3.2
X8.3Y-3.3
X8.3Y-3.4
X8.3Y-3.5
X8.3Y-3.6
X8.3Y-3.7
X8.3Y-3.8
X8.3Y-3.9
X8.3Y-4.0
X8.3Y-4.1
X8.6Y-3.2
X8.6Y-3.3
X8.6Y-3.4
X8.6Y-3.5
X8.6Y-3.6
X8.6Y-3.7
X8.6Y-3.8
X8.6Y-3.9
X8.6Y-4.0
X8.6Y-4.1
X5.45Y-4.5
X5.65Y-4.5
X9.8Y-5.1
X10.0Y-5.1
X10.8Y-2.55
X10.8Y-2.75
X6.5Y-5.0
X6.5Y-5.1
X6.5Y-5.2
X6.5Y-5.3
X6.5Y-5.4
X6.5Y-5.5
X6.5Y-5.6
X6.5Y-5.7
X6.5Y-5.8
X6.5Y-5.9
X6.8Y-5.0
X6.8Y-5.1
X6.8Y-5.2
X6.8Y-5.3
X6.8Y-5.4
X6.8Y-5.5
X6.8Y-5.6
X6.8Y-5.7
X6.8Y-5.8
X6.8Y-5.9
X8.25Y-6.0
X8.25Y-6.2
X2.7Y-2.8
X2.7Y-3.0
X2.2Y-1.7
X2.2Y-2.0
X2.1Y-2.2
X2.1Y-2.6
X2.2Y-2.2
X2.2Y-2.6
X2.3Y-2.2
X2.3Y-2.6
X2.4Y-2.2
X2.4Y-2.6
X2.5Y-2.2
X2.5Y-2.6
X2.6Y-2.2
X2.6Y-2.6
X2.7Y-2.2
X2.7Y-2.6
X2.8Y-2.2
X2.8Y-2.6
X2.9Y-2.2
X2.9Y-2.6
X3.0Y-2.2
X3.0Y-2.6
X3.1Y-2.2
X3.1Y-2.6
X3.2Y-2.2
X3.2Y-2.6
X5.1Y-1.2
X5.1Y-1.5
X5.4Y-3.7
X5.4Y-3.8
X5.4Y-3.9
X5.4Y-4.0
X5.4Y-4.1
X5.4Y-4.2
X5.4Y-4.3
X5.7Y-3.7
X5.7Y-3.8
X5.7Y-3.9
X5.7Y-4.0
X5.7Y-4.1
X5.7Y-4.2
X5.7Y-4.3
X2.9Y-4.8
X2.9Y-4.9
X2.9Y-5.0
X2.9Y-5.1
X2.9Y-5.2
X2.9Y-5.3
X2.9Y-5.4
X2.9Y-5.5
X2.9Y-5.6
X2.9Y-5.7
X5.95Y-4.8
X6.15Y-4.8
X9.6Y-3.4
X9.6Y-3.5
X9.6Y-3.6
X9.6Y-3.7
X9.6Y-3.8
X9.6Y-3.9
X9.6Y-4.0
X9.6Y-4.1
X9.6Y-4.2
X9.6Y-4.3
X9.6Y-4.4
X9.6Y-4.5
X9.6Y-4.6
X9.6Y-4.7
X9.6Y-4.8
X9.6Y-4.9
X10.2Y-3.4
X10.2Y-3.5
X10.2Y-3.6
X10.2Y-3.7
X10.2Y-3.8
X10.2Y-3.9
X10.2Y-4.0
X10.2Y-4.1
X10.2Y-4.2
X10.2Y-4.3
X10.2Y-4.4
X10.2Y-4.5
X10.2Y-4.6
X10.2Y-4.7
X10.2Y-4.8
X10.2Y-4.9
X7.85Y-6.2
X8.05Y-6.2
X1.7Y-2.0
X1.7Y-2.3
X3.8Y-4.7
X3.8Y-4.8
X3.8Y-4.9
X3.8Y-5.0
X3.8Y-5.1
X3.8Y-5.2
X3.8Y-5.3
X3.8Y-5.4
X4.1Y-4.7
X4.1Y-4.8
X4.1Y-4.9
X4.1Y-5.0
X4.1Y-5.1
X4.1Y-5.2
X4.1Y-5.3
X4.1Y-5.4
X5.2Y-1.8
X5.3Y-1.8
X5.4Y-1.8
X6.55Y-6.1
X6.75Y-6.1
X7.85Y-6.0
X8.15Y-6.0
X2.5Y-2.8
X2.5Y-3.0
X5.95Y-3.4
X6.15Y-3.4
X2.9Y-2.8
X2.9Y-3.1
X1.0Y-2.6539
X1.0Y-2.8461
X3.7Y-1.7
X3.7Y-2.0
X3.5Y-2.4
X3.5Y-2.5
X3.5Y-2.6
X3.5Y-2.7
X3.5Y-2.8
X3.5Y-2.9
X3.5Y-3.0
X3.5Y-3.1
X3.5Y-3.2
X3.5Y-3.3
X3.5Y-3.4
X3.5Y-3.5
X3.5Y-3.6
X3.5Y-3.7
X3.5Y-3.8
X3.5Y-3.9
X3.5Y-4.0
X3.5Y-4.1
X3.5Y-4.2
X3.5Y-4.3
X4.1Y-2.4
X4.1Y-2.5
X4.1Y-2.6
X4.1Y-2.7
X4.1Y-2.8
X4.1Y-2.9
X4.1Y-3.0
X4.1Y-3.1
X4.1Y-3.2
X4.1Y-3.3
X4.1Y-3.4
X4.1Y-3.5
X4.1Y-3.6
X4.1Y-3.7
X4.1Y-3.8
X4.1Y-3.9
X4.1Y-4.0
X4.1Y-4.1
X4.1Y-4.2
X4.1Y-4.3
X12.5Y-2.5
X12.6Y-2.5
X12.7Y-2.5
X12.8Y-2.5
X12.9Y-2.5
X13.0Y-2.5
X13.1Y-2.5
X13.2Y-2.5
X13.3Y-2.5
X13.4Y-2.5
X8.2Y-2.55
X8.2Y-2.75
X6.2Y-1.2
X6.2Y-1.5
X8.9Y-3.2
X8.9Y-3.3
X8.9Y-3.4
X8.9Y-3.5
X8.9Y-3.6
X8.9Y-3.7
X8.9Y-3.8
X8.9Y-3.9
X8.9Y-4.0
X8.9Y-4.1
X9.2Y-3.2
X9.2Y-3.3
X9.2Y-3.4
X9.2Y-3.5
X9.2Y-3.6
X9.2Y-3.7
X9.2Y-3.8
X9.2Y-3.9
X9.2Y-4.0
X9.2Y-4.1
X4.2Y-1.75
X4.2Y-1.95
X10.5Y-5.75
X10.8Y-5.75
X6.5Y-2.7
X6.5Y-2.8
X6.5Y-2.9
X6.5Y-3.0
X6.5Y-3.1
X6.5Y-3.2
X6.5Y-3.3
X6.5Y-3.4
X6.5Y-3.5
X6.5Y-3.6
X6.5Y-3.7
X6.5Y-3.8
X6.5Y-3.9
X6.5Y-4.0
X6.5Y-4.1
X6.5Y-4.2
X6.5Y-4.3
X6.5Y-4.4
X6.5Y-4.5
X6.5Y-4.6
X7.1Y-2.7
X7.1Y-2.8
X7.1Y-2.9
X7.1Y-3.0
X7.1Y-3.1
X7.1Y-3.2
X7.1Y-3.3
X7.1Y-3.4
X7.1Y-3.5
X7.1Y-3.6
X7.1Y-3.7
X7.1Y-3.8
X7.1Y-3.9
X7.1Y-4.0
X7.1Y-4.1
X7.1Y-4.2
X7.1Y-4.3
X7.1Y-4.4
X7.1Y-4.5
X7.1Y-4.6
X2.6Y-2.8
X2.6Y-3.1
X0.6Y-3.75
X0.6Y-3.95
X1.7Y-2.5
X1.8Y-2.5
X1.9Y-2.5
X5.3Y-1.6
X5.6Y-1.6
X4.95Y-5.6
X5.15Y-5.6
X5.4Y-2.6
X5.4Y-2.7
X5.4Y-2.8
X5.4Y-2.9
X5.4Y-3.0
X5.4Y-3.1
X5.4Y-3.2
X5.7Y-2.6
X5.7Y-2.7
X5.7Y-2.8
X5.7Y-2.9
X5.7Y-3.0
X5.7Y-3.1
X5.7Y-3.2
X4.4Y-4.6
X4.7Y-4.6
X5.9Y-5.0
X5.9Y-5.1
X5.9Y-5.2
X5.9Y-5.3
X5.9Y-5.4
X5.9Y-5.5
X5.9Y-5.6
X5.9Y-5.7
X5.9Y-5.8
X5.9Y-5.9
X6.2Y-5.0
X6.2Y-5.1
X6.2Y-5.2
X6.2Y-5.3
X6.2Y-5.4
X6.2Y-5.5
X6.2Y-5.6
X6.2Y-5.7
X6.2Y-5.8
X6.2Y-5.9
X1.9Y-2.8
X1.9Y-3.0
X3.85Y-5.6
X4.05Y-5.6
X2.3Y-1.7
X2.3Y-2.0
X4.4Y-4.8
X4.4Y-4.9
X4.4Y-5.0
X4.4Y-5.1
X4.4Y-5.2
X4.4Y-5.3
X4.4Y-5.4
X4.7Y-4.8
X4.7Y-4.9
X4.7Y-5.0
X4.7Y-5.1
X4.7Y-5.2
X4.7Y-5.3
X4.7Y-5.4
X5.45Y-3.4
X5.65Y-3.4
X2.4Y-2.8
X2.4Y-3.0
X2.9Y-3.8
X2.9Y-3.9
X2.9Y-4.0
X2.9Y-4.1
X2.9Y-4.2
X2.9Y-4.3
X2.9Y-4.4
X2.9Y-4.5
X2.9Y-4.6
X2.9Y-4.7
X4.9Y-2.6
X4.9Y-2.7
X4.9Y-2.8
X4.9Y-2.9
X4.9Y-3.0
X4.9Y-3.1
X4.9Y-3.2
X5.2Y-2.6
X5.2Y-2.7
X5.2Y-2.8
X5.2Y-2.9
X5.2Y-3.0
X5.2Y-3.1
X5.2Y-3.2
X8.75Y-5.7
X8.75Y-6.0
X5.6Y-1.75
X5.6Y-1.95
X4.45Y-4.5
X4.65Y-4.5
X6.7Y-4.8
X6.9Y-4.8
X4.5Y-1.75
X4.5Y-1.95
X0.8Y-5.5
X1.1Y-5.5
X8.3Y-1.2
X8.3Y-1.5
X8.4Y-1.2
X8.4Y-1.5
X8.5Y-1.2
X8.5Y-1.5
X8.6Y-1.2
X8.6Y-1.5
X8.7Y-1.2
X8.7Y-1.5
X8.8Y-1.2
X8.8Y-1.5
X8.9Y-1.2
X8.9Y-1.5
X0.8Y-2.1
X0.8Y-2.4
X0.9Y-2.1
X0.9Y-2.4
X1.0Y-2.1
X1.0Y-2.4
X1.1Y-2.1
X1.1Y-2.4
X1.2Y-2.1
X1.2Y-2.4
X1.3Y-2.1
X1.3Y-2.4
X1.4Y-2.1
X1.4Y-2.4
X3.25Y-5.6
X3.45Y-5.6
X9.5Y-2.55
X9.5Y-2.75
X1.3Y-0.9
X1.3Y-1.1
X6.0Y-1.2
X6.0Y-1.5
X9.6Y-5.6
X9.6Y-5.9
X9.7Y-5.6
X9.7Y-5.9
X9.8Y-5.6
X9.8Y-5.9
X9.9Y-5.6
X9.9Y-5.9
X10.0Y-5.6
X10.0Y-5.9
X10.1Y-5.6
X10.1Y-5.9
X10.2Y-5.6
X10.2Y-5.9
X10.3Y-5.6
X10.3Y-5.9
X4.3Y-1.7
X4.3Y-2.0
X8.4Y-3.0
X8.5Y-3.0
X8.6Y-3.0
X8.7Y-3.0
X8.8Y-3.0
X8.9Y-3.0
X9.0Y-3.0
X9.1Y-3.0
X9.2Y-3.0
X9.3Y-3.0
X8.95Y-6.1
X9.15Y-6.1
X0.8Y-4.3
X0.8Y-4.6
X0.9Y-4.3
X0.9Y-4.6
X1.0Y-4.3
X1.0Y-4.6
X1.1Y-4.3
X1.1Y-4.6
X1.2Y-4.3
X1.2Y-4.6
X1.3Y-4.3
X1.3Y-4.6
X1.4Y-4.3
X1.4Y-4.6
X1.5Y-4.3
X1.5Y-4.6
X1.6Y-4.3
X1.6Y-4.6
X12.3Y-4.75
X12.3Y-4.95
X10.5Y-3.4
X10.5Y-3.5
X10.5Y-3.6
X10.5Y-3.7
X10.5Y-3.8
X10.5Y-3.9
X10.5Y-4.0
X10.5Y-4.1
X10.5Y-4.2
X10.5Y-4.3
X10.5Y-4.4
X10.5Y-4.5
X10.5Y-4.6
X10.5Y-4.7
X10.5Y-4.8
X10.5Y-4.9
X11.1Y-3.4
X11.1Y-3.5
X11.1Y-3.6
X11.1Y-3.7
X11.1Y-3.8
X11.1Y-3.9
X11.1Y-4.0
X11.1Y-4.1
X11.1Y-4.2
X11.1Y-4.3
X11.1Y-4.4
X11.1Y-4.5
X11.1Y-4.6
X11.1Y-4.7
X11.1Y-4.8
X11.1Y-4.9
X0.9Y-5.95
X1.1Y-5.95
X2.3Y-2.8
X2.3Y-3.0
X2.0Y-3.2
X2.1Y-3.2
X2.2Y-3.2
X2.3Y-3.2
X2.4Y-3.2
X2.5Y-3.2
X3.2Y-4.7
X3.2Y-4.8
X3.2Y-4.9
X3.2Y-5.0
X3.2Y-5.1
X3.2Y-5.2
X3.2Y-5.3
X3.2Y-5.4
X3.5Y-4.7
X3.5Y-4.8
X3.5Y-4.9
X3.5Y-5.0
X3.5Y-5.1
X3.5Y-5.2
X3.5Y-5.3
X3.5Y-5.4
X7.4Y-2.7
X7.4Y-2.8
X7.4Y-2.9
X7.4Y-3.0
X7.4Y-3.1
X7.4Y-3.2
X7.4Y-3.3
X7.4Y-3.4
X7.4Y-3.5
X7.4Y-3.6
X7.4Y-3.7
X7.4Y-3.8
X7.4Y-3.9
X7.4Y-4.0
X7.4Y-4.1
X7.4Y-4.2
X7.4Y-4.3
X7.4Y-4.4
X7.4Y-4.5
X7.4Y-4.6
X8.0Y-2.7
X8.0Y-2.8
X8.0Y-2.9
X8.0Y-3.0
X8.0Y-3.1
X8.0Y-3.2
X8.0Y-3.3
X8.0Y-3.4
X8.0Y-3.5
X8.0Y-3.6
X8.0Y-3.7
X8.0Y-3.8
X8.0Y-3.9
X8.0Y-4.0
X8.0Y-4.1
X8.0Y-4.2
X8.0Y-4.3
X8.0Y-4.4
X8.0Y-4.5
X8.0Y-4.6
X7.6Y-4.8
X7.8Y-4.8
X3.2Y-3.4
X3.2Y-3.5
X3.2Y-3.6
X3.2Y-3.7
X3.2Y-3.8
X3.2Y-3.9
X3.2Y-4.0
X3.2Y-4.1
X3.2Y-4.2
X3.2Y-4.3
X12.3Y-5.95
X12.3Y-6.15
X2.8Y-2.8
X2.8Y-3.0
X1.8Y-2.0
X1.8Y-2.3
X7.55Y-6.1
X7.55Y-6.2
X7.75Y-6.1
X7.75Y-6.2
X5.8Y-1.7
X5.8Y-2.0
X4.9Y-4.8
X4.9Y-4.9
X4.9Y-5.0
X4.9Y-5.1
X4.9Y-5.2
X4.9Y-5.3
X4.9Y-5.4
X5.2Y-4.8
X5.2Y-4.9
X5.2Y-5.0
X5.2Y-5.1
X5.2Y-5.2
X5.2Y-5.3
X5.2Y-5.4
X2.1Y-5.8
X2.3Y-5.8
X12.5Y-3.9
X12.5Y-4.2
X12.6Y-3.9
X12.6Y-4.2
X12.7Y-3.9
X12.7Y-4.2
X12.8Y-3.9
X12.8Y-4.2
X12.9Y-3.9
X12.9Y-4.2
X13.0Y-3.9
X13.0Y-4.2
X13.1Y-3.9
X13.1Y-4.2
X13.2Y-3.9
X13.2Y-4.2
X12.3Y-3.95
X12.3Y-4.15
X6.7Y-0.7
X6.7Y-1.0
X4.4Y-1.75
X4.4Y-1.95
X4.0Y-1.7
X4.0Y-2.0
X1.3Y-5.7539
X1.3Y-5.9461
X5.9Y-1.7
X5.9Y-2.0
X3.25Y-5.8
X3.35Y-5.8
X3.45Y-5.8
X3.55Y-5.8
X3.65Y-5.8
X3.75Y-5.8
X3.85Y-5.8
X3.95Y-5.8
X4.05Y-5.8
X4.15Y-5.8
X0.6Y-4.35
X0.6Y-4.55
X6.1Y-1.2
X6.1Y-1.5
X11.8Y-3.2
X11.8Y-3.3
X11.8Y-3.4
X11.8Y-3.5
X11.8Y-3.6
X11.8Y-3.7
X11.8Y-3.8
X11.8Y-3.9
X12.1Y-3.2
X12.1Y-3.3
X12.1Y-3.4
X12.1Y-3.5
X12.1Y-3.6
X12.1Y-3.7
X12.1Y-3.8
X12.1Y-3.9
X7.75Y-5.9
X7.95Y-5.9
X12.5Y-4.7
X12.5Y-5.0
X12.6Y-4.7
X12.6Y-5.0
X12.7Y-4.7
X12.7Y-5.0
X12.8Y-4.7
X12.8Y-5.0
X12.9Y-4.7
X12.9Y-5.0
X13.0Y-4.7
X13.0Y-5.0
X13.1Y-4.7
X13.1Y-5.0
X13.2Y-4.7
X13.2Y-5.0
X6.45Y-2.3
X6.75Y-2.3
X5.4Y-4.8
X5.4Y-4.9
X5.4Y-5.0
X5.4Y-5.1
X5.4Y-5.2
X5.4Y-5.3
X5.4Y-5.4
X5.7Y-4.8
X5.7Y-4.9
X5.7Y-5.0
X5.7Y-5.1
X5.7Y-5.2
X5.7Y-5.3
X5.7Y-5.4
X5.75Y-2.2
X6.05Y-2.2
X5.95Y-6.1
X6.15Y-6.1
X5.7Y-1.7
X5.7Y-2.0
X8.9Y-5.2
X8.9Y-5.3
X8.9Y-5.4
X8.9Y-5.5
X8.9Y-5.6
X8.9Y-5.7
X8.9Y-5.8
X8.9Y-5.9
X9.2Y-5.2
X9.2Y-5.3
X9.2Y-5.4
X9.2Y-5.5
X9.2Y-5.6
X9.2Y-5.7
X9.2Y-5.8
X9.2Y-5.9
X5.45Y-5.6
X5.65Y-5.6
X4.4Y-3.7
X4.4Y-3.8
X4.4Y-3.9
X4.4Y-4.0
X4.4Y-4.1
X4.4Y-4.2
X4.4Y-4.3
X4.7Y-3.7
X4.7Y-3.8
X4.7Y-3.9
X4.7Y-4.0
X4.7Y-4.1
X4.7Y-4.2
X4.7Y-4.3
X0.8Y-2.6
X0.8Y-2.9
X0.8Y-3.1
X0.8Y-3.4
X0.9Y-3.1
X0.9Y-3.4
X1.0Y-3.1
X1.0Y-3.4
X1.1Y-3.1
X1.1Y-3.4
X1.2Y-3.1
X1.2Y-3.4
X1.3Y-3.1
X1.3Y-3.4
X1.4Y-3.1
X1.4Y-3.4
X1.5Y-3.1
X1.5Y-3.4
X1.6Y-3.1
X1.6Y-3.4
X4.95Y-3.4
X5.15Y-3.4
X3.7Y-4.5
X3.9Y-4.5
X3.8Y-1.75
X3.8Y-1.95
X2.4Y-1.7
X2.4Y-2.0
X6.8Y-0.75
X6.8Y-0.95
X0.6Y-2.15
X0.6Y-2.35
X2.2Y-2.8
X2.2Y-3.0
X6.1Y-1.7
X6.1Y-2.0
X12.5Y-2.7
X12.5Y-3.0
X12.6Y-2.7
X12.6Y-3.0
X12.7Y-2.7
X12.7Y-3.0
X12.8Y-2.7
X12.8Y-3.0
X12.9Y-2.7
X12.9Y-3.0
X13.0Y-2.7
X13.0Y-3.0
X13.1Y-2.7
X13.1Y-3.0
X13.2Y-2.7
X13.2Y-3.0
X13.3Y-2.7
X13.3Y-3.0
X13.4Y-2.7
X13.4Y-3.0
X2.7Y-1.7
X2.7Y-2.0
X11.85Y-5.1
X12.05Y-5.1
X8.35Y-6.1
X8.55Y-6.1
X6.2Y-1.75
X6.2Y-1.95
X6.5Y-0.7
X6.5Y-1.0
X11.0Y-2.5
X11.0Y-2.8
X11.1Y-2.5
X11.1Y-2.8
X11.2Y-2.5
X11.2Y-2.8
X11.3Y-2.5
X11.3Y-2.8
X11.4Y-2.5
X11.4Y-2.8
X11.5Y-2.5
X11.5Y-2.8
X11.6Y-2.5
X11.6Y-2.8
X11.7Y-2.5
X11.7Y-2.8
X11.8Y-2.5
X11.8Y-2.8
X11.9Y-2.5
X11.9Y-2.8
X6.0Y-1.7
X6.0Y-2.0
X4.95Y-4.5
X5.15Y-4.5
X12.3Y-2.75
X12.3Y-2.95
X2.1Y-2.8
X2.1Y-3.0
X3.0Y-2.8
X3.0Y-3.0
X3.2Y-1.7
X3.2Y-2.0
X4.7Y-1.7
X4.7Y-2.0
X4.8Y-1.7
X4.8Y-2.0
X4.9Y-1.7
X4.9Y-2.0
X5.0Y-1.7
X5.0Y-2.0
X5.75Y-2.3
X6.05Y-2.3
X0.8Y-3.7
X0.8Y-4.0
X0.9Y-3.7
X0.9Y-4.0
X1.0Y-3.7
X1.0Y-4.0
X1.1Y-3.7
X1.1Y-4.0
X1.2Y-3.7
X1.2Y-4.0
X1.3Y-3.7
X1.3Y-4.0
X1.4Y-3.7
X1.4Y-4.0
X1.5Y-3.7
X1.5Y-4.0
X1.6Y-3.7
X1.6Y-4.0
X0.6Y-4.95
X0.6Y-5.15
X7.7Y-5.0
X7.7Y-5.1
X7.7Y-5.2
X7.7Y-5.3
X7.7Y-5.4
X7.7Y-5.5
X7.7Y-5.6
X7.7Y-5.7
X8.0Y-5.0
X8.0Y-5.1
X8.0Y-5.2
X8.0Y-5.3
X8.0Y-5.4
X8.0Y-5.5
X8.0Y-5.6
X8.0Y-5.7
X2.0Y-2.8
X2.0Y-3.0
X1.8Y-3.15
X1.8Y-3.35
X5.2Y-1.2
X5.2Y-1.5
X11.8Y-4.3
X11.8Y-4.4
X11.8Y-4.5
X11.8Y-4.6
X11.8Y-4.7
X11.8Y-4.8
X11.8Y-4.9
X12.1Y-4.3
X12.1Y-4.4
X12.1Y-4.5
X12.1Y-4.6
X12.1Y-4.7
X12.1Y-4.8
X12.1Y-4.9
X2.8Y-1.7
X2.8Y-2.0
X4.9Y-3.7
X4.9Y-3.8
X4.9Y-3.9
X4.9Y-4.0
X4.9Y-4.1
X4.9Y-4.2
X4.9Y-4.3
X5.2Y-3.7
X5.2Y-3.8
X5.2Y-3.9
X5.2Y-4.0
X5.2Y-4.1
X5.2Y-4.2
X5.2Y-4.3
X0.8Y-4.9
X0.8Y-5.2
X0.9Y-4.9
X0.9Y-5.2
X1.0Y-4.9
X1.0Y-5.2
X1.1Y-4.9
X1.1Y-5.2
X1.2Y-4.9
X1.2Y-5.2
X1.3Y-4.9
X1.3Y-5.2
X1.4Y-4.9
X1.4Y-5.2
X1.5Y-4.9
X1.5Y-5.2
X1.6Y-4.9
X1.6Y-5.2
X8.35Y-4.3
X8.55Y-4.3
X0.7Y-2.6
X0.7Y-2.9
T5
X5.8661Y-0.8346
X5.8661Y-0.9331
X5.9488Y-0.8346
X5.9488Y-0.9331
X6.0512Y-0.8346
X6.0512Y-0.9331
X6.1339Y-0.8346
X6.1339Y-0.9331
X1.8661Y-0.8346
X1.8661Y-0.9331
X1.9488Y-0.8346
X1.9488Y-0.9331
X2.0512Y-0.8346
X2.0512Y-0.9331
X2.1339Y-0.8346
X2.1339Y-0.9331
X2.8661Y-0.8346
X2.8661Y-0.9331
X3.1339Y-0.8346
X3.1339Y-0.9331
T6
X11.1488Y-5.7
X11.9362Y-5.7
X2.0Y-1.3016
X2.0Y-1.4984
X10.35Y-0.85
X10.35Y-1.05
X10.45Y-0.85
X10.45Y-1.05
X10.55Y-0.85
X10.55Y-1.05
X10.65Y-0.85
X10.65Y-1.05
X10.75Y-0.85
X10.75Y-1.05
X10.85Y-0.85
X10.85Y-1.05
X10.95Y-0.85
X10.95Y-1.05
X11.05Y-0.85
X11.05Y-1.05
X11.15Y-0.85
X11.15Y-1.05
X11.25Y-0.85
X11.25Y-1.05
X11.35Y-0.85
X11.35Y-1.05
X11.45Y-0.85
X11.45Y-1.05
X11.55Y-0.85
X11.55Y-1.05
X11.65Y-0.85
X11.65Y-1.05
X11.75Y-0.85
X11.75Y-1.05
X11.85Y-0.85
X11.85Y-1.05
X11.95Y-0.85
X11.95Y-1.05
X12.05Y-0.85
X12.05Y-1.05
X12.15Y-0.85
X12.15Y-1.05
X12.25Y-0.85
X12.25Y-1.05
X12.35Y-0.85
X12.35Y-1.05
X12.45Y-0.85
X12.45Y-1.05
X12.55Y-0.85
X12.55Y-1.05
X12.65Y-0.85
X12.65Y-1.05
X12.75Y-0.85
X12.75Y-1.05
X10.6Y-5.9
X10.7Y-5.9
X2.7Y-3.2
X2.8Y-3.2
X2.9Y-3.2
X4.25Y-2.8
X4.25Y-2.9
X4.5Y-1.3016
X4.5Y-1.4984
X7.75Y-2.15
X7.75Y-2.25
X7.85Y-2.15
X7.85Y-2.25
X7.95Y-2.15
X7.95Y-2.25
X8.05Y-2.15
X8.05Y-2.25
X8.15Y-2.15
X8.15Y-2.25
X8.25Y-2.15
X8.25Y-2.25
X8.35Y-2.15
X8.35Y-2.25
X8.45Y-2.15
X8.45Y-2.25
X10.35Y-1.75
X10.35Y-1.95
X10.45Y-1.75
X10.45Y-1.95
X10.55Y-1.75
X10.55Y-1.95
X10.65Y-1.75
X10.65Y-1.95
X10.75Y-1.75
X10.75Y-1.95
X10.85Y-1.75
X10.85Y-1.95
X10.95Y-1.75
X10.95Y-1.95
X11.05Y-1.75
X11.05Y-1.95
X11.15Y-1.75
X11.15Y-1.95
X11.25Y-1.75
X11.25Y-1.95
X11.35Y-1.75
X11.35Y-1.95
X11.45Y-1.75
X11.45Y-1.95
X11.55Y-1.75
X11.55Y-1.95
X11.65Y-1.75
X11.65Y-1.95
X11.75Y-1.75
X11.75Y-1.95
X11.85Y-1.75
X11.85Y-1.95
X11.95Y-1.75
X11.95Y-1.95
X12.05Y-1.75
X12.05Y-1.95
X12.15Y-1.75
X12.15Y-1.95
X12.25Y-1.75
X12.25Y-1.95
X12.35Y-1.75
X12.35Y-1.95
X12.45Y-1.75
X12.45Y-1.95
X12.55Y-1.75
X12.55Y-1.95
X12.65Y-1.75
X12.65Y-1.95
X12.75Y-1.75
X12.75Y-1.95
X2.7Y-4.15
X2.7Y-4.25
X2.7Y-4.35
X2.5Y-1.3016
X2.5Y-1.4984
X11.4Y-3.0
X11.4Y-3.1
X11.4Y-3.2
X11.4Y-3.3
X11.4Y-3.4
X11.4Y-3.5
X11.4Y-3.6
X11.4Y-3.7
X11.4Y-3.8
X11.4Y-3.9
X11.4Y-4.0
X11.4Y-4.1
X11.4Y-4.2
X11.4Y-4.3
X11.4Y-4.4
X11.4Y-4.5
X11.4Y-4.6
X11.4Y-4.7
X11.4Y-4.8
X11.4Y-4.9
X11.5Y-3.0
X11.5Y-3.1
X11.5Y-3.2
X11.5Y-3.3
X11.5Y-3.4
X11.5Y-3.5
X11.5Y-3.6
X11.5Y-3.7
X11.5Y-3.8
X11.5Y-3.9
X11.5Y-4.0
X11.5Y-4.1
X11.5Y-4.2
X11.5Y-4.3
X11.5Y-4.4
X11.5Y-4.5
X11.5Y-4.6
X11.5Y-4.7
X11.5Y-4.8
X11.5Y-4.9
X3.0Y-1.3016
X3.0Y-1.4984
X0.7Y-1.4
X0.8Y-1.4
X0.9Y-1.4
X1.0Y-1.4
X1.1Y-1.4
X1.2Y-1.4
X1.3Y-1.4
X1.4Y-1.4
X3.5Y-1.3016
X3.5Y-1.4984
X4.0Y-1.3016
X4.0Y-1.4984
X3.1Y-3.2
X3.2Y-3.2
X3.3Y-3.2
T7
X4.784Y-5.969
X4.838Y-6.081
X4.892Y-5.969
X4.945Y-6.081
X5.0Y-5.969
X5.054Y-6.081
X5.108Y-5.969
X5.162Y-6.081
X5.216Y-5.969
X2.784Y-5.969
X2.838Y-6.081
X2.892Y-5.969
X2.945Y-6.081
X3.0Y-5.969
X3.054Y-6.081
X3.108Y-5.969
X3.162Y-6.081
X3.216Y-5.969
X7.346Y-0.931
X7.4005Y-0.819
X7.455Y-0.931
X7.5095Y-0.819
X7.564Y-0.931
X7.6185Y-0.819
X7.673Y-0.931
X7.7275Y-0.819
X7.782Y-0.931
X7.8365Y-0.819
X7.891Y-0.931
X7.9455Y-0.819
X8.0Y-0.931
X8.0545Y-0.819
X8.109Y-0.931
X8.1635Y-0.819
X8.218Y-0.931
X8.2725Y-0.819
X8.327Y-0.931
X8.3815Y-0.819
X8.436Y-0.931
X8.4905Y-0.819
X8.545Y-0.931
X8.5995Y-0.819
X8.654Y-0.931
T8
X2.9Y-1.85
X3.1Y-1.85
X0.9Y-5.75
X1.1Y-5.75
T9
X4.0Y-0.85
X5.0Y-0.85
T10
X5.7343Y-0.7165
X6.0Y-0.685
X6.2657Y-0.7165
X1.7343Y-0.7165
X2.0Y-0.685
X2.2657Y-0.7165
X2.7343Y-0.7165
X3.0Y-0.685
X3.2657Y-0.7165
T11
X0.811Y-0.9306
X1.0Y-0.8125
T12
X3.8Y-0.85
X4.0Y-0.65
X4.2Y-0.85
X4.8Y-0.85
X5.0Y-0.65
X5.2Y-0.85
T13
X10.0125Y-1.85
X7.0Y-6.15
X1.7Y-6.15
X1.7Y-1.75
X13.0875Y-0.95
X13.1Y-4.45
X10.0125Y-0.95
X11.1Y-6.15
X7.0Y-1.75
X11.95Y-2.95
X13.0875Y-1.85
T14
X4.5081Y-6.025
X5.4919Y-6.025
X2.5081Y-6.025
X3.4919Y-6.025
X7.074Y-0.875
X8.926Y-0.875
T15
X1.0Y-1.0566
T0
M30
