G04 #@! TF.GenerationSoftware,KiCad,Pcbnew,(5.1.0)-1*
<<<<<<< HEAD
G04 #@! TF.CreationDate,2019-10-18T17:23:07-07:00*
=======
G04 #@! TF.CreationDate,2019-10-16T22:54:57-07:00*
>>>>>>> cbeb0d5ef9f06e8e0b89049008452a4f096efef7
G04 #@! TF.ProjectId,Omega-Mainboard,4f6d6567-612d-44d6-9169-6e626f617264,rev?*
G04 #@! TF.SameCoordinates,Original*
G04 #@! TF.FileFunction,Legend,Bot*
G04 #@! TF.FilePolarity,Positive*
%FSLAX46Y46*%
G04 Gerber Fmt 4.6, Leading zero omitted, Abs format (unit mm)*
<<<<<<< HEAD
G04 Created by KiCad (PCBNEW (5.1.0)-1) date 2019-10-18 17:23:07*
=======
G04 Created by KiCad (PCBNEW (5.1.0)-1) date 2019-10-16 22:54:57*
>>>>>>> cbeb0d5ef9f06e8e0b89049008452a4f096efef7
%MOMM*%
%LPD*%
G04 APERTURE LIST*
%ADD10C,0.150000*%
%ADD11C,0.200000*%
G04 APERTURE END LIST*
D10*
X46037500Y-26987500D02*
X46037500Y-32067500D01*
X50800000Y-27940000D02*
X50800000Y-26987500D01*
X58420000Y-29845000D02*
X58102500Y-29527500D01*
X57785000Y-29845000D02*
X58102500Y-29527500D01*
X58102500Y-29527500D02*
X57785000Y-29845000D01*
X58102500Y-32067500D02*
X58102500Y-29527500D01*
X50800000Y-26987500D02*
X51117500Y-27305000D01*
X50800000Y-26987500D02*
X50482500Y-27305000D01*
X54927500Y-32067500D02*
X50800000Y-27940000D01*
X52070000Y-31432500D02*
X52387500Y-31432500D01*
X52070000Y-31750000D02*
X52070000Y-31432500D01*
X52705000Y-32067500D02*
X52070000Y-31432500D01*
X48577500Y-29527500D02*
X48895000Y-29845000D01*
X48577500Y-29527500D02*
X48260000Y-29845000D01*
X48577500Y-32067500D02*
X48577500Y-29527500D01*
X46355000Y-27305000D02*
X46037500Y-26987500D01*
X45720000Y-27305000D02*
X46037500Y-26987500D01*
X43497500Y-29527500D02*
X43815000Y-29845000D01*
X43180000Y-29845000D02*
X43497500Y-29527500D01*
X43497500Y-32067500D02*
X43497500Y-29527500D01*
D11*
X43949880Y-33007023D02*
X43473690Y-32673690D01*
X43949880Y-32435595D02*
X42949880Y-32435595D01*
X42949880Y-32816547D01*
X42997500Y-32911785D01*
X43045119Y-32959404D01*
X43140357Y-33007023D01*
X43283214Y-33007023D01*
X43378452Y-32959404D01*
X43426071Y-32911785D01*
X43473690Y-32816547D01*
X43473690Y-32435595D01*
X43902261Y-33816547D02*
X43949880Y-33721309D01*
X43949880Y-33530833D01*
X43902261Y-33435595D01*
X43807023Y-33387976D01*
X43426071Y-33387976D01*
X43330833Y-33435595D01*
X43283214Y-33530833D01*
X43283214Y-33721309D01*
X43330833Y-33816547D01*
X43426071Y-33864166D01*
X43521309Y-33864166D01*
X43616547Y-33387976D01*
X43949880Y-34721309D02*
X42949880Y-34721309D01*
X43902261Y-34721309D02*
X43949880Y-34626071D01*
X43949880Y-34435595D01*
X43902261Y-34340357D01*
X43854642Y-34292738D01*
X43759404Y-34245119D01*
X43473690Y-34245119D01*
X43378452Y-34292738D01*
X43330833Y-34340357D01*
X43283214Y-34435595D01*
X43283214Y-34626071D01*
X43330833Y-34721309D01*
X45537500Y-32959404D02*
X45489880Y-32864166D01*
X45489880Y-32721309D01*
X45537500Y-32578452D01*
X45632738Y-32483214D01*
X45727976Y-32435595D01*
X45918452Y-32387976D01*
X46061309Y-32387976D01*
X46251785Y-32435595D01*
X46347023Y-32483214D01*
X46442261Y-32578452D01*
X46489880Y-32721309D01*
X46489880Y-32816547D01*
X46442261Y-32959404D01*
X46394642Y-33007023D01*
X46061309Y-33007023D01*
X46061309Y-32816547D01*
X46489880Y-33435595D02*
X45489880Y-33435595D01*
X46489880Y-34007023D01*
X45489880Y-34007023D01*
X46489880Y-34483214D02*
X45489880Y-34483214D01*
X45489880Y-34721309D01*
X45537500Y-34864166D01*
X45632738Y-34959404D01*
X45727976Y-35007023D01*
X45918452Y-35054642D01*
X46061309Y-35054642D01*
X46251785Y-35007023D01*
X46347023Y-34959404D01*
X46442261Y-34864166D01*
X46489880Y-34721309D01*
X46489880Y-34483214D01*
X55729166Y-32387976D02*
X55729166Y-32864166D01*
X56014880Y-32292738D02*
X55014880Y-32626071D01*
X56014880Y-32959404D01*
X55348214Y-33721309D02*
X56014880Y-33721309D01*
X55348214Y-33292738D02*
X55872023Y-33292738D01*
X55967261Y-33340357D01*
X56014880Y-33435595D01*
X56014880Y-33578452D01*
X55967261Y-33673690D01*
X55919642Y-33721309D01*
X56014880Y-34626071D02*
X55014880Y-34626071D01*
X55967261Y-34626071D02*
X56014880Y-34530833D01*
X56014880Y-34340357D01*
X55967261Y-34245119D01*
X55919642Y-34197500D01*
X55824404Y-34149880D01*
X55538690Y-34149880D01*
X55443452Y-34197500D01*
X55395833Y-34245119D01*
X55348214Y-34340357D01*
X55348214Y-34530833D01*
X55395833Y-34626071D01*
X56014880Y-35102261D02*
X55348214Y-35102261D01*
X55014880Y-35102261D02*
X55062500Y-35054642D01*
X55110119Y-35102261D01*
X55062500Y-35149880D01*
X55014880Y-35102261D01*
X55110119Y-35102261D01*
X56014880Y-35721309D02*
X55967261Y-35626071D01*
X55919642Y-35578452D01*
X55824404Y-35530833D01*
X55538690Y-35530833D01*
X55443452Y-35578452D01*
X55395833Y-35626071D01*
X55348214Y-35721309D01*
X55348214Y-35864166D01*
X55395833Y-35959404D01*
X55443452Y-36007023D01*
X55538690Y-36054642D01*
X55824404Y-36054642D01*
X55919642Y-36007023D01*
X55967261Y-35959404D01*
X56014880Y-35864166D01*
X56014880Y-35721309D01*
X48934642Y-33007023D02*
X48982261Y-32959404D01*
X49029880Y-32816547D01*
X49029880Y-32721309D01*
X48982261Y-32578452D01*
X48887023Y-32483214D01*
X48791785Y-32435595D01*
X48601309Y-32387976D01*
X48458452Y-32387976D01*
X48267976Y-32435595D01*
X48172738Y-32483214D01*
X48077500Y-32578452D01*
X48029880Y-32721309D01*
X48029880Y-32816547D01*
X48077500Y-32959404D01*
X48125119Y-33007023D01*
X49029880Y-33578452D02*
X48982261Y-33483214D01*
X48934642Y-33435595D01*
X48839404Y-33387976D01*
X48553690Y-33387976D01*
X48458452Y-33435595D01*
X48410833Y-33483214D01*
X48363214Y-33578452D01*
X48363214Y-33721309D01*
X48410833Y-33816547D01*
X48458452Y-33864166D01*
X48553690Y-33911785D01*
X48839404Y-33911785D01*
X48934642Y-33864166D01*
X48982261Y-33816547D01*
X49029880Y-33721309D01*
X49029880Y-33578452D01*
X49029880Y-34340357D02*
X48363214Y-34340357D01*
X48458452Y-34340357D02*
X48410833Y-34387976D01*
X48363214Y-34483214D01*
X48363214Y-34626071D01*
X48410833Y-34721309D01*
X48506071Y-34768928D01*
X49029880Y-34768928D01*
X48506071Y-34768928D02*
X48410833Y-34816547D01*
X48363214Y-34911785D01*
X48363214Y-35054642D01*
X48410833Y-35149880D01*
X48506071Y-35197500D01*
X49029880Y-35197500D01*
X48363214Y-35673690D02*
X49363214Y-35673690D01*
X48410833Y-35673690D02*
X48363214Y-35768928D01*
X48363214Y-35959404D01*
X48410833Y-36054642D01*
X48458452Y-36102261D01*
X48553690Y-36149880D01*
X48839404Y-36149880D01*
X48934642Y-36102261D01*
X48982261Y-36054642D01*
X49029880Y-35959404D01*
X49029880Y-35768928D01*
X48982261Y-35673690D01*
X49029880Y-36721309D02*
X48982261Y-36626071D01*
X48934642Y-36578452D01*
X48839404Y-36530833D01*
X48553690Y-36530833D01*
X48458452Y-36578452D01*
X48410833Y-36626071D01*
X48363214Y-36721309D01*
X48363214Y-36864166D01*
X48410833Y-36959404D01*
X48458452Y-37007023D01*
X48553690Y-37054642D01*
X48839404Y-37054642D01*
X48934642Y-37007023D01*
X48982261Y-36959404D01*
X49029880Y-36864166D01*
X49029880Y-36721309D01*
X48982261Y-37435595D02*
X49029880Y-37530833D01*
X49029880Y-37721309D01*
X48982261Y-37816547D01*
X48887023Y-37864166D01*
X48839404Y-37864166D01*
X48744166Y-37816547D01*
X48696547Y-37721309D01*
X48696547Y-37578452D01*
X48648928Y-37483214D01*
X48553690Y-37435595D01*
X48506071Y-37435595D01*
X48410833Y-37483214D01*
X48363214Y-37578452D01*
X48363214Y-37721309D01*
X48410833Y-37816547D01*
X49029880Y-38292738D02*
X48363214Y-38292738D01*
X48029880Y-38292738D02*
X48077500Y-38245119D01*
X48125119Y-38292738D01*
X48077500Y-38340357D01*
X48029880Y-38292738D01*
X48125119Y-38292738D01*
X48363214Y-38626071D02*
X48363214Y-39007023D01*
X48029880Y-38768928D02*
X48887023Y-38768928D01*
X48982261Y-38816547D01*
X49029880Y-38911785D01*
X49029880Y-39007023D01*
X48982261Y-39721309D02*
X49029880Y-39626071D01*
X49029880Y-39435595D01*
X48982261Y-39340357D01*
X48887023Y-39292738D01*
X48506071Y-39292738D01*
X48410833Y-39340357D01*
X48363214Y-39435595D01*
X48363214Y-39626071D01*
X48410833Y-39721309D01*
X48506071Y-39768928D01*
X48601309Y-39768928D01*
X48696547Y-39292738D01*
X52951071Y-32768928D02*
X52998690Y-32911785D01*
X53046309Y-32959404D01*
X53141547Y-33007023D01*
X53284404Y-33007023D01*
X53379642Y-32959404D01*
X53427261Y-32911785D01*
X53474880Y-32816547D01*
X53474880Y-32435595D01*
X52474880Y-32435595D01*
X52474880Y-32768928D01*
X52522500Y-32864166D01*
X52570119Y-32911785D01*
X52665357Y-32959404D01*
X52760595Y-32959404D01*
X52855833Y-32911785D01*
X52903452Y-32864166D01*
X52951071Y-32768928D01*
X52951071Y-32435595D01*
X53474880Y-33578452D02*
X53427261Y-33483214D01*
X53332023Y-33435595D01*
X52474880Y-33435595D01*
X52808214Y-34387976D02*
X53474880Y-34387976D01*
X52808214Y-33959404D02*
X53332023Y-33959404D01*
X53427261Y-34007023D01*
X53474880Y-34102261D01*
X53474880Y-34245119D01*
X53427261Y-34340357D01*
X53379642Y-34387976D01*
X53427261Y-35245119D02*
X53474880Y-35149880D01*
X53474880Y-34959404D01*
X53427261Y-34864166D01*
X53332023Y-34816547D01*
X52951071Y-34816547D01*
X52855833Y-34864166D01*
X52808214Y-34959404D01*
X52808214Y-35149880D01*
X52855833Y-35245119D01*
X52951071Y-35292738D01*
X53046309Y-35292738D01*
X53141547Y-34816547D01*
X57602500Y-32959404D02*
X57554880Y-32864166D01*
X57554880Y-32721309D01*
X57602500Y-32578452D01*
X57697738Y-32483214D01*
X57792976Y-32435595D01*
X57983452Y-32387976D01*
X58126309Y-32387976D01*
X58316785Y-32435595D01*
X58412023Y-32483214D01*
X58507261Y-32578452D01*
X58554880Y-32721309D01*
X58554880Y-32816547D01*
X58507261Y-32959404D01*
X58459642Y-33007023D01*
X58126309Y-33007023D01*
X58126309Y-32816547D01*
X58554880Y-33435595D02*
X57888214Y-33435595D01*
X58078690Y-33435595D02*
X57983452Y-33483214D01*
X57935833Y-33530833D01*
X57888214Y-33626071D01*
X57888214Y-33721309D01*
X58507261Y-34435595D02*
X58554880Y-34340357D01*
X58554880Y-34149880D01*
X58507261Y-34054642D01*
X58412023Y-34007023D01*
X58031071Y-34007023D01*
X57935833Y-34054642D01*
X57888214Y-34149880D01*
X57888214Y-34340357D01*
X57935833Y-34435595D01*
X58031071Y-34483214D01*
X58126309Y-34483214D01*
X58221547Y-34007023D01*
X58507261Y-35292738D02*
X58554880Y-35197500D01*
X58554880Y-35007023D01*
X58507261Y-34911785D01*
X58412023Y-34864166D01*
X58031071Y-34864166D01*
X57935833Y-34911785D01*
X57888214Y-35007023D01*
X57888214Y-35197500D01*
X57935833Y-35292738D01*
X58031071Y-35340357D01*
X58126309Y-35340357D01*
X58221547Y-34864166D01*
X57888214Y-35768928D02*
X58554880Y-35768928D01*
X57983452Y-35768928D02*
X57935833Y-35816547D01*
X57888214Y-35911785D01*
X57888214Y-36054642D01*
X57935833Y-36149880D01*
X58031071Y-36197500D01*
X58554880Y-36197500D01*
M02*
