G04 #@! TF.GenerationSoftware,KiCad,Pcbnew,(5.1.0)-1*
G04 #@! TF.CreationDate,2019-10-09T16:22:28-07:00*
G04 #@! TF.ProjectId,Omega-Mainboard,4f6d6567-612d-44d6-9169-6e626f617264,rev?*
G04 #@! TF.SameCoordinates,Original*
G04 #@! TF.FileFunction,Soldermask,Bot*
G04 #@! TF.FilePolarity,Negative*
%FSLAX46Y46*%
G04 Gerber Fmt 4.6, Leading zero omitted, Abs format (unit mm)*
G04 Created by KiCad (PCBNEW (5.1.0)-1) date 2019-10-09 16:22:28*
%MOMM*%
%LPD*%
G04 APERTURE LIST*
%ADD10C,4.448760*%
%ADD11R,1.924000X1.924000*%
%ADD12C,1.924000*%
%ADD13R,1.797000X1.797000*%
%ADD14C,1.797000*%
%ADD15C,1.771600*%
%ADD16C,4.400500*%
%ADD17R,1.890980X1.890980*%
%ADD18C,1.890980*%
%ADD19R,1.416000X1.416000*%
%ADD20C,1.416000*%
%ADD21C,4.464000*%
%ADD22R,2.178000X2.178000*%
%ADD23C,2.178000*%
%ADD24C,2.398980*%
%ADD25C,4.400000*%
%ADD26C,4.900000*%
%ADD27C,3.371800*%
G04 APERTURE END LIST*
D10*
X221200000Y-23300000D03*
X185200000Y-23300000D03*
D11*
X196720000Y-25445000D03*
D12*
X198880000Y-25445000D03*
X201040000Y-25445000D03*
X203200000Y-25445000D03*
X205360000Y-25445000D03*
X207520000Y-25445000D03*
X209680000Y-25445000D03*
X203200000Y-21155000D03*
X196720000Y-21155000D03*
X198880000Y-21155000D03*
X201040000Y-21155000D03*
X205360000Y-21155000D03*
X207520000Y-21155000D03*
X209680000Y-21155000D03*
D13*
X119380000Y-137160000D03*
D14*
X119380000Y-134620000D03*
X119380000Y-132080000D03*
X119380000Y-129540000D03*
X119380000Y-127000000D03*
X119380000Y-124460000D03*
X119380000Y-121920000D03*
X111760000Y-121920000D03*
X111760000Y-124460000D03*
X111760000Y-127000000D03*
X111760000Y-129540000D03*
X111760000Y-132080000D03*
X111760000Y-134620000D03*
X111760000Y-137160000D03*
D13*
X132080000Y-137160000D03*
D14*
X132080000Y-134620000D03*
X132080000Y-132080000D03*
X132080000Y-129540000D03*
X132080000Y-127000000D03*
X132080000Y-124460000D03*
X132080000Y-121920000D03*
X124460000Y-121920000D03*
X124460000Y-124460000D03*
X124460000Y-127000000D03*
X124460000Y-129540000D03*
X124460000Y-132080000D03*
X124460000Y-134620000D03*
X124460000Y-137160000D03*
D13*
X132080000Y-81280000D03*
D14*
X132080000Y-78740000D03*
X132080000Y-76200000D03*
X132080000Y-73660000D03*
X132080000Y-71120000D03*
X132080000Y-68580000D03*
X132080000Y-66040000D03*
X124460000Y-66040000D03*
X124460000Y-68580000D03*
X124460000Y-71120000D03*
X124460000Y-73660000D03*
X124460000Y-76200000D03*
X124460000Y-78740000D03*
X124460000Y-81280000D03*
D13*
X218440000Y-104140000D03*
D14*
X218440000Y-101600000D03*
X218440000Y-99060000D03*
X218440000Y-96520000D03*
X218440000Y-93980000D03*
X218440000Y-91440000D03*
X218440000Y-88900000D03*
X218440000Y-86360000D03*
X218440000Y-83820000D03*
X218440000Y-81280000D03*
X210820000Y-81280000D03*
X210820000Y-83820000D03*
X210820000Y-86360000D03*
X210820000Y-88900000D03*
X210820000Y-91440000D03*
X210820000Y-93980000D03*
X210820000Y-96520000D03*
X210820000Y-99060000D03*
X210820000Y-101600000D03*
X210820000Y-104140000D03*
D13*
X180340000Y-116840000D03*
D14*
X180340000Y-114300000D03*
X180340000Y-111760000D03*
X180340000Y-109220000D03*
X180340000Y-106680000D03*
X180340000Y-104140000D03*
X180340000Y-101600000D03*
X180340000Y-99060000D03*
X180340000Y-96520000D03*
X180340000Y-93980000D03*
X180340000Y-91440000D03*
X180340000Y-88900000D03*
X180340000Y-86360000D03*
X180340000Y-83820000D03*
X180340000Y-81280000D03*
X180340000Y-78740000D03*
X180340000Y-76200000D03*
X180340000Y-73660000D03*
X180340000Y-71120000D03*
X180340000Y-68580000D03*
X165100000Y-68580000D03*
X165100000Y-71120000D03*
X165100000Y-73660000D03*
X165100000Y-76200000D03*
X165100000Y-78740000D03*
X165100000Y-81280000D03*
X165100000Y-83820000D03*
X165100000Y-86360000D03*
X165100000Y-88900000D03*
X165100000Y-91440000D03*
X165100000Y-93980000D03*
X165100000Y-96520000D03*
X165100000Y-99060000D03*
X165100000Y-101600000D03*
X165100000Y-104140000D03*
X165100000Y-106680000D03*
X165100000Y-109220000D03*
X165100000Y-111760000D03*
X165100000Y-114300000D03*
X165100000Y-116840000D03*
D13*
X213360000Y-76200000D03*
D14*
X215900000Y-76200000D03*
X218440000Y-76200000D03*
X220980000Y-76200000D03*
X223520000Y-76200000D03*
X226060000Y-76200000D03*
X228600000Y-76200000D03*
X231140000Y-76200000D03*
X233680000Y-76200000D03*
X236220000Y-76200000D03*
D13*
X213360000Y-71120000D03*
D14*
X215900000Y-71120000D03*
X218440000Y-71120000D03*
X220980000Y-71120000D03*
X223520000Y-71120000D03*
X226060000Y-71120000D03*
X228600000Y-71120000D03*
X231140000Y-71120000D03*
X233680000Y-71120000D03*
X236220000Y-71120000D03*
X236220000Y-63500000D03*
X233680000Y-63500000D03*
X231140000Y-63500000D03*
X228600000Y-63500000D03*
X226060000Y-63500000D03*
X223520000Y-63500000D03*
X220980000Y-63500000D03*
X218440000Y-63500000D03*
X215900000Y-63500000D03*
X213360000Y-63500000D03*
X227330000Y-109220000D03*
X232410000Y-109220000D03*
D12*
X262890000Y-49530000D03*
X262890000Y-44450000D03*
X265430000Y-49530000D03*
X265430000Y-44450000D03*
X267970000Y-49530000D03*
X267970000Y-44450000D03*
X270510000Y-49530000D03*
X270510000Y-44450000D03*
X273050000Y-49530000D03*
X273050000Y-44450000D03*
X275590000Y-49530000D03*
X275590000Y-44450000D03*
X278130000Y-49530000D03*
X278130000Y-44450000D03*
X280670000Y-49530000D03*
X280670000Y-44450000D03*
X283210000Y-49530000D03*
X283210000Y-44450000D03*
X285750000Y-49530000D03*
X285750000Y-44450000D03*
X288290000Y-49530000D03*
X288290000Y-44450000D03*
X290830000Y-49530000D03*
X290830000Y-44450000D03*
X293370000Y-49530000D03*
X293370000Y-44450000D03*
X295910000Y-49530000D03*
X295910000Y-44450000D03*
X298450000Y-49530000D03*
X298450000Y-44450000D03*
X300990000Y-49530000D03*
X300990000Y-44450000D03*
X303530000Y-49530000D03*
X303530000Y-44450000D03*
X306070000Y-49530000D03*
X306070000Y-44450000D03*
X308610000Y-49530000D03*
X308610000Y-44450000D03*
X311150000Y-49530000D03*
X311150000Y-44450000D03*
X313690000Y-49530000D03*
X313690000Y-44450000D03*
X316230000Y-49530000D03*
X316230000Y-44450000D03*
X318770000Y-49530000D03*
X318770000Y-44450000D03*
X321310000Y-49530000D03*
X321310000Y-44450000D03*
X323850000Y-49530000D03*
X323850000Y-44450000D03*
D10*
X63705740Y-153035000D03*
X88694260Y-153035000D03*
D11*
X70713600Y-151612600D03*
D12*
X73456800Y-151612600D03*
X76200000Y-151612600D03*
X78943200Y-151612600D03*
X81686400Y-151612600D03*
X80314800Y-154457400D03*
X77571600Y-154457400D03*
X74803000Y-154457400D03*
X72085200Y-154457400D03*
D13*
X302260000Y-119380000D03*
D14*
X302260000Y-116840000D03*
X302260000Y-114300000D03*
X302260000Y-111760000D03*
X302260000Y-109220000D03*
X302260000Y-106680000D03*
X302260000Y-104140000D03*
X302260000Y-101600000D03*
X302260000Y-99060000D03*
X302260000Y-96520000D03*
X302260000Y-93980000D03*
X302260000Y-91440000D03*
X302260000Y-88900000D03*
X302260000Y-86360000D03*
X302260000Y-83820000D03*
X302260000Y-81280000D03*
X287020000Y-81280000D03*
X287020000Y-83820000D03*
X287020000Y-86360000D03*
X287020000Y-88900000D03*
X287020000Y-91440000D03*
X287020000Y-93980000D03*
X287020000Y-96520000D03*
X287020000Y-99060000D03*
X287020000Y-101600000D03*
X287020000Y-104140000D03*
X287020000Y-106680000D03*
X287020000Y-109220000D03*
X287020000Y-111760000D03*
X287020000Y-114300000D03*
X287020000Y-116840000D03*
X287020000Y-119380000D03*
D13*
X325120000Y-119380000D03*
D14*
X325120000Y-116840000D03*
X325120000Y-114300000D03*
X325120000Y-111760000D03*
X325120000Y-109220000D03*
X325120000Y-106680000D03*
X325120000Y-104140000D03*
X325120000Y-101600000D03*
X325120000Y-99060000D03*
X325120000Y-96520000D03*
X325120000Y-93980000D03*
X325120000Y-91440000D03*
X325120000Y-88900000D03*
X325120000Y-86360000D03*
X325120000Y-83820000D03*
X325120000Y-81280000D03*
X309880000Y-81280000D03*
X309880000Y-83820000D03*
X309880000Y-86360000D03*
X309880000Y-88900000D03*
X309880000Y-91440000D03*
X309880000Y-93980000D03*
X309880000Y-96520000D03*
X309880000Y-99060000D03*
X309880000Y-101600000D03*
X309880000Y-104140000D03*
X309880000Y-106680000D03*
X309880000Y-109220000D03*
X309880000Y-111760000D03*
X309880000Y-114300000D03*
X309880000Y-116840000D03*
X309880000Y-119380000D03*
D13*
X279400000Y-69850000D03*
D14*
X281940000Y-69850000D03*
X284480000Y-69850000D03*
X287020000Y-69850000D03*
X289560000Y-69850000D03*
X292100000Y-69850000D03*
X294640000Y-69850000D03*
X297180000Y-69850000D03*
X299720000Y-69850000D03*
X302260000Y-69850000D03*
X302260000Y-62230000D03*
X299720000Y-62230000D03*
X297180000Y-62230000D03*
X294640000Y-62230000D03*
X292100000Y-62230000D03*
X289560000Y-62230000D03*
X287020000Y-62230000D03*
X284480000Y-62230000D03*
X281940000Y-62230000D03*
X279400000Y-62230000D03*
D12*
X289529520Y-147320000D03*
X309529480Y-147320000D03*
D13*
X279400000Y-116840000D03*
D14*
X279400000Y-114300000D03*
X279400000Y-111760000D03*
X279400000Y-109220000D03*
X279400000Y-106680000D03*
X279400000Y-104140000D03*
X279400000Y-101600000D03*
X271780000Y-101600000D03*
X271780000Y-104140000D03*
X271780000Y-106680000D03*
X271780000Y-109220000D03*
X271780000Y-111760000D03*
X271780000Y-114300000D03*
X271780000Y-116840000D03*
X273050000Y-123190000D03*
X278130000Y-123190000D03*
D13*
X246380000Y-76200000D03*
D14*
X248920000Y-76200000D03*
X251460000Y-76200000D03*
X254000000Y-76200000D03*
X256540000Y-76200000D03*
X259080000Y-76200000D03*
X261620000Y-76200000D03*
X264160000Y-76200000D03*
X266700000Y-76200000D03*
X269240000Y-76200000D03*
X269240000Y-68580000D03*
X266700000Y-68580000D03*
X264160000Y-68580000D03*
X261620000Y-68580000D03*
X259080000Y-68580000D03*
X256540000Y-68580000D03*
X254000000Y-68580000D03*
X251460000Y-68580000D03*
X248920000Y-68580000D03*
X246380000Y-68580000D03*
D13*
X246380000Y-91440000D03*
D14*
X248920000Y-91440000D03*
X251460000Y-91440000D03*
X254000000Y-91440000D03*
X256540000Y-91440000D03*
X259080000Y-91440000D03*
X261620000Y-91440000D03*
X264160000Y-91440000D03*
X266700000Y-91440000D03*
X269240000Y-91440000D03*
X269240000Y-83820000D03*
X266700000Y-83820000D03*
X264160000Y-83820000D03*
X261620000Y-83820000D03*
X259080000Y-83820000D03*
X256540000Y-83820000D03*
X254000000Y-83820000D03*
X251460000Y-83820000D03*
X248920000Y-83820000D03*
X246380000Y-83820000D03*
D13*
X218440000Y-149860000D03*
D14*
X218440000Y-147320000D03*
X218440000Y-144780000D03*
X218440000Y-142240000D03*
X218440000Y-139700000D03*
X218440000Y-137160000D03*
X218440000Y-134620000D03*
X218440000Y-132080000D03*
X218440000Y-129540000D03*
X210820000Y-129540000D03*
X210820000Y-132080000D03*
X210820000Y-134620000D03*
X210820000Y-137160000D03*
X210820000Y-139700000D03*
X210820000Y-142240000D03*
X210820000Y-144780000D03*
X210820000Y-147320000D03*
X210820000Y-149860000D03*
D13*
X132080000Y-109220000D03*
D14*
X132080000Y-106680000D03*
X132080000Y-104140000D03*
X132080000Y-101600000D03*
X132080000Y-99060000D03*
X132080000Y-96520000D03*
X132080000Y-93980000D03*
X124460000Y-93980000D03*
X124460000Y-96520000D03*
X124460000Y-99060000D03*
X124460000Y-101600000D03*
X124460000Y-104140000D03*
X124460000Y-106680000D03*
X124460000Y-109220000D03*
D13*
X104140000Y-109220000D03*
D14*
X104140000Y-106680000D03*
X104140000Y-104140000D03*
X104140000Y-101600000D03*
X104140000Y-99060000D03*
X104140000Y-96520000D03*
X104140000Y-93980000D03*
X104140000Y-91440000D03*
X104140000Y-88900000D03*
X104140000Y-86360000D03*
X104140000Y-83820000D03*
X104140000Y-81280000D03*
X104140000Y-78740000D03*
X104140000Y-76200000D03*
X104140000Y-73660000D03*
X104140000Y-71120000D03*
X104140000Y-68580000D03*
X104140000Y-66040000D03*
X104140000Y-63500000D03*
X104140000Y-60960000D03*
X88900000Y-60960000D03*
X88900000Y-63500000D03*
X88900000Y-66040000D03*
X88900000Y-68580000D03*
X88900000Y-71120000D03*
X88900000Y-73660000D03*
X88900000Y-76200000D03*
X88900000Y-78740000D03*
X88900000Y-81280000D03*
X88900000Y-83820000D03*
X88900000Y-86360000D03*
X88900000Y-88900000D03*
X88900000Y-91440000D03*
X88900000Y-93980000D03*
X88900000Y-96520000D03*
X88900000Y-99060000D03*
X88900000Y-101600000D03*
X88900000Y-104140000D03*
X88900000Y-106680000D03*
X88900000Y-109220000D03*
D13*
X144780000Y-137160000D03*
D14*
X144780000Y-134620000D03*
X144780000Y-132080000D03*
X144780000Y-129540000D03*
X144780000Y-127000000D03*
X144780000Y-124460000D03*
X144780000Y-121920000D03*
X137160000Y-121920000D03*
X137160000Y-124460000D03*
X137160000Y-127000000D03*
X137160000Y-129540000D03*
X137160000Y-132080000D03*
X137160000Y-134620000D03*
X137160000Y-137160000D03*
D13*
X20320000Y-60960000D03*
D14*
X22860000Y-60960000D03*
X25400000Y-60960000D03*
X27940000Y-60960000D03*
X30480000Y-60960000D03*
X33020000Y-60960000D03*
X35560000Y-60960000D03*
X35560000Y-53340000D03*
X33020000Y-53340000D03*
X30480000Y-53340000D03*
X27940000Y-53340000D03*
X25400000Y-53340000D03*
X22860000Y-53340000D03*
X20320000Y-53340000D03*
D13*
X144780000Y-109220000D03*
D14*
X144780000Y-106680000D03*
X144780000Y-104140000D03*
X144780000Y-101600000D03*
X144780000Y-99060000D03*
X144780000Y-96520000D03*
X144780000Y-93980000D03*
X137160000Y-93980000D03*
X137160000Y-96520000D03*
X137160000Y-99060000D03*
X137160000Y-101600000D03*
X137160000Y-104140000D03*
X137160000Y-106680000D03*
X137160000Y-109220000D03*
D13*
X157480000Y-116840000D03*
D14*
X157480000Y-114300000D03*
X157480000Y-111760000D03*
X157480000Y-109220000D03*
X157480000Y-106680000D03*
X157480000Y-104140000D03*
X157480000Y-101600000D03*
X157480000Y-99060000D03*
X157480000Y-96520000D03*
X157480000Y-93980000D03*
X149860000Y-93980000D03*
X149860000Y-96520000D03*
X149860000Y-99060000D03*
X149860000Y-101600000D03*
X149860000Y-104140000D03*
X149860000Y-106680000D03*
X149860000Y-109220000D03*
X149860000Y-111760000D03*
X149860000Y-114300000D03*
X149860000Y-116840000D03*
D13*
X203200000Y-116840000D03*
D14*
X203200000Y-114300000D03*
X203200000Y-111760000D03*
X203200000Y-109220000D03*
X203200000Y-106680000D03*
X203200000Y-104140000D03*
X203200000Y-101600000D03*
X203200000Y-99060000D03*
X203200000Y-96520000D03*
X203200000Y-93980000D03*
X203200000Y-91440000D03*
X203200000Y-88900000D03*
X203200000Y-86360000D03*
X203200000Y-83820000D03*
X203200000Y-81280000D03*
X203200000Y-78740000D03*
X203200000Y-76200000D03*
X203200000Y-73660000D03*
X203200000Y-71120000D03*
X203200000Y-68580000D03*
X187960000Y-68580000D03*
X187960000Y-71120000D03*
X187960000Y-73660000D03*
X187960000Y-76200000D03*
X187960000Y-78740000D03*
X187960000Y-81280000D03*
X187960000Y-83820000D03*
X187960000Y-86360000D03*
X187960000Y-88900000D03*
X187960000Y-91440000D03*
X187960000Y-93980000D03*
X187960000Y-96520000D03*
X187960000Y-99060000D03*
X187960000Y-101600000D03*
X187960000Y-104140000D03*
X187960000Y-106680000D03*
X187960000Y-109220000D03*
X187960000Y-111760000D03*
X187960000Y-114300000D03*
X187960000Y-116840000D03*
D13*
X233680000Y-104140000D03*
D14*
X233680000Y-101600000D03*
X233680000Y-99060000D03*
X233680000Y-96520000D03*
X233680000Y-93980000D03*
X233680000Y-91440000D03*
X233680000Y-88900000D03*
X233680000Y-86360000D03*
X233680000Y-83820000D03*
X233680000Y-81280000D03*
X226060000Y-81280000D03*
X226060000Y-83820000D03*
X226060000Y-86360000D03*
X226060000Y-88900000D03*
X226060000Y-91440000D03*
X226060000Y-93980000D03*
X226060000Y-96520000D03*
X226060000Y-99060000D03*
X226060000Y-101600000D03*
X226060000Y-104140000D03*
D15*
X52100000Y-21200000D03*
X49500000Y-21200000D03*
X47400000Y-23700000D03*
X54200000Y-23700000D03*
X54200000Y-21200000D03*
X47400000Y-21200000D03*
D16*
X50800000Y-17400000D03*
X44050000Y-18200000D03*
X57550000Y-18200000D03*
D15*
X49500000Y-23700000D03*
X52100000Y-23700000D03*
D13*
X20320000Y-86360000D03*
D14*
X22860000Y-86360000D03*
X25400000Y-86360000D03*
X27940000Y-86360000D03*
X30480000Y-86360000D03*
X33020000Y-86360000D03*
X35560000Y-86360000D03*
X38100000Y-86360000D03*
X40640000Y-86360000D03*
X40640000Y-78740000D03*
X38100000Y-78740000D03*
X35560000Y-78740000D03*
X33020000Y-78740000D03*
X30480000Y-78740000D03*
X27940000Y-78740000D03*
X25400000Y-78740000D03*
X22860000Y-78740000D03*
X20320000Y-78740000D03*
D13*
X233680000Y-149860000D03*
D14*
X233680000Y-147320000D03*
X233680000Y-144780000D03*
X233680000Y-142240000D03*
X233680000Y-139700000D03*
X233680000Y-137160000D03*
X233680000Y-134620000D03*
X233680000Y-132080000D03*
X226060000Y-132080000D03*
X226060000Y-134620000D03*
X226060000Y-137160000D03*
X226060000Y-139700000D03*
X226060000Y-142240000D03*
X226060000Y-144780000D03*
X226060000Y-147320000D03*
X226060000Y-149860000D03*
D13*
X203200000Y-144780000D03*
D14*
X203200000Y-142240000D03*
X203200000Y-139700000D03*
X203200000Y-137160000D03*
X203200000Y-134620000D03*
X203200000Y-132080000D03*
X203200000Y-129540000D03*
X203200000Y-127000000D03*
X195580000Y-127000000D03*
X195580000Y-129540000D03*
X195580000Y-132080000D03*
X195580000Y-134620000D03*
X195580000Y-137160000D03*
X195580000Y-139700000D03*
X195580000Y-142240000D03*
X195580000Y-144780000D03*
D13*
X157480000Y-149860000D03*
D14*
X157480000Y-147320000D03*
X157480000Y-144780000D03*
X157480000Y-142240000D03*
X157480000Y-139700000D03*
X157480000Y-137160000D03*
X157480000Y-134620000D03*
X157480000Y-132080000D03*
X157480000Y-129540000D03*
X157480000Y-127000000D03*
X149860000Y-127000000D03*
X149860000Y-129540000D03*
X149860000Y-132080000D03*
X149860000Y-134620000D03*
X149860000Y-137160000D03*
X149860000Y-139700000D03*
X149860000Y-142240000D03*
X149860000Y-144780000D03*
X149860000Y-147320000D03*
X149860000Y-149860000D03*
D12*
X122885200Y-154457400D03*
X125603000Y-154457400D03*
X128371600Y-154457400D03*
X131114800Y-154457400D03*
X132486400Y-151612600D03*
X129743200Y-151612600D03*
X127000000Y-151612600D03*
X124256800Y-151612600D03*
D11*
X121513600Y-151612600D03*
D10*
X139494260Y-153035000D03*
X114505740Y-153035000D03*
D13*
X172720000Y-149860000D03*
D14*
X172720000Y-147320000D03*
X172720000Y-144780000D03*
X172720000Y-142240000D03*
X172720000Y-139700000D03*
X172720000Y-137160000D03*
X172720000Y-134620000D03*
X172720000Y-132080000D03*
X172720000Y-129540000D03*
X172720000Y-127000000D03*
X165100000Y-127000000D03*
X165100000Y-129540000D03*
X165100000Y-132080000D03*
X165100000Y-134620000D03*
X165100000Y-137160000D03*
X165100000Y-139700000D03*
X165100000Y-142240000D03*
X165100000Y-144780000D03*
X165100000Y-147320000D03*
X165100000Y-149860000D03*
D17*
X178800760Y-58420000D03*
D18*
X176799240Y-58420000D03*
D13*
X332740000Y-147320000D03*
D14*
X332740000Y-144780000D03*
X332740000Y-142240000D03*
X332740000Y-139700000D03*
X332740000Y-137160000D03*
X332740000Y-134620000D03*
X332740000Y-132080000D03*
X332740000Y-129540000D03*
X325120000Y-129540000D03*
X325120000Y-132080000D03*
X325120000Y-134620000D03*
X325120000Y-137160000D03*
X325120000Y-139700000D03*
X325120000Y-142240000D03*
X325120000Y-144780000D03*
X325120000Y-147320000D03*
D19*
X65405000Y-144399000D03*
D20*
X65405000Y-142621000D03*
X65405000Y-140843000D03*
X65405000Y-139065000D03*
X65405000Y-137287000D03*
X65405000Y-135509000D03*
X65405000Y-133731000D03*
X65405000Y-131953000D03*
X65405000Y-130175000D03*
X65405000Y-128397000D03*
X65405000Y-126619000D03*
X65405000Y-124841000D03*
X65405000Y-123063000D03*
X65405000Y-121285000D03*
X65405000Y-119507000D03*
X65405000Y-117729000D03*
X65405000Y-115951000D03*
X65405000Y-114173000D03*
X65405000Y-112395000D03*
X65405000Y-110617000D03*
X65405000Y-108839000D03*
X65405000Y-107061000D03*
X65405000Y-105283000D03*
X65405000Y-103505000D03*
X65405000Y-101727000D03*
X65405000Y-99949000D03*
X65405000Y-98171000D03*
X65405000Y-96393000D03*
X65405000Y-94615000D03*
X65405000Y-92837000D03*
X65405000Y-91059000D03*
X65405000Y-89281000D03*
X46355000Y-89281000D03*
X46355000Y-91059000D03*
X46355000Y-92837000D03*
X46355000Y-94615000D03*
X46355000Y-96393000D03*
X46355000Y-98171000D03*
X46355000Y-99949000D03*
X46355000Y-101727000D03*
X46355000Y-103505000D03*
X46355000Y-105283000D03*
X46355000Y-107061000D03*
X46355000Y-108839000D03*
X46355000Y-110617000D03*
X46355000Y-112395000D03*
X46355000Y-114173000D03*
X46355000Y-115951000D03*
X46355000Y-117729000D03*
X46355000Y-119507000D03*
X46355000Y-121285000D03*
X46355000Y-123063000D03*
X46355000Y-124841000D03*
X46355000Y-126619000D03*
X46355000Y-128397000D03*
X46355000Y-130175000D03*
X46355000Y-131953000D03*
X46355000Y-133731000D03*
X46355000Y-135509000D03*
X46355000Y-137287000D03*
X46355000Y-139065000D03*
X46355000Y-140843000D03*
X46355000Y-142621000D03*
X46355000Y-144399000D03*
D12*
X323850000Y-21590000D03*
X323850000Y-26670000D03*
X321310000Y-21590000D03*
X321310000Y-26670000D03*
X318770000Y-21590000D03*
X318770000Y-26670000D03*
X316230000Y-21590000D03*
X316230000Y-26670000D03*
X313690000Y-21590000D03*
X313690000Y-26670000D03*
X311150000Y-21590000D03*
X311150000Y-26670000D03*
X308610000Y-21590000D03*
X308610000Y-26670000D03*
X306070000Y-21590000D03*
X306070000Y-26670000D03*
X303530000Y-21590000D03*
X303530000Y-26670000D03*
X300990000Y-21590000D03*
X300990000Y-26670000D03*
X298450000Y-21590000D03*
X298450000Y-26670000D03*
X295910000Y-21590000D03*
X295910000Y-26670000D03*
X293370000Y-21590000D03*
X293370000Y-26670000D03*
X290830000Y-21590000D03*
X290830000Y-26670000D03*
X288290000Y-21590000D03*
X288290000Y-26670000D03*
X285750000Y-21590000D03*
X285750000Y-26670000D03*
X283210000Y-21590000D03*
X283210000Y-26670000D03*
X280670000Y-21590000D03*
X280670000Y-26670000D03*
X278130000Y-21590000D03*
X278130000Y-26670000D03*
X275590000Y-21590000D03*
X275590000Y-26670000D03*
X273050000Y-21590000D03*
X273050000Y-26670000D03*
X270510000Y-21590000D03*
X270510000Y-26670000D03*
X267970000Y-21590000D03*
X267970000Y-26670000D03*
X265430000Y-21590000D03*
X265430000Y-26670000D03*
X262890000Y-21590000D03*
X262890000Y-26670000D03*
D14*
X83820000Y-43180000D03*
X83820000Y-50800000D03*
D21*
X43180000Y-44450000D03*
X177800000Y-44450000D03*
X303530000Y-74930000D03*
X43180000Y-156210000D03*
X177800000Y-156210000D03*
X281940000Y-156210000D03*
D11*
X196850000Y-57150000D03*
D12*
X196850000Y-54610000D03*
X199390000Y-57150000D03*
X199390000Y-54610000D03*
X201930000Y-57150000D03*
X201930000Y-54610000D03*
X204470000Y-57150000D03*
X204470000Y-54610000D03*
X207010000Y-57150000D03*
X207010000Y-54610000D03*
X209550000Y-57150000D03*
X209550000Y-54610000D03*
X212090000Y-57150000D03*
X212090000Y-54610000D03*
X214630000Y-57150000D03*
X214630000Y-54610000D03*
D21*
X332740000Y-112395000D03*
D14*
X175260000Y-121920000D03*
X170180000Y-121920000D03*
X193040000Y-121920000D03*
X198120000Y-121920000D03*
X53340000Y-147320000D03*
X58420000Y-147320000D03*
X93980000Y-114300000D03*
X99060000Y-114300000D03*
X212090000Y-154940000D03*
X217170000Y-154940000D03*
X292100000Y-124460000D03*
X297180000Y-124460000D03*
X314960000Y-124460000D03*
X320040000Y-124460000D03*
X15240000Y-85090000D03*
X15240000Y-80010000D03*
X15240000Y-115570000D03*
X15240000Y-110490000D03*
X15240000Y-100330000D03*
X15240000Y-95250000D03*
X15240000Y-130810000D03*
X15240000Y-125730000D03*
X151130000Y-121920000D03*
X156210000Y-121920000D03*
X151130000Y-154940000D03*
X156210000Y-154940000D03*
X166370000Y-154940000D03*
X171450000Y-154940000D03*
X241300000Y-100330000D03*
X241300000Y-105410000D03*
X241300000Y-135890000D03*
X241300000Y-140970000D03*
X241300000Y-120650000D03*
X241300000Y-125730000D03*
X241300000Y-151130000D03*
X241300000Y-156210000D03*
X274320000Y-63500000D03*
X274320000Y-68580000D03*
X307340000Y-64770000D03*
X307340000Y-69850000D03*
X208280000Y-64770000D03*
X208280000Y-69850000D03*
X212090000Y-109220000D03*
X217170000Y-109220000D03*
X172720000Y-31750000D03*
X172720000Y-36830000D03*
X241300000Y-69850000D03*
X241300000Y-74930000D03*
X241300000Y-85090000D03*
X241300000Y-90170000D03*
X227330000Y-154940000D03*
X232410000Y-154940000D03*
X82550000Y-142240000D03*
X87630000Y-142240000D03*
X97790000Y-142240000D03*
X102870000Y-142240000D03*
X196850000Y-149860000D03*
X201930000Y-149860000D03*
X181610000Y-149860000D03*
X186690000Y-149860000D03*
X326390000Y-152400000D03*
X331470000Y-152400000D03*
X205740000Y-31750000D03*
X205740000Y-36830000D03*
X138430000Y-86360000D03*
X143510000Y-86360000D03*
X125730000Y-86360000D03*
X130810000Y-86360000D03*
X113030000Y-86360000D03*
X118110000Y-86360000D03*
X138430000Y-142240000D03*
X143510000Y-142240000D03*
X125730000Y-142240000D03*
X130810000Y-142240000D03*
X125730000Y-114300000D03*
X130810000Y-114300000D03*
X138430000Y-114300000D03*
X143510000Y-114300000D03*
X113030000Y-142240000D03*
X118110000Y-142240000D03*
X15240000Y-54610000D03*
X15240000Y-59690000D03*
X113030000Y-114300000D03*
X118110000Y-114300000D03*
X151130000Y-86360000D03*
X156210000Y-86360000D03*
X284480000Y-144780000D03*
X284480000Y-139700000D03*
X76200000Y-71120000D03*
X76200000Y-76200000D03*
X114300000Y-44450000D03*
X114300000Y-49530000D03*
X157480000Y-44450000D03*
X157480000Y-49530000D03*
X66040000Y-49530000D03*
X66040000Y-44450000D03*
X33020000Y-27940000D03*
X33020000Y-22860000D03*
X35560000Y-22860000D03*
X35560000Y-27940000D03*
X60960000Y-76200000D03*
X60960000Y-71120000D03*
X58420000Y-76200000D03*
X58420000Y-71120000D03*
X63500000Y-76200000D03*
X63500000Y-71120000D03*
X71120000Y-71120000D03*
X71120000Y-76200000D03*
X96520000Y-49530000D03*
X96520000Y-44450000D03*
X45720000Y-80010000D03*
X45720000Y-85090000D03*
D22*
X114300000Y-38059360D03*
D23*
X114300000Y-33060640D03*
D22*
X101600000Y-38059360D03*
D23*
X101600000Y-33060640D03*
D22*
X88900000Y-38059360D03*
D23*
X88900000Y-33060640D03*
D22*
X50800000Y-38059360D03*
D23*
X50800000Y-33060640D03*
D22*
X63500000Y-38059360D03*
D23*
X63500000Y-33060640D03*
D22*
X76200000Y-38059360D03*
D23*
X76200000Y-33060640D03*
D17*
X20320000Y-45700000D03*
D18*
X20320000Y-43200000D03*
D17*
X304820000Y-124460000D03*
D18*
X307320000Y-124460000D03*
D17*
X55880000Y-154920000D03*
D18*
X55880000Y-152420000D03*
D17*
X81280000Y-76180000D03*
D18*
X81280000Y-73680000D03*
D17*
X50800000Y-50780000D03*
D18*
X50800000Y-48280000D03*
D17*
X27940000Y-45700000D03*
D18*
X27940000Y-43200000D03*
D17*
X35560000Y-45700000D03*
D18*
X35560000Y-43200000D03*
D17*
X162560000Y-35544760D03*
D18*
X162560000Y-33543240D03*
D17*
X96520000Y-55610760D03*
D18*
X96520000Y-53609240D03*
D17*
X159750760Y-58420000D03*
D18*
X157749240Y-58420000D03*
D17*
X178800760Y-52070000D03*
D18*
X176799240Y-52070000D03*
D17*
X124460000Y-35290760D03*
D18*
X124460000Y-33289240D03*
D17*
X88900000Y-50530760D03*
D18*
X88900000Y-48529240D03*
X167640000Y-30749240D03*
D17*
X167640000Y-32750760D03*
D14*
X172720000Y-19050000D03*
X172720000Y-24130000D03*
X142240000Y-44450000D03*
X142240000Y-49530000D03*
X111760000Y-49530000D03*
X111760000Y-44450000D03*
X132080000Y-58420000D03*
X137160000Y-58420000D03*
X53340000Y-76200000D03*
X53340000Y-71120000D03*
X55880000Y-76200000D03*
X55880000Y-71120000D03*
X50800000Y-76200000D03*
X50800000Y-71120000D03*
X204470000Y-157480000D03*
X199390000Y-157480000D03*
X73660000Y-71120000D03*
X73660000Y-76200000D03*
X209550000Y-157480000D03*
X209550000Y-152400000D03*
X204470000Y-154940000D03*
X199390000Y-154940000D03*
D24*
X22860000Y-146050000D03*
X27940000Y-146050000D03*
X78740000Y-46990000D03*
X73660000Y-46990000D03*
D14*
X22860000Y-151130000D03*
X27940000Y-151130000D03*
X35560000Y-67310000D03*
X30480000Y-67310000D03*
X35560000Y-72390000D03*
X30480000Y-72390000D03*
X68580000Y-71120000D03*
X68580000Y-76200000D03*
X142240000Y-40640000D03*
D13*
X134620000Y-40640000D03*
D21*
X254317500Y-24130000D03*
X332422500Y-24130000D03*
X254317500Y-46990000D03*
X332422500Y-46990000D03*
D25*
X25400000Y-20637500D03*
D26*
X25400000Y-26837640D03*
D25*
X20599400Y-23637240D03*
D15*
X72800000Y-23700000D03*
X79600000Y-23700000D03*
X79600000Y-21200000D03*
X72800000Y-21200000D03*
D16*
X76200000Y-17400000D03*
X69450000Y-18200000D03*
X82950000Y-18200000D03*
D15*
X153700000Y-21200000D03*
X151100000Y-21200000D03*
X149000000Y-23700000D03*
X155800000Y-23700000D03*
X155800000Y-21200000D03*
X149000000Y-21200000D03*
D16*
X152400000Y-17400000D03*
X145650000Y-18200000D03*
X159150000Y-18200000D03*
D15*
X151100000Y-23700000D03*
X153700000Y-23700000D03*
D11*
X17780000Y-35560000D03*
D12*
X20320000Y-35560000D03*
X22860000Y-35560000D03*
X25400000Y-35560000D03*
X27940000Y-35560000D03*
X30480000Y-35560000D03*
X33020000Y-35560000D03*
X35560000Y-35560000D03*
D11*
X340360000Y-129540000D03*
D12*
X337820000Y-129540000D03*
X340360000Y-127000000D03*
X337820000Y-127000000D03*
X340360000Y-124460000D03*
X337820000Y-124460000D03*
X340360000Y-121920000D03*
X337820000Y-121920000D03*
X340360000Y-119380000D03*
X337820000Y-119380000D03*
X340360000Y-116840000D03*
X337820000Y-116840000D03*
X340360000Y-114300000D03*
X337820000Y-114300000D03*
X340360000Y-111760000D03*
X337820000Y-111760000D03*
X340360000Y-109220000D03*
X337820000Y-109220000D03*
X340360000Y-106680000D03*
X337820000Y-106680000D03*
X340360000Y-104140000D03*
X337820000Y-104140000D03*
X340360000Y-101600000D03*
X337820000Y-101600000D03*
X340360000Y-99060000D03*
X337820000Y-99060000D03*
X337820000Y-96520000D03*
X340360000Y-96520000D03*
X337820000Y-93980000D03*
X340360000Y-93980000D03*
X340360000Y-91440000D03*
X337820000Y-91440000D03*
X340360000Y-88900000D03*
X337820000Y-88900000D03*
X340360000Y-86360000D03*
X337820000Y-86360000D03*
X340360000Y-83820000D03*
X337820000Y-83820000D03*
X340360000Y-81280000D03*
X337820000Y-81280000D03*
D11*
X299720000Y-132080000D03*
D12*
X302260000Y-132080000D03*
D11*
X107950000Y-73660000D03*
D12*
X107950000Y-71120000D03*
D11*
X68580000Y-110490000D03*
D12*
X68580000Y-107950000D03*
X68580000Y-105410000D03*
D11*
X78740000Y-81280000D03*
D12*
X81280000Y-81280000D03*
X83820000Y-81280000D03*
D11*
X68580000Y-81280000D03*
D12*
X71120000Y-81280000D03*
X73660000Y-81280000D03*
D14*
X71120000Y-50800000D03*
X71120000Y-43180000D03*
D13*
X132080000Y-45720000D03*
D14*
X134620000Y-45720000D03*
X137160000Y-45720000D03*
X17780000Y-66040000D03*
X17780000Y-73660000D03*
X38100000Y-152400000D03*
X38100000Y-144780000D03*
X147320000Y-43180000D03*
X147320000Y-50800000D03*
X152400000Y-50800000D03*
X152400000Y-43180000D03*
X207010000Y-152400000D03*
X199390000Y-152400000D03*
X222250000Y-144780000D03*
X222250000Y-152400000D03*
X93980000Y-50800000D03*
X93980000Y-43180000D03*
X129540000Y-30480000D03*
X129540000Y-38100000D03*
X68580000Y-50800000D03*
X68580000Y-43180000D03*
X146050000Y-58420000D03*
X153670000Y-58420000D03*
X144780000Y-50800000D03*
X144780000Y-43180000D03*
X149860000Y-50800000D03*
X149860000Y-43180000D03*
X307340000Y-132080000D03*
X314960000Y-132080000D03*
X109220000Y-50800000D03*
X109220000Y-43180000D03*
X163830000Y-55880000D03*
X171450000Y-55880000D03*
X163830000Y-58420000D03*
X171450000Y-58420000D03*
X170180000Y-25400000D03*
X170180000Y-17780000D03*
X167640000Y-17780000D03*
X167640000Y-25400000D03*
X157480000Y-30480000D03*
X157480000Y-38100000D03*
X154940000Y-38100000D03*
X154940000Y-30480000D03*
X152400000Y-30480000D03*
X152400000Y-38100000D03*
X45720000Y-60960000D03*
X45720000Y-68580000D03*
X66040000Y-71120000D03*
X66040000Y-78740000D03*
X101600000Y-43180000D03*
X101600000Y-50800000D03*
X119380000Y-116840000D03*
X111760000Y-116840000D03*
X20320000Y-73660000D03*
X20320000Y-66040000D03*
X153670000Y-55880000D03*
X146050000Y-55880000D03*
X154940000Y-43180000D03*
X154940000Y-50800000D03*
X99060000Y-50800000D03*
X99060000Y-43180000D03*
X48260000Y-68580000D03*
X48260000Y-60960000D03*
X63500000Y-17780000D03*
X63500000Y-25400000D03*
X33020000Y-135890000D03*
X40640000Y-135890000D03*
X20320000Y-139700000D03*
X27940000Y-139700000D03*
X20320000Y-135890000D03*
X27940000Y-135890000D03*
X33020000Y-139700000D03*
X40640000Y-139700000D03*
X132080000Y-38100000D03*
X132080000Y-30480000D03*
X165100000Y-25400000D03*
X165100000Y-17780000D03*
X63500000Y-43180000D03*
X63500000Y-50800000D03*
X81280000Y-43180000D03*
X81280000Y-50800000D03*
X55880000Y-43180000D03*
X55880000Y-50800000D03*
X58420000Y-43180000D03*
X58420000Y-50800000D03*
X60960000Y-43180000D03*
X60960000Y-50800000D03*
D13*
X81280000Y-109220000D03*
D14*
X81280000Y-106680000D03*
X81280000Y-104140000D03*
X81280000Y-101600000D03*
X81280000Y-99060000D03*
X81280000Y-96520000D03*
X81280000Y-93980000D03*
X81280000Y-91440000D03*
X81280000Y-88900000D03*
X81280000Y-86360000D03*
D13*
X73660000Y-119380000D03*
D14*
X73660000Y-116840000D03*
X73660000Y-114300000D03*
X73660000Y-111760000D03*
X73660000Y-109220000D03*
X73660000Y-106680000D03*
X73660000Y-104140000D03*
X73660000Y-101600000D03*
X73660000Y-99060000D03*
X73660000Y-96520000D03*
D13*
X73660000Y-144780000D03*
D14*
X73660000Y-142240000D03*
X73660000Y-139700000D03*
X73660000Y-137160000D03*
X73660000Y-134620000D03*
X73660000Y-132080000D03*
X73660000Y-129540000D03*
X73660000Y-127000000D03*
X73660000Y-124460000D03*
X73660000Y-121920000D03*
D13*
X246380000Y-63500000D03*
D14*
X248920000Y-63500000D03*
X251460000Y-63500000D03*
X254000000Y-63500000D03*
X256540000Y-63500000D03*
X259080000Y-63500000D03*
X261620000Y-63500000D03*
X264160000Y-63500000D03*
X266700000Y-63500000D03*
X269240000Y-63500000D03*
D13*
X82550000Y-147320000D03*
D14*
X85090000Y-147320000D03*
X87630000Y-147320000D03*
X90170000Y-147320000D03*
X92710000Y-147320000D03*
X95250000Y-147320000D03*
X97790000Y-147320000D03*
X100330000Y-147320000D03*
X102870000Y-147320000D03*
X105410000Y-147320000D03*
D13*
X95250000Y-152400000D03*
D14*
X97790000Y-152400000D03*
X100330000Y-152400000D03*
X102870000Y-152400000D03*
X105410000Y-152400000D03*
X107950000Y-152400000D03*
D13*
X50800000Y-81280000D03*
D14*
X53340000Y-81280000D03*
X55880000Y-81280000D03*
X58420000Y-81280000D03*
X60960000Y-81280000D03*
X63500000Y-81280000D03*
D13*
X137160000Y-35560000D03*
D14*
X139700000Y-35560000D03*
X147320000Y-35560000D03*
X147320000Y-30480000D03*
X139700000Y-30480000D03*
X137160000Y-30480000D03*
D13*
X20320000Y-116840000D03*
D14*
X22860000Y-116840000D03*
X25400000Y-116840000D03*
X27940000Y-116840000D03*
X30480000Y-116840000D03*
X33020000Y-116840000D03*
X35560000Y-116840000D03*
X38100000Y-116840000D03*
X40640000Y-116840000D03*
X40640000Y-109220000D03*
X38100000Y-109220000D03*
X35560000Y-109220000D03*
X33020000Y-109220000D03*
X30480000Y-109220000D03*
X27940000Y-109220000D03*
X25400000Y-109220000D03*
X22860000Y-109220000D03*
X20320000Y-109220000D03*
D13*
X20320000Y-101600000D03*
D14*
X22860000Y-101600000D03*
X25400000Y-101600000D03*
X27940000Y-101600000D03*
X30480000Y-101600000D03*
X33020000Y-101600000D03*
X35560000Y-101600000D03*
X38100000Y-101600000D03*
X40640000Y-101600000D03*
X40640000Y-93980000D03*
X38100000Y-93980000D03*
X35560000Y-93980000D03*
X33020000Y-93980000D03*
X30480000Y-93980000D03*
X27940000Y-93980000D03*
X25400000Y-93980000D03*
X22860000Y-93980000D03*
X20320000Y-93980000D03*
D13*
X20320000Y-132080000D03*
D14*
X22860000Y-132080000D03*
X25400000Y-132080000D03*
X27940000Y-132080000D03*
X30480000Y-132080000D03*
X33020000Y-132080000D03*
X35560000Y-132080000D03*
X38100000Y-132080000D03*
X40640000Y-132080000D03*
X40640000Y-124460000D03*
X38100000Y-124460000D03*
X35560000Y-124460000D03*
X33020000Y-124460000D03*
X30480000Y-124460000D03*
X27940000Y-124460000D03*
X25400000Y-124460000D03*
X22860000Y-124460000D03*
X20320000Y-124460000D03*
D13*
X246380000Y-106680000D03*
D14*
X248920000Y-106680000D03*
X251460000Y-106680000D03*
X254000000Y-106680000D03*
X256540000Y-106680000D03*
X259080000Y-106680000D03*
X261620000Y-106680000D03*
X264160000Y-106680000D03*
X264160000Y-99060000D03*
X261620000Y-99060000D03*
X259080000Y-99060000D03*
X256540000Y-99060000D03*
X254000000Y-99060000D03*
X251460000Y-99060000D03*
X248920000Y-99060000D03*
X246380000Y-99060000D03*
D13*
X246380000Y-142240000D03*
D14*
X248920000Y-142240000D03*
X251460000Y-142240000D03*
X254000000Y-142240000D03*
X256540000Y-142240000D03*
X259080000Y-142240000D03*
X261620000Y-142240000D03*
X264160000Y-142240000D03*
X264160000Y-134620000D03*
X261620000Y-134620000D03*
X259080000Y-134620000D03*
X256540000Y-134620000D03*
X254000000Y-134620000D03*
X251460000Y-134620000D03*
X248920000Y-134620000D03*
X246380000Y-134620000D03*
D13*
X246380000Y-127000000D03*
D14*
X248920000Y-127000000D03*
X251460000Y-127000000D03*
X254000000Y-127000000D03*
X256540000Y-127000000D03*
X259080000Y-127000000D03*
X261620000Y-127000000D03*
X264160000Y-127000000D03*
X264160000Y-119380000D03*
X261620000Y-119380000D03*
X259080000Y-119380000D03*
X256540000Y-119380000D03*
X254000000Y-119380000D03*
X251460000Y-119380000D03*
X248920000Y-119380000D03*
X246380000Y-119380000D03*
D13*
X246380000Y-157480000D03*
D14*
X248920000Y-157480000D03*
X251460000Y-157480000D03*
X254000000Y-157480000D03*
X256540000Y-157480000D03*
X259080000Y-157480000D03*
X261620000Y-157480000D03*
X264160000Y-157480000D03*
X264160000Y-149860000D03*
X261620000Y-149860000D03*
X259080000Y-149860000D03*
X256540000Y-149860000D03*
X254000000Y-149860000D03*
X251460000Y-149860000D03*
X248920000Y-149860000D03*
X246380000Y-149860000D03*
D13*
X312420000Y-71120000D03*
D14*
X314960000Y-71120000D03*
X317500000Y-71120000D03*
X320040000Y-71120000D03*
X322580000Y-71120000D03*
X325120000Y-71120000D03*
X327660000Y-71120000D03*
X330200000Y-71120000D03*
X332740000Y-71120000D03*
X335280000Y-71120000D03*
X335280000Y-63500000D03*
X332740000Y-63500000D03*
X330200000Y-63500000D03*
X327660000Y-63500000D03*
X325120000Y-63500000D03*
X322580000Y-63500000D03*
X320040000Y-63500000D03*
X317500000Y-63500000D03*
X314960000Y-63500000D03*
X312420000Y-63500000D03*
D13*
X177800000Y-38100000D03*
D14*
X180340000Y-38100000D03*
X182880000Y-38100000D03*
X185420000Y-38100000D03*
X187960000Y-38100000D03*
X190500000Y-38100000D03*
X193040000Y-38100000D03*
X195580000Y-38100000D03*
X198120000Y-38100000D03*
X200660000Y-38100000D03*
X200660000Y-30480000D03*
X198120000Y-30480000D03*
X195580000Y-30480000D03*
X193040000Y-30480000D03*
X190500000Y-30480000D03*
X187960000Y-30480000D03*
X185420000Y-30480000D03*
X182880000Y-30480000D03*
X180340000Y-30480000D03*
X177800000Y-30480000D03*
D13*
X88900000Y-137160000D03*
D14*
X88900000Y-134620000D03*
X88900000Y-132080000D03*
X88900000Y-129540000D03*
X88900000Y-127000000D03*
X88900000Y-124460000D03*
X88900000Y-121920000D03*
X88900000Y-119380000D03*
X81280000Y-119380000D03*
X81280000Y-121920000D03*
X81280000Y-124460000D03*
X81280000Y-127000000D03*
X81280000Y-129540000D03*
X81280000Y-132080000D03*
X81280000Y-134620000D03*
X81280000Y-137160000D03*
D13*
X104140000Y-137160000D03*
D14*
X104140000Y-134620000D03*
X104140000Y-132080000D03*
X104140000Y-129540000D03*
X104140000Y-127000000D03*
X104140000Y-124460000D03*
X104140000Y-121920000D03*
X104140000Y-119380000D03*
X96520000Y-119380000D03*
X96520000Y-121920000D03*
X96520000Y-124460000D03*
X96520000Y-127000000D03*
X96520000Y-129540000D03*
X96520000Y-132080000D03*
X96520000Y-134620000D03*
X96520000Y-137160000D03*
D13*
X187960000Y-144780000D03*
D14*
X187960000Y-142240000D03*
X187960000Y-139700000D03*
X187960000Y-137160000D03*
X187960000Y-134620000D03*
X187960000Y-132080000D03*
X187960000Y-129540000D03*
X187960000Y-127000000D03*
X180340000Y-127000000D03*
X180340000Y-129540000D03*
X180340000Y-132080000D03*
X180340000Y-134620000D03*
X180340000Y-137160000D03*
X180340000Y-139700000D03*
X180340000Y-142240000D03*
X180340000Y-144780000D03*
D13*
X210820000Y-38100000D03*
D14*
X213360000Y-38100000D03*
X215900000Y-38100000D03*
X218440000Y-38100000D03*
X220980000Y-38100000D03*
X223520000Y-38100000D03*
X226060000Y-38100000D03*
X226060000Y-30480000D03*
X223520000Y-30480000D03*
X220980000Y-30480000D03*
X218440000Y-30480000D03*
X215900000Y-30480000D03*
X213360000Y-30480000D03*
X210820000Y-30480000D03*
D13*
X144780000Y-81280000D03*
D14*
X144780000Y-78740000D03*
X144780000Y-76200000D03*
X144780000Y-73660000D03*
X144780000Y-71120000D03*
X144780000Y-68580000D03*
X144780000Y-66040000D03*
X137160000Y-66040000D03*
X137160000Y-68580000D03*
X137160000Y-71120000D03*
X137160000Y-73660000D03*
X137160000Y-76200000D03*
X137160000Y-78740000D03*
X137160000Y-81280000D03*
D13*
X119380000Y-81280000D03*
D14*
X119380000Y-78740000D03*
X119380000Y-76200000D03*
X119380000Y-73660000D03*
X119380000Y-71120000D03*
X119380000Y-68580000D03*
X119380000Y-66040000D03*
X111760000Y-66040000D03*
X111760000Y-68580000D03*
X111760000Y-71120000D03*
X111760000Y-73660000D03*
X111760000Y-76200000D03*
X111760000Y-78740000D03*
X111760000Y-81280000D03*
D13*
X119380000Y-109220000D03*
D14*
X119380000Y-106680000D03*
X119380000Y-104140000D03*
X119380000Y-101600000D03*
X119380000Y-99060000D03*
X119380000Y-96520000D03*
X119380000Y-93980000D03*
X111760000Y-93980000D03*
X111760000Y-96520000D03*
X111760000Y-99060000D03*
X111760000Y-101600000D03*
X111760000Y-104140000D03*
X111760000Y-106680000D03*
X111760000Y-109220000D03*
D13*
X157480000Y-81280000D03*
D14*
X157480000Y-78740000D03*
X157480000Y-76200000D03*
X157480000Y-73660000D03*
X157480000Y-71120000D03*
X157480000Y-68580000D03*
X157480000Y-66040000D03*
X149860000Y-66040000D03*
X149860000Y-68580000D03*
X149860000Y-71120000D03*
X149860000Y-73660000D03*
X149860000Y-76200000D03*
X149860000Y-78740000D03*
X149860000Y-81280000D03*
D13*
X279400000Y-147320000D03*
D14*
X279400000Y-144780000D03*
X279400000Y-142240000D03*
X279400000Y-139700000D03*
X279400000Y-137160000D03*
X279400000Y-134620000D03*
X279400000Y-132080000D03*
X279400000Y-129540000D03*
X271780000Y-129540000D03*
X271780000Y-132080000D03*
X271780000Y-134620000D03*
X271780000Y-137160000D03*
X271780000Y-139700000D03*
X271780000Y-142240000D03*
X271780000Y-144780000D03*
X271780000Y-147320000D03*
D13*
X53340000Y-66040000D03*
D14*
X55880000Y-66040000D03*
X58420000Y-66040000D03*
X60960000Y-66040000D03*
X63500000Y-66040000D03*
X66040000Y-66040000D03*
X68580000Y-66040000D03*
X71120000Y-66040000D03*
X73660000Y-66040000D03*
X76200000Y-66040000D03*
X78740000Y-66040000D03*
X81280000Y-66040000D03*
X81280000Y-55880000D03*
X78740000Y-55880000D03*
X76200000Y-55880000D03*
X73660000Y-55880000D03*
X71120000Y-55880000D03*
X68580000Y-55880000D03*
X66040000Y-55880000D03*
X63500000Y-55880000D03*
X60960000Y-55880000D03*
X58420000Y-55880000D03*
X55880000Y-55880000D03*
X53340000Y-55880000D03*
D13*
X119380000Y-50800000D03*
D14*
X121920000Y-50800000D03*
X124460000Y-50800000D03*
X127000000Y-50800000D03*
X127000000Y-43180000D03*
X124460000Y-43180000D03*
X121920000Y-43180000D03*
X119380000Y-43180000D03*
D13*
X162560000Y-50800000D03*
D14*
X165100000Y-50800000D03*
X167640000Y-50800000D03*
X170180000Y-50800000D03*
X170180000Y-43180000D03*
X167640000Y-43180000D03*
X165100000Y-43180000D03*
X162560000Y-43180000D03*
X33020000Y-151030940D03*
X33020000Y-146149060D03*
X196850000Y-154940000D03*
X196850000Y-157480000D03*
X191770000Y-154940000D03*
X191770000Y-157480000D03*
X25400000Y-67409060D03*
X25400000Y-72290940D03*
D21*
X101600000Y-16510000D03*
X106680000Y-21590000D03*
X96520000Y-21590000D03*
D27*
X101600000Y-21590000D03*
D21*
X127000000Y-16510000D03*
X132080000Y-21590000D03*
X121920000Y-21590000D03*
D27*
X127000000Y-21590000D03*
D13*
X43180000Y-55880000D03*
D14*
X45720000Y-55880000D03*
X48260000Y-55880000D03*
X127000000Y-55880000D03*
X119380000Y-55880000D03*
X127000000Y-58420000D03*
X119380000Y-58420000D03*
X198120000Y-49530000D03*
X198120000Y-41910000D03*
X200660000Y-41910000D03*
X200660000Y-49530000D03*
X203200000Y-41910000D03*
X203200000Y-49530000D03*
M02*
