M48
; DRILL file {KiCad (5.1.0)-1} date 1/2/2020 1:27:18 PM
; FORMAT={-:-/ absolute / inch / decimal}
; #@! TF.CreationDate,2020-01-02T13:27:18-08:00
; #@! TF.GenerationSoftware,Kicad,Pcbnew,(5.1.0)-1
FMAT,2
INCH
T1C0.0157
T2C0.0320
T3C0.0390
T4C0.0400
T5C0.0590
T6C0.1200
T7C0.0670
T8C0.1200
T9C0.1570
%
G90
G05
T1
X2.075Y-6.7
X2.525Y-6.6
X2.825Y-6.4125
X3.15Y-4.9
X3.375Y-4.325
X3.675Y-5.175
X4.075Y-6.075
X4.8Y-4.325
X5.0Y-5.925
X5.7Y-5.175
X5.725Y-4.325
X6.0Y-6.0
X6.25Y-5.925
X6.425Y-4.325
X7.225Y-5.175
X7.55Y-5.1
X7.75Y-5.25
X7.9625Y-3.725
X8.0Y-3.95
X8.9375Y-3.7625
X8.95Y-5.1
X10.075Y-5.775
X10.125Y-7.7
X10.75Y-5.925
X10.9875Y-6.2
X11.075Y-7.525
X11.075Y-7.7
X11.85Y-7.775
X11.975Y-5.6
X11.975Y-5.85
X12.025Y-5.375
X12.075Y-7.775
X12.2Y-7.05
X12.4Y-5.0
X12.65Y-7.15
X13.15Y-5.65
X13.15Y-6.15
X13.15Y-7.15
T2
X7.25Y-4.15
X7.25Y-4.45
X7.35Y-4.15
X7.35Y-4.45
X7.45Y-4.15
X7.45Y-4.45
X7.55Y-4.15
X7.55Y-4.45
X7.65Y-4.15
X7.65Y-4.45
X7.75Y-4.15
X7.75Y-4.45
X7.85Y-4.15
X7.85Y-4.45
X7.95Y-4.15
X7.95Y-4.45
X3.4Y-7.7
X3.4Y-8.0
X9.95Y-3.8
X10.05Y-3.8
X8.55Y-3.65
X8.55Y-3.95
X7.25Y-3.65
X7.25Y-3.95
X7.35Y-3.65
X7.35Y-3.95
X7.45Y-3.65
X7.45Y-3.95
X7.55Y-3.65
X7.55Y-3.95
X7.65Y-3.65
X7.65Y-3.95
X7.75Y-3.65
X7.75Y-3.95
X7.85Y-3.65
X7.85Y-3.95
X8.45Y-4.15
X8.45Y-4.35
X8.75Y-4.35
X8.85Y-4.35
X8.95Y-4.35
X9.05Y-4.35
X9.15Y-4.35
X9.25Y-4.35
X7.05Y-4.15
X7.05Y-4.35
X8.45Y-3.65
X8.45Y-3.95
X3.3Y-7.7
X3.3Y-8.0
X3.5Y-7.7
X3.5Y-8.0
X7.05Y-3.65
X7.05Y-3.85
X8.65Y-3.65
X8.65Y-3.95
T3
X2.3062Y-6.6
X2.4062Y-6.6
X9.6188Y-8.1
X9.7188Y-8.1
T4
X8.95Y-4.05
X8.95Y-4.15
X9.05Y-4.05
X9.05Y-4.15
X9.15Y-4.05
X9.15Y-4.15
X9.25Y-4.05
X9.25Y-4.15
X9.35Y-4.05
X9.35Y-4.15
X9.45Y-4.05
X9.45Y-4.15
X9.55Y-4.05
X9.55Y-4.15
X9.65Y-4.05
X9.65Y-4.15
T5
X9.6125Y-7.05
X9.8625Y-6.95
X4.7375Y-6.3
X4.9875Y-6.2
X9.5187Y-7.8
X9.7687Y-7.7
X12.2375Y-5.55
X12.4875Y-5.45
X3.2375Y-6.3
X3.4875Y-6.2
X2.1125Y-5.55
X2.3625Y-5.45
X6.8Y-5.55
X7.05Y-5.45
X6.425Y-4.8
X6.675Y-4.7
X10.925Y-4.8
X11.175Y-4.7
X13.55Y-4.8
X13.8Y-4.7
X5.8625Y-7.05
X6.1125Y-6.95
X7.925Y-4.8
X8.175Y-4.7
X3.8937Y-7.8
X4.1437Y-7.7
X7.55Y-5.55
X7.8Y-5.45
X7.175Y-4.8
X7.425Y-4.7
X13.55Y-5.55
X13.8Y-5.45
X13.55Y-7.8
X13.8Y-7.7
X3.05Y-5.55
X3.3Y-5.45
X5.675Y-3.675
X5.925Y-3.575
X9.425Y-4.8
X9.675Y-4.7
X12.8Y-7.8
X13.05Y-7.7
X7.7375Y-6.3
X7.9875Y-6.2
X6.7062Y-7.8
X6.9562Y-7.7
X10.3625Y-7.05
X10.6125Y-6.95
X6.2375Y-6.3
X6.4875Y-6.2
X7.3625Y-7.05
X7.6125Y-6.95
X2.2062Y-6.3
X2.4562Y-6.2
X10.7375Y-6.3
X10.9875Y-6.2
X11.3937Y-7.8
X11.6437Y-7.7
X2.0187Y-7.8
X2.2687Y-7.7
X10.55Y-5.55
X10.8Y-5.45
X5.1125Y-7.05
X5.3625Y-6.95
X12.05Y-4.8
X12.3Y-4.7
X3.6125Y-7.05
X3.8625Y-6.95
X4.175Y-4.8
X4.425Y-4.7
X4.925Y-3.675
X5.175Y-3.575
X3.8Y-5.55
X4.05Y-5.45
X5.3Y-5.55
X5.55Y-5.45
X8.675Y-4.8
X8.925Y-4.7
X4.925Y-4.8
X5.175Y-4.7
X13.55Y-7.05
X13.8Y-6.95
X9.05Y-5.55
X9.3Y-5.45
X11.7687Y-7.05
X12.0187Y-6.95
X8.3Y-5.55
X8.55Y-5.45
X1.925Y-3.675
X2.175Y-3.575
X2.675Y-4.8
X2.925Y-4.7
X4.55Y-5.55
X4.8Y-5.45
X9.2375Y-6.3
X9.4875Y-6.2
X14.3Y-4.8
X14.55Y-4.7
X9.9875Y-6.3
X10.2375Y-6.2
X6.6125Y-7.05
X6.8625Y-6.95
X2.3937Y-7.05
X2.6437Y-6.95
X1.925Y-4.8
X2.175Y-4.7
X10.175Y-4.8
X10.425Y-4.7
X6.9875Y-6.3
X7.2375Y-6.2
X4.175Y-3.675
X4.425Y-3.575
X4.3625Y-7.05
X4.6125Y-6.95
X11.3Y-5.55
X11.55Y-5.45
X5.675Y-4.8
X5.925Y-4.7
X11.9562Y-6.3
X12.2062Y-6.2
X6.05Y-5.55
X6.3Y-5.45
X3.425Y-4.8
X3.675Y-4.7
X3.425Y-3.675
X3.675Y-3.575
X3.9875Y-6.3
X4.2375Y-6.2
X14.3Y-7.8
X14.55Y-7.7
X10.4562Y-7.8
X10.7062Y-7.7
X9.8Y-5.55
X10.05Y-5.45
X8.4875Y-6.3
X8.7375Y-6.2
X14.3Y-5.55
X14.55Y-5.45
X8.8625Y-7.05
X9.1125Y-6.95
X5.4875Y-6.3
X5.7375Y-6.2
X8.1125Y-7.05
X8.3625Y-6.95
X6.425Y-3.675
X6.675Y-3.575
T6
X8.2Y-3.65
X13.15Y-4.85
X12.3Y-8.05
X2.9Y-3.65
X8.2Y-8.05
X2.9Y-8.05
X14.3Y-6.35
T7
X7.875Y-4.9
X8.275Y-4.9
X3.8438Y-7.9
X4.2437Y-7.9
X7.5Y-5.65
X7.9Y-5.65
X7.125Y-4.9
X7.525Y-4.9
X13.5Y-5.65
X13.9Y-5.65
X13.5Y-7.9
X13.9Y-7.9
X3.0Y-5.65
X3.4Y-5.65
X5.625Y-3.775
X6.025Y-3.775
X9.375Y-4.9
X9.775Y-4.9
X12.75Y-7.9
X13.15Y-7.9
X7.6875Y-6.4
X8.0875Y-6.4
X6.6562Y-7.9
X7.0562Y-7.9
X10.3125Y-7.15
X10.7125Y-7.15
X6.1875Y-6.4
X6.5875Y-6.4
X7.3125Y-7.15
X7.7125Y-7.15
X2.1562Y-6.4
X2.5562Y-6.4
X10.6875Y-6.4
X11.0875Y-6.4
X11.3438Y-7.9
X11.7438Y-7.9
X1.9688Y-7.9
X2.3687Y-7.9
X10.5Y-5.65
X10.9Y-5.65
X5.0625Y-7.15
X5.4625Y-7.15
X12.0Y-4.9
X12.4Y-4.9
X3.5625Y-7.15
X3.9625Y-7.15
X4.125Y-4.9
X4.525Y-4.9
X4.875Y-3.775
X5.275Y-3.775
X3.75Y-5.65
X4.15Y-5.65
X5.25Y-5.65
X5.65Y-5.65
X8.625Y-4.9
X9.025Y-4.9
X4.875Y-4.9
X5.275Y-4.9
X13.5Y-7.15
X13.9Y-7.15
X9.0Y-5.65
X9.4Y-5.65
X11.7188Y-7.15
X12.1188Y-7.15
X8.25Y-5.65
X8.65Y-5.65
X1.875Y-3.775
X2.275Y-3.775
X2.625Y-4.9
X3.025Y-4.9
X4.5Y-5.65
X4.9Y-5.65
X9.1875Y-6.4
X9.5875Y-6.4
X14.25Y-4.9
X14.65Y-4.9
X9.9375Y-6.4
X10.3375Y-6.4
X6.5625Y-7.15
X6.9625Y-7.15
X2.3438Y-7.15
X2.7437Y-7.15
X1.875Y-4.9
X2.275Y-4.9
X10.125Y-4.9
X10.525Y-4.9
X6.9375Y-6.4
X7.3375Y-6.4
X4.125Y-3.775
X4.525Y-3.775
X4.3125Y-7.15
X4.7125Y-7.15
X11.25Y-5.65
X11.65Y-5.65
X5.625Y-4.9
X6.025Y-4.9
X11.9062Y-6.4
X12.3063Y-6.4
X6.0Y-5.65
X6.4Y-5.65
X3.375Y-4.9
X3.775Y-4.9
X3.375Y-3.775
X3.775Y-3.775
X3.9375Y-6.4
X4.3375Y-6.4
X14.25Y-7.9
X14.65Y-7.9
X10.4062Y-7.9
X10.8063Y-7.9
X9.75Y-5.65
X10.15Y-5.65
X8.4375Y-6.4
X8.8375Y-6.4
X14.25Y-5.65
X14.65Y-5.65
X8.8125Y-7.15
X9.2125Y-7.15
X5.4375Y-6.4
X5.8375Y-6.4
X8.0625Y-7.15
X8.4625Y-7.15
X6.375Y-3.775
X6.775Y-3.775
X9.5625Y-7.15
X9.9625Y-7.15
X4.6875Y-6.4
X5.0875Y-6.4
X9.4688Y-7.9
X9.8688Y-7.9
X12.1875Y-5.65
X12.5875Y-5.65
X3.1875Y-6.4
X3.5875Y-6.4
X2.0625Y-5.65
X2.4625Y-5.65
X6.75Y-5.65
X7.15Y-5.65
X6.375Y-4.9
X6.775Y-4.9
X10.875Y-4.9
X11.275Y-4.9
X13.5Y-4.9
X13.9Y-4.9
X5.8125Y-7.15
X6.2125Y-7.15
T8
X4.8862Y-8.175
X8.8262Y-8.175
X11.73Y-4.625
X12.67Y-4.625
X11.4488Y-6.875
X12.3887Y-6.875
X2.0737Y-6.875
X3.0137Y-6.875
X11.6363Y-6.125
X12.5762Y-6.125
T9
X9.2Y-5.65
X11.4488Y-7.475
X11.9187Y-7.15
X12.3887Y-7.475
X8.45Y-5.65
X2.075Y-3.775
X2.825Y-4.9
X4.7Y-5.65
X9.3875Y-6.4
X14.45Y-4.9
X10.1375Y-6.4
X6.7625Y-7.15
X2.0737Y-7.475
X2.5437Y-7.15
X3.0137Y-7.475
X2.075Y-4.9
X10.325Y-4.9
X7.1375Y-6.4
X4.325Y-3.775
X4.5125Y-7.15
X11.45Y-5.65
X5.825Y-4.9
X11.6363Y-6.725
X12.1062Y-6.4
X12.5762Y-6.725
X6.2Y-5.65
X3.575Y-4.9
X3.575Y-3.775
X4.1375Y-6.4
X14.45Y-7.9
X10.6062Y-7.9
X9.95Y-5.65
X8.6375Y-6.4
X14.45Y-5.65
X9.0125Y-7.15
X5.6375Y-6.4
X8.2625Y-7.15
X6.575Y-3.775
X9.7625Y-7.15
X4.8875Y-6.4
X9.6687Y-7.9
X12.3875Y-5.65
X3.3875Y-6.4
X2.2625Y-5.65
X6.95Y-5.65
X6.575Y-4.9
X11.075Y-4.9
X13.7Y-4.9
X6.0125Y-7.15
X8.075Y-4.9
X4.0438Y-7.9
X7.7Y-5.65
X7.325Y-4.9
X13.7Y-5.65
X13.7Y-7.9
X3.2Y-5.65
X5.825Y-3.775
X9.575Y-4.9
X12.95Y-7.9
X7.8875Y-6.4
X4.8862Y-7.575
X6.8563Y-7.9
X8.8262Y-7.575
X10.5125Y-7.15
X6.3875Y-6.4
X7.5125Y-7.15
X2.3562Y-6.4
X10.8875Y-6.4
X11.5437Y-7.9
X2.1687Y-7.9
X10.7Y-5.65
X5.2625Y-7.15
X11.73Y-5.225
X12.2Y-4.9
X12.67Y-5.225
X3.7625Y-7.15
X4.325Y-4.9
X5.075Y-3.775
X3.95Y-5.65
X5.45Y-5.65
X8.825Y-4.9
X5.075Y-4.9
X13.7Y-7.15
T0
M30
